<?xml version="1.0" encoding="UTF-8" standalone="no"?>
<svg xmlns:amcharts="http://amcharts.com/ammap" xmlns:dc="http://purl.org/dc/elements/1.1/" xmlns:cc="http://creativecommons.org/ns#" xmlns:rdf="http://www.w3.org/1999/02/22-rdf-syntax-ns#" xmlns:svg="http://www.w3.org/2000/svg" xmlns="http://www.w3.org/2000/svg" xmlns:sodipodi="http://sodipodi.sourceforge.net/DTD/sodipodi-0.dtd" xmlns:inkscape="http://www.inkscape.org/namespaces/inkscape" inkscape:version="1.0 (4035a4fb49, 2020-05-01)" sodipodi:docname="map_hug_clear.svg" id="svg212" version="1.1">
    <metadata id="metadata216">
        <rdf:RDF>
            <cc:Work rdf:about="">
                <dc:format>image/svg+xml</dc:format>
                <dc:type rdf:resource="http://purl.org/dc/dcmitype/StillImage" />
                <dc:title></dc:title>
            </cc:Work>
        </rdf:RDF>
    </metadata>
    <sodipodi:namedview inkscape:current-layer="g210" inkscape:window-maximized="1" inkscape:window-y="-8" inkscape:window-x="-8" inkscape:cy="141.19297"
                        inkscape:cx="253.35942" inkscape:zoom="1.6605224" showgrid="false" id="namedview214" inkscape:window-height="1017" inkscape:window-width="1920"
                        inkscape:pageshadow="2" inkscape:pageopacity="0" guidetolerance="10" gridtolerance="10" objecttolerance="10" borderopacity="1" bordercolor="#666666"
                        pagecolor="#ffffff">
        <inkscape:grid id="grid218" type="xygrid" />
    </sodipodi:namedview>
    <defs id="defs168">
        <style id="style166" type="text/css">
            .land
            {
                fill: #CCCCCC;
                fill-opacity: 1;
                stroke:white;
                stroke-opacity: 1;
                stroke-width:0.5;
            }
        </style>

        <amcharts:ammap bottomLatitude="45.736783" rightLongitude="22.897693" topLatitude="48.586431" leftLongitude="16.113807" projection="mercator"></amcharts:ammap>
        <!-- All areas are listed in the line below. You can use this list in your script. -->
        <!--{id:"HU-BK"},{id:"HU-BA"},{id:"HU-BE"},{id:"HU-BC"},{id:"HU-BZ"},{id:"HU-BU"},{id:"HU-CS"},{id:"HU-DE"},{id:"HU-DU"},{id:"HU-EG"},{id:"HU-FE"},{id:"HU-GY"},{id:"HU-GS"},{id:"HU-HB"},{id:"HU-HE"},{id:"HU-HV"},{id:"HU-JN"},{id:"HU-KV"},{id:"HU-KM"},{id:"HU-KE"},{id:"HU-MI"},{id:"HU-NK"},{id:"HU-NO"},{id:"HU-NY"},{id:"HU-PS"},{id:"HU-PE"},{id:"HU-SO"},{id:"HU-SN"},{id:"HU-SZ"},{id:"HU-SD"},{id:"HU-SF"},{id:"HU-SK"},{id:"HU-SH"},{id:"HU-TB"},{id:"HU-TO"},{id:"HU-VA"},{id:"HU-VE"},{id:"HU-VM"},{id:"HU-ZA"},{id:"HU-ZE"}-->
    </defs>
    <g id="g210">
        <path id="HU-BK" title="Bács-Kiskun" class="land" d="m 257.38,208.68 0.72,-1.85 -1.69,-2.87 6,1.35 0.21,0.75 3.84,1.88 2.27,-1.24 0.76,-2.72 3.15,-1.05 2.39,-3.28 3.31,0.13 0.81,1.25 2.03,-4.66 2.39,-0.65 1.03,-1.32 1.64,0.31 5.37,5.38 -2.73,3.25 -1.92,4.33 3.71,5.28 2.77,-3.48 -0.18,-1.35 1.33,-0.01 4.31,-4.08 4.39,1.28 2.67,-8.76 5.08,1.89 2.21,-2.05 2.97,5.17 2.08,6.73 4.04,4.57 v 0 l 8.4,6.23 1.97,-0.78 c 2.62,1.57 0,0 2.62,1.57 v 0 l 0.83,-0.06 3.23,-6.86 4.83,3 4.88,1.43 -0.12,-2.41 1.41,-2.41 6.4,-2.56 2.29,1.5 v 0 l 3.29,1.85 0.89,1.29 -0.93,0.94 0.41,1.92 -2.46,1.16 0.01,1.41 3.28,0.44 1.54,2.83 -3.17,1.59 -0.23,1.32 -3.15,2.39 -1.83,-0.79 -0.78,0.5 -1.13,2.53 -0.94,-0.88 -2.65,2.16 -0.88,-0.25 1.5,2.02 1.58,0.29 0.57,-0.71 0.34,1.13 -3.13,0.57 -0.12,2.18 2.67,1.76 0.51,-1.37 -0.73,-1.67 1.06,-0.51 1.54,1.58 0.03,1.01 v 0 l -3.33,3.01 -5.13,7.01 3.91,4.22 -2.77,7.7 1.21,1.66 -0.49,2.79 0.49,1.53 -4.71,5.5 -4.7,-3.9 -10.01,6.3 2.64,3.28 3.62,-0.68 4.11,4 0.53,2.52 -1.52,2.22 1.58,3.15 -1.83,4.52 -2.11,1.79 -3.44,-2.32 -6.8,5.25 -2,-1.55 -5.95,1.9 0.68,2.21 2.51,3.24 -4.93,5.3 3.88,5.55 1.6,4.4 v 0 l -1.25,0.86 -1.76,-1.21 -2.64,2.59 -6.15,-0.99 -0.92,1.95 -4.5,2.43 1.81,3.23 -5.38,3.11 0.04,1.86 -4.53,4.51 -3.1,1.33 -1.48,-1.99 -7.35,4.67 1.77,2.92 -0.52,0.48 -1.02,-1.07 -12.42,0.03 -1.08,-5.04 -2.66,-0.46 -3.67,5.07 1.26,4.61 -6.01,0.12 -1.65,2.05 1.18,3.04 -1.17,0.12 -0.79,-1.14 -2.23,0.76 -4.98,-1.15 -2.46,2.45 -1.46,-0.55 0.37,1.31 -3.55,0.8 -0.76,-1.27 -0.61,0.69 v 0 l -1.4,-1.25 0.69,-1.66 2.84,-1.56 1.49,0.06 -2.31,-2.09 3.52,-7.59 -2.05,-1.61 0.08,-1.3 2.18,-0.87 -2.51,-1.26 -0.88,-4.43 1.25,-1.39 -2.7,-1.12 v 0 l -0.09,-1.41 1.24,0.56 0.79,-2.16 -3.62,-1.08 0.08,-2.29 1.01,-1.2 1.34,-0.25 -0.34,2.02 0.62,1.31 2,-5.62 1.75,-0.6 -0.53,-1.5 0.74,-2.01 -3.32,2.31 -1.17,-0.8 2.92,-3.43 0.76,0.65 1.04,-1.17 -0.84,-3.97 0.95,-0.13 1.76,1.34 1.47,-0.17 0.99,-5.91 -2.12,-3.58 -1.21,-8.24 0.42,-2.07 2.83,-4.83 0.04,-3.79 -2.38,-5.66 -0.25,-5.59 -2.67,-4.07 -0.26,-2.01 2.08,-3.23 4.13,-0.62 3.46,-1.98 3.25,-4.96 0.16,-2.36 -1.73,-3.17 -1.23,-5.01 -1.69,-3.27 -2.52,-2.34 -0.16,-5.42 v 0 l 2.97,-8.05 v 0 l 0.87,-2.18 -1.39,-5.84 0.85,-3.06 v 0 z" />
        <path id="HU-BA" title="Baranya" class="land" d="m 174.87,304.5 2.1,0.76 0.58,-1.05 1.69,-0.16 1.94,2.54 0.68,-0.94 -1.46,-0.66 -0.09,-2.97 1.75,-0.86 1.56,1 4.53,-2.97 -0.02,-2.06 -1.38,-1.6 -0.02,-3.81 3.76,-1.6 3.68,0.84 4.25,-2.01 2.83,2.49 -0.24,2.79 0.71,2.07 3.28,1.69 0.13,1.46 -1.34,1.41 0.17,4.15 2.2,0.87 1.32,-0.47 0.56,1.5 -1.75,4.83 -1.88,1.34 -1.73,0.16 0.79,1.52 1.25,0.05 5.6,-3.46 -0.07,-1.13 1.88,-0.3 -0.39,-0.73 1.67,-1.13 -0.13,-3.97 0.71,0.98 1.89,0.35 1.46,2.56 0.8,0.23 0.17,-1.22 0.53,0.81 -0.62,1.01 0.76,1.64 -0.99,2.86 1.99,1.39 1.85,-0.23 -0.69,1.31 2.17,3.72 1.94,-1.01 0.77,1.99 2.4,1.51 3.64,4.7 0.7,-0.64 5.07,3.04 1.53,-0.82 1.18,0.77 3.22,-0.17 v 0 l 2.7,1.12 -1.25,1.39 0.88,4.43 2.51,1.26 -2.18,0.87 -0.08,1.31 2.06,1.61 -3.53,7.59 2.32,2.1 -1.5,-0.06 -2.83,1.57 -0.69,1.66 1.4,1.25 v 0 l -0.39,3.84 -1.3,0.18 -2.95,-1.47 -1.12,-1.4 -2.44,-0.59 -1.52,-1.62 -3.07,0.8 -0.92,-0.68 0.14,2.56 -1.9,1.1 1.11,1.64 -1.36,1.03 -0.69,-1.12 -0.68,2.83 -0.77,0.09 0.7,1.79 -1.94,0.71 -0.72,1.74 -1.77,0.72 0.01,1.83 -1.42,-0.35 -0.49,1.24 -1.71,0.01 -1.2,0.66 0.07,0.67 -2.75,-1.43 -0.84,3.65 -2.26,-0.42 -0.94,0.97 0.13,3.15 -3.66,-0.42 -0.86,-0.59 -0.24,-1.77 -2.74,-1.86 0.19,0.86 -0.81,-0.13 -1.78,2.68 -0.35,-0.85 -3.33,-0.95 -1.78,0.7 -3,-0.86 -1.28,-2.19 -3.9,-1.11 -1.62,1.39 -1.67,-1.48 -2.53,-0.18 -1.69,2.63 -1.94,0.49 -5.13,-1.66 -2.47,-2.12 -6.26,1.34 -2.07,-0.82 -2.62,1.5 -1.4,1.87 -1.06,-2.09 -1.32,-0.7 -1,-2.91 -1.05,0.75 -3.07,-1.65 -1.88,0.62 -1.72,-2.32 -2.53,-0.17 -1.51,-0.93 -2.24,0.44 -1.57,-1.65 v 0 l 1.59,-0.52 -0.23,-1.15 1.7,-1.63 0.81,1.85 0.72,-1.07 2.17,0.39 0.64,-1.73 -0.76,-1.98 0.63,-0.75 -1.17,-0.89 0.28,-1.23 -2.25,-1.36 0.04,-1.84 -2.84,-0.1 -0.72,-1.6 -0.69,0.3 0.82,1.91 -1.44,-0.15 -1.78,-6.37 2.72,-0.78 0.08,-1.93 -1.98,-2.72 -0.39,-2.2 2.49,-1.02 0.13,-1.09 1.42,-0.23 0.53,-3.67 -1.36,-1.49 1.86,-0.99 0.16,-6.19 1.55,-2.83 0.02,-1.77 1.89,-1.88 -0.91,-1.88 1.75,-1.33 1.25,3.55 1.81,0.6 1.59,-1.79 -0.2,-1.16 0.87,-0.39 0.6,1.07 1.32,-0.34 0.11,1.18 2.51,0.35 1.21,-1.36 1.26,0.31 0.51,-1.03 2.05,0.34 0.54,-0.71 1.08,0.65 1.11,-0.96 -0.35,-3.6 2.18,-6.25 4.68,-0.23 0.45,1.34 1.37,-0.55 2.13,1 z" />
        <path id="HU-BE" title="Békés" class="land" d="m 438.62,182 1.25,1.01 0.73,-1.17 1.94,0.85 2.87,4.46 1.16,-0.41 0.03,-1.68 5.66,4.47 6.5,0.86 2.71,2.34 6.55,-0.34 -0.79,2.49 0.67,1.76 -1.37,1.04 0.62,3.21 -5.23,3.9 0.88,3.08 -1.19,0.59 -0.01,1.27 1.54,1.64 9.73,3.96 5.06,0.05 1.31,1.31 1.16,-0.33 0.15,1.61 -0.99,0.26 -0.69,2.1 1.99,-1.84 2.45,0.8 0.88,1.12 1.58,-1.75 6.15,-0.94 -0.76,-2.48 0.86,-2.9 3.17,0.55 1.89,-1.63 0.46,-1.58 0.94,-0.55 0.25,1.31 1.49,-1.07 v 0 l 1.76,0.77 0.91,2.26 -1.05,0.58 -0.86,3.26 1.23,0.41 0.01,0.69 -0.7,1.34 -1.31,-0.36 -1.89,2.99 -3.41,0.79 -0.08,2.36 1.42,3.09 -0.96,0.24 -0.24,2.63 -7.21,3.59 -0.12,4.75 -0.97,2.37 -2.24,2.26 0.07,0.92 3.73,2.64 0.17,2.48 -1.42,1.13 -1.78,3.38 -1.88,-1.25 -2.08,0.87 -1.53,-0.67 0.33,2.18 1.81,1.91 -1.5,1.64 -1.7,0.54 -0.89,3.04 -3.9,-1.92 -1.48,1.01 -2.13,0.09 -1.18,1.47 -1.02,3.52 1.56,1.14 -2.59,4.74 -1.43,0.52 -1.33,5.32 1.2,3.17 1.99,0.16 1.81,3.07 -0.35,1.38 -2.08,3.43 0.5,1.11 -6.48,-0.89 -0.67,1.38 -0.86,0.1 -0.69,7.26 -2.2,2.28 0.58,3.14 -0.96,0.9 -1.99,-0.1 -0.24,-0.85 -2.82,0.61 -1.06,4.93 -2.8,1.15 -0.73,1.27 -2.45,-0.74 -1.16,-2.18 -2.78,0.92 -3.69,-0.61 -0.61,-1.79 -1.77,0.27 -0.73,1.77 -2.42,-1.21 -1.52,-2.04 -7.35,1.87 -1.35,-0.27 v 0 l -2.44,-1.87 0.98,-3.8 -0.13,-4.17 -1.75,-4.43 -4.2,0.65 -0.91,3.7 -5.14,-0.52 -0.14,0.57 -4.2,-2.08 -2.66,-3.44 v 0 l 2.08,-1.88 1.01,0.05 -0.07,-4.29 v 0 -1.74 l 2.22,-0.7 -0.5,-2.66 1.33,-6.36 -0.27,-1.2 -2.45,-0.93 -1.17,-1.58 0.73,-1.33 -0.23,-9.63 -0.61,-0.43 0.63,-4.68 1.23,-0.03 -0.96,-5.95 1.47,-4.37 -2.99,-2.34 -5.13,0.05 -4.94,-4.81 -2.73,1.08 v 0 l -1.37,-7.23 4.53,-5.05 5.03,0.21 2.6,-1.13 0.75,-1.78 2.57,0.62 1.66,-0.72 3.97,2.32 2.86,-1.87 1.66,0.46 1.05,-0.74 1.96,-3.03 0.17,-2.1 -2.08,-0.32 0.72,-0.74 1.25,0.47 -0.27,-1.96 -1.25,-0.45 0.66,-2.78 -0.97,-0.95 0.33,-3.47 1.48,0.13 0.3,-1.41 2.5,-1.35 0.23,2.18 4.44,-0.03 -0.13,-1.03 0.89,-0.22 -0.55,-0.36 2.42,-1.04 0.74,-1.5 1.52,0.58 -1.14,-1.43 0.42,-2.07 -1.12,-2.38 0.24,-1.31 2.01,-0.46 -1.77,-3.58 4.32,-3.35 1.44,0.03 1.9,-1.85 1.22,0.03 z" />
        <path id="HU-BZ" title="Borsod-Abaúj-Zemplén" class="land" d="m 480.64,0.01 0.87,1.43 3.35,2.23 1.12,-0.22 1.46,1.44 -0.03,1.43 2.46,4.28 1.66,-0.49 1.62,1.03 1.23,-1.4 1.08,0.85 0.75,-0.3 0.9,2.39 -0.04,3.26 3.57,7.03 0.11,2.76 0.82,1.05 1.03,-0.22 1.84,1.09 -0.13,1.64 1.16,0.55 -0.18,1.55 1.25,0.77 3.65,1.23 2.98,-0.2 2.07,1.3 0.94,-0.5 0.4,-3.94 1.69,0.01 0.66,1.45 1.35,-1.15 0.74,0.53 -0.43,-0.93 0.54,-0.66 0.28,0.98 0.49,-0.95 0.23,0.69 0.85,-0.5 1.63,0.95 0.06,-1.3 1.86,-0.99 3.37,0.31 3.83,-2.2 2.53,2.04 1.84,-1.22 0.93,1.93 0.84,-1.24 0.27,0.72 1.76,-0.32 v 0 l -0.42,1.6 0.9,0.9 -1.77,0.06 1.67,1.1 -1.44,0.33 -2.34,3.27 0.86,2.3 -2.22,-0.27 0.05,1.39 -1.56,-0.93 1.09,1.18 -0.69,0.97 -0.47,-1.26 -1.34,-0.77 0.09,1.19 -2.02,0.03 1.04,-1.92 -1.13,0.15 -2.67,2.43 -0.63,1.3 0.48,1.01 -0.96,-0.4 -2.25,2.63 -0.66,-0.67 0.09,1.16 -1.21,0.58 -0.62,1.49 -2.1,-0.87 -2,1.18 -2.04,-0.38 -0.91,2.13 -1.02,-2.48 -0.4,1.37 -1.09,-1.09 0.15,1.82 -1.38,0.26 0.19,1.36 -1.03,0.26 -0.51,1.28 -1.17,-0.63 -0.35,1.69 -1.5,0.63 0.08,-1.75 -1.7,0.91 -0.76,-0.7 -0.33,1.58 -0.83,-0.7 -4.2,0.61 -4.82,-0.56 -3.15,-1.85 -0.54,1.02 -1.51,0.09 -3.46,2.05 0.36,1.32 -1.57,0.41 -0.11,-0.61 -2.03,-0.42 -0.83,1.85 -1.28,-1.66 -1.23,0.07 -1.73,2.79 0.47,2.85 -1.31,1.92 0.76,2.01 2.49,2.21 -0.24,0.7 -1.33,-0.36 0.38,1.44 1.43,-0.19 0.84,0.92 -2.23,0.83 -0.09,2.5 -0.65,0.34 -1.47,-1.02 -0.53,2.58 -4.83,0.01 -1.57,1.56 -1.64,-1.29 -1.88,0.23 -0.11,-1.26 -2.71,0.08 -1.06,-2.22 -2.73,2.14 0.48,1.57 -0.92,0.62 -2.45,-0.86 -1.98,0.4 0.26,-1.8 -0.63,-0.63 -1.27,0.48 -1.75,-0.86 -0.32,1.16 -4.52,4.48 2.58,3.88 -0.49,0.74 1.8,1.26 v 0 l -0.98,4.06 -1.73,1.46 1.34,0.69 1.58,-0.44 0.1,0.73 -3.77,2.96 0.01,3.55 -2.5,1.54 2.1,4.45 -1,1.47 -0.22,2.36 -1.45,1.92 -0.56,3.26 -0.64,0.66 -1.55,-1.53 -1.81,0.7 -0.56,2.43 0.59,1.85 -4.49,0.93 -1.48,1.6 0.19,1.25 -1.03,-0.21 -1.96,1.33 -1.49,-1.73 0.15,2.56 1.36,0.38 -1.08,0.69 v 0 l -1.48,-0.27 v 0 h -2.02 l 0.54,2.13 1.75,1.07 -0.58,0.82 -1.11,-0.52 -0.44,-1.51 -1.21,-0.08 -0.11,-1.41 -0.93,0.13 v 0 l -3.04,-1.76 -2.76,2.04 0.61,1.61 v 0 l -5.88,-4.64 -1.25,0.48 -1.3,-1.03 -0.39,0.9 -3,-0.07 -5.26,-3.17 -0.82,-1.08 2.07,-2.78 -5.88,-4.98 -1.13,-2.54 -1.14,-0.78 -0.37,-2.43 1.11,-2.45 -0.77,-3.29 -3.5,-1.55 -1.58,-2.76 v 0 l 1.54,-2.04 v 0 l 0.67,-0.09 v 0 l 0.64,0.67 1.91,-0.07 -0.77,-1.26 2.4,-1.79 -0.46,-1.42 -3.71,-1.89 -2.02,-2.13 3.58,-7.23 0.04,-2.6 -1.03,-2.15 1.59,-0.29 0.76,-1.07 v 0 l -2.13,-3.19 c -0.17,-3.27 0,0 -0.17,-3.27 v 0 l -2.63,-4.64 -3.36,0.19 -0.9,-0.59 -1.37,0.56 0.33,1.71 -2.36,2.83 -0.65,3.18 -2.91,-2.19 -0.72,-1.93 -1.55,0.67 -1.21,-0.62 -0.73,3.35 -3.13,1.07 -2.81,-0.6 -1.13,-1.62 -2.7,-1.01 -0.72,-2.92 -3.36,-1.1 -2.39,0.71 -0.65,-0.68 v 0 l -0.48,-1.23 -2.12,-0.33 -1.14,-1.85 v 0 l 2.57,-2 -0.91,-0.86 0.78,-0.96 1.01,0.03 3.92,-3.61 0.78,-2.74 -0.42,-1.38 3.77,0.67 2.72,-0.38 -0.4,-1.3 2.3,-0.18 0.63,-1.25 -0.73,-0.77 1.23,-0.44 4.09,2.53 2.37,-0.4 -0.44,-1.13 1.67,0.07 1.06,-3.62 2.56,-2.48 0.73,-1.21 -0.49,-0.73 3.81,-4.63 -0.61,-2.1 1.31,-1.78 -0.06,-3.45 2.87,-3.67 1.93,-1.14 -0.55,-1.17 1.81,-1.16 0.97,-1.98 1.14,-0.24 0.25,-3.26 -0.75,-2.27 1.46,-0.95 1.6,1.29 1.03,-2.26 3.44,1.33 6.46,-3.57 2.16,0.01 3.01,-1.3 1.54,0.62 10.21,-2.48 -0.6,1.06 0.78,-0.22 v 1.85 l 1.71,1.66 4.66,-0.85 1.46,2.67 0.6,-0.52 0.12,0.93 1.28,0.25 0.11,1.46 1.53,-0.07 0.66,0.77 2.92,-2.02 3.46,0.72 0.01,0.69 1.14,-0.61 2.55,1.25 0.57,2.57 1.88,0.88 0.99,-0.26 1.61,-3.07 2.02,-0.88 0.64,0.6 0.67,-0.86 2,-0.36 -0.02,-0.85 0.72,0.21 0.38,-0.75 1.04,0.45 0.64,-0.7 2.51,1.86 3.48,0.39 0.95,-1.32 -0.5,-0.99 0.61,0.09 0.39,-1.03 -0.63,-0.64 1.07,-0.39 -0.91,-0.28 0.4,-0.66 5.13,0.35 1.96,-0.71 1.42,0.66 0.7,-2.76 z" />
        <path id="HU-BU" title="Budapest" class="land" d="M270.25,131.44L269.97,131.98L271.05,132.76L273.17,133.2L274.37,134.88L274.35,135.77L273.59,135.86L276.19,137.6L275.02,138.28L277.15,140.52L279.36,140.8L280.36,141.85L282.58,141.24L284.27,145.04L289.23,144.13L288.84,147.12L290.63,151.02L287.63,151.93L285.79,154.72L284.4,154.44L282.99,157.02L282.39,156.79L279.03,160.08L276.63,164.66L273.91,165.23L273.02,166.2L269.19,162.32L269.82,161.29L267.88,158.9L263.24,161.82L262.23,160.65L256.55,162.76L255.97,160.54L256.95,159.48L256.52,156.86L258.24,155.27L258.4,153.11L257.7,152.66L258.78,151.32L257.05,148.48L255.6,148.49L254.59,147.28L255.47,146.28L254.39,145.25L255.19,143.66L253.75,143.19L254.53,143.07L254.58,140.38L253.71,140.4L255,139.36L254,136.58L255.91,135.58L258.32,136.41L259.43,134.82L263.46,134.57L262.67,132.22L264.21,131.44L267.39,131.85L267.07,134.5L269.05,131.46z" />
        <path id="HU-CS" title="Csongrád" class="land" d="m 388.64,238.37 2.73,-1.08 4.95,4.81 5.13,-0.05 2.99,2.34 -1.47,4.37 0.96,5.95 -1.23,0.03 -0.63,4.68 0.61,0.43 0.23,9.64 -0.73,1.33 1.17,1.58 2.45,0.93 0.27,1.2 -1.33,6.36 0.51,2.66 -2.22,0.71 v 1.74 0 l 0.13,4.36 -1.06,-0.12 -2.03,1.95 2.66,3.44 4.2,2.08 0.11,-0.63 5.14,0.52 0.91,-3.7 4.21,-0.65 1.77,4.49 0.13,4.17 -0.98,3.8 2.44,1.87 -2.29,3.48 0.83,5.53 -2.75,-0.32 -1.4,5.5 -3.31,2.84 -1.9,-0.95 -1.51,3.17 -8.52,-6.87 -4.11,-1.68 -0.41,2.87 -2.81,3.17 -2.5,0.22 -3.28,-1.86 -0.52,0.91 -1.2,-1.08 -1.23,1.18 -1.17,-2.51 -3.75,2.64 -0.37,-0.91 -1.82,1.36 -2.12,2.43 -0.88,1.37 -0.55,-0.66 -0.13,-1.1 -1.12,0.72 -2.44,-1.37 -0.09,-0.93 -2.34,-2.19 v 0 l -3.73,1.84 -2.83,-2.12 -0.46,-1.96 -1.02,0.4 -2.49,3.58 -2.45,-0.16 -1.17,-3.08 v 0 l -8.33,-0.65 -1.79,1.53 -5.31,1.82 -3.22,2.79 -5.18,-2.35 -2.54,-3.1 -1.29,0.03 -1.93,-2.29 v 0 l -1.61,-4.41 -3.88,-5.55 4.94,-5.3 -2.51,-3.24 -0.69,-2.2 5.96,-1.9 1.99,1.55 6.8,-5.25 3.44,2.32 2.11,-1.79 1.83,-4.53 -1.58,-3.14 1.52,-2.22 -0.53,-2.52 -4.11,-4 -3.62,0.68 -2.64,-3.28 10.01,-6.3 4.71,3.9 4.7,-5.49 -0.49,-1.53 0.5,-2.79 -1.22,-1.66 2.77,-7.69 -3.91,-4.22 5.13,-7.01 3.32,-3.01 v 0 l 0.39,1.85 1.55,0.66 0.67,2.99 1.53,-0.55 -0.51,-1.86 0.86,-0.54 5.67,4.18 2.38,-3.76 1.72,0.37 -0.29,-1.59 1.51,-0.97 2.12,0.56 3.2,3.49 3.27,0.85 1.29,-0.83 0.62,-2.28 4.68,-0.12 z" />
        <path id="HU-FE" title="Fejér" class="land" d="m 232.29,135.76 0.93,1.96 -0.72,1.37 0.33,2.83 2.94,5.33 2.21,0.04 2.98,4.5 0.33,3.99 -2.82,3.3 5.36,7.36 4.08,3.61 0.37,1.39 -0.61,0.76 1.73,0.41 -0.48,1.3 0.64,1.65 3.56,0.72 -1.03,5.82 -2.35,4.26 -0.78,6.09 2.36,10.18 4.29,3.61 1.76,2.47 v 0 l -0.64,3.34 v 0 c -0.84,3.02 0.01,-0.04 -0.84,3.02 l 1.39,5.84 -0.89,2.22 v 0 l -2.97,8.06 v 0 l -2.01,-0.28 -0.1,0.62 -3.6,0.96 1.42,1.32 -1.25,2.19 -5.99,4.26 -0.1,2.38 -4.26,0.47 -2.72,2.09 1.26,3.03 -4.8,4.37 -2.35,0.76 -2.14,-0.26 0.29,-2.03 -1.5,-3.21 -0.07,-2.02 -1.01,0.09 -2.67,-1.73 -1.63,-3.19 -4.48,2.48 0.55,2.31 -2.01,0.34 -0.68,-0.59 -1.44,0.97 -3.59,-0.91 -0.05,-2.91 -0.87,-1.46 0.55,-1.12 -1.36,-1.97 -0.18,4.58 -0.71,0.04 -0.25,-2.09 -0.57,1.3 -0.64,-1.97 -1.41,1.72 -2.46,-1.54 -2.08,-0.18 -0.8,-0.83 0.55,-1.76 -0.56,-1.02 -5.04,3.82 -0.08,0.74 -3.53,0.72 v 0 l -1.29,-5.44 1.06,-2.12 -0.88,-3.73 0.96,-0.49 -1.83,-0.64 2.3,-1.96 -1.91,-5.69 -2.79,-3.65 v 0 l 4.02,-3.48 0.6,-1.83 1.89,-1.13 0.15,-0.94 2.37,-0.71 -0.29,-0.73 -2.08,0.44 -2.12,-3.96 -0.74,-3.49 2.75,-2.18 -1.03,-1.48 0.19,-2.31 -1.16,-4.36 1.07,-2.99 0.02,-4.82 -0.62,-1.18 -1.79,-0.05 -1.99,-1.91 -1.57,-3.43 -1.18,0.01 -3.39,2.16 -2.86,-4.19 -1.6,0.41 -0.89,-3.62 1.66,-1.98 -1.93,-0.29 -0.72,-1.67 v 0 l -0.28,-0.73 1.83,-1.46 2.97,-0.94 -0.67,-1.86 2.5,-3.65 -0.25,-2.71 1.4,-1.17 -0.37,-2.18 2.11,-1 1.27,1.65 1.66,-1.06 1,0.65 1.07,-1.21 -0.59,-3.22 4.92,2.4 0.5,3.05 2.43,1.21 1.67,2.57 1.71,0.88 1.61,-1.94 1.18,0.55 2.97,-0.9 -2.31,-2.53 0.42,-1.12 1.68,-1.94 1.66,1.3 2.57,-2.95 0.47,-1.66 2.25,-1.04 v 0 l 2.65,-1.69 -0.2,-1.02 0.84,0.12 -1.16,-1.85 1.6,-0.31 -0.64,-2.93 3.68,-0.68 v 0 l 0.85,0.44 1.16,-2.33 1.27,0.29 1.11,-0.93 3.66,1.32 0.79,-0.89 3.46,0.11 z" />
        <path id="HU-GS" title="Győr-Moson-Sopron" class="land" d="m 102.16,76.95 0.66,2.26 1.19,0.54 6.11,0.32 8.44,9.11 2.62,5.65 6.7,2.84 3.07,6 3.98,-0.56 9.29,8.74 4.82,1.08 1.59,1.2 6.94,-0.88 3.13,0.9 v 0 l 0.84,5.14 -0.93,1.84 -0.08,1.27 0.83,0.87 -1.26,4.59 1.71,2.15 2.15,0.56 -0.76,3.46 -0.98,0.95 0.76,0.44 -1.4,2.77 1.92,1.28 0.07,-0.8 0.9,1.09 -2.54,0.92 -2.34,-1 0.11,2.47 2.41,3.38 -0.04,1.04 -0.56,-0.35 -1.48,1.21 0.14,1.76 -1.41,-0.03 1.17,1.93 -1.39,0.83 v 0 l -1.2,-2.78 -2.41,-1.89 -1.87,2.49 -1.01,-0.19 -0.32,-2.17 -3.75,4.64 -1.73,-2.51 -0.76,0.23 0.35,0.59 -0.77,0.88 0.7,1.25 -2.35,0.43 0.6,-1.62 -0.79,-1.25 -1.79,0.72 -0.74,-0.82 -0.93,0.53 -0.23,1.5 -1.85,0.65 -0.44,-1.37 -0.83,0.37 -0.59,-0.76 -1.44,1.13 -3.27,-4.1 -2.86,2.72 -5.82,-2.57 -2.87,-0.31 -1.82,1.46 -3.09,-0.78 -0.36,3.25 -1.5,2.18 -6.98,1.42 v 0 h -1.07 v 0 l -4.2,-0.85 -0.69,0.07 -0.13,0.9 -2.24,-1.69 -1.89,1.58 v 0 l -2.63,-0.74 -1.75,2.73 -5.23,1.56 -1.6,1.52 -0.5,-0.36 2.28,-5.8 -1.51,-2.67 -5.33,4.89 -2.63,0.98 -1.94,2.78 -1.38,-2.17 -1.41,-0.05 -0.2,-0.92 -2.44,0.69 -1.59,-1.41 -1.55,-3.24 -3.46,1.88 -0.56,-1.17 -1.4,0.94 -0.54,-0.89 -2.59,1.08 -3.6,3.11 -2.28,-1.5 -1,0.39 -2.86,-3.48 v 0 l 1.42,-1.29 0.72,-2.39 -1.58,-3.45 0.86,-1.16 0.91,0.59 1.57,-0.81 2.37,-3.93 -1.57,-1.01 -0.71,-1.57 -1.58,-0.09 -0.78,-1.07 1.07,-1.44 -0.73,-2.09 0.35,-1.4 -1.06,-0.28 -0.59,-2.07 -2.26,-0.79 -3.37,1.43 -1.89,-0.85 v 0 c -4.88,-2.98 -4.081111,-2.58067 -4.88,-2.98 l -0.76,0.87 -1.74,-0.1 -0.52,-1.33 -3.85,-0.8 -1.42,-1.24 1.8,-1.07 0.38,-3.12 1.19,1.81 1.26,0.31 0.22,-1.21 1.85,-1.64 2.08,-1.22 1.85,0.02 0.97,-1.45 -1.31,-1.83 0.93,-0.76 0.05,-1.3 5.34,-1.33 1.11,0.62 1.3,-0.32 0.42,1.31 1.68,1.04 5.65,1.13 2.4,6.53 7.33,0.2 1.06,-2.89 2.43,-2.21 0.54,4.14 1.04,0.2 18.71,-2.66 -1.82,-2.54 -0.33,-5.56 -1.33,-3.21 1.99,-2.09 -2.37,-2.61 0.42,-1.34 -3.73,-2.84 0.65,-1.22 2.09,0.12 3.25,-1.35 0.69,0.43 1.44,-2.66 -0.38,-1.68 1.6,-2.6 -1.97,-1.24 2.18,-3.38 -1.93,-1.42 6.92,-5.54 2.62,-1.05 2.22,0.46 1.53,-0.79 z" />
        <path id="HU-HB" title="Hajdú-Bihar" class="land" d="m 451.75,84.45 2.19,0.98 0.83,-1.36 3.55,0.9 3.28,2.19 0.49,1.18 2.13,0.91 1.06,2.97 4.42,-2.13 2.89,-0.33 1.99,0.74 4.59,-0.71 0.38,-0.79 6.02,0.44 0.13,-1.29 1.13,-0.01 0.65,-1.05 2.27,0.89 v 0 l 1.98,0.83 -0.81,1.72 v 0 l -0.04,3.57 0.88,0.27 -2,9.34 -0.02,3.59 3.92,2.44 1.32,0.07 3.4,5.98 3.92,0.54 0.1,-0.8 2.08,-0.15 1.21,3.28 4.76,0.31 -0.43,2.17 2.59,0.54 0.62,1.46 2.64,0.87 2.16,-1.09 0.4,-1.27 2.23,-1.88 0.3,-3.5 3.28,-0.94 3.74,3.41 1.78,0.46 -0.46,3.66 2.61,1.56 -0.69,2.62 1.6,3.06 1.94,-1.6 2.05,-4.86 0.91,-0.19 2.58,1.62 1.29,7.18 1.1,1.05 v 0 l -0.05,1.15 -2.92,3.77 -1.62,-0.15 -2.05,1.64 1.35,1.63 -0.83,1.08 -1.43,-1.37 -2.23,3.05 -1.23,5.34 1.12,2.82 1.11,0.52 -0.6,1.16 0.79,4.02 -2.22,4.7 -1.65,-0.52 -4.66,0.97 -5.48,11.35 0.79,1.9 -3.28,4.81 -0.32,1.8 0.95,0.76 v 3.97 l -3.71,2.16 -2.35,6.4 0.04,2.13 -2.27,-0.16 -3.63,1.35 -1.02,3.17 -2.97,3.76 -2.92,0.59 0.86,2.3 v 0 l -1.49,1.07 -0.25,-1.31 -0.94,0.55 -0.46,1.58 -1.89,1.64 -3.17,-0.55 -0.86,2.9 0.76,2.48 -6.15,0.94 -1.58,1.75 -0.87,-1.12 -2.45,-0.8 -1.99,1.85 0.69,-2.1 0.99,-0.26 -0.15,-1.61 -1.15,0.33 -1.31,-1.3 -5.06,-0.05 -9.73,-3.96 -1.54,-1.64 0.01,-1.27 1.19,-0.59 -0.88,-3.08 5.23,-3.9 -0.62,-3.21 1.37,-1.04 -0.67,-1.76 0.79,-2.49 -6.55,0.34 -2.71,-2.34 -6.5,-0.86 -5.66,-4.47 -0.03,1.68 -1.16,0.41 -2.87,-4.46 -1.94,-0.85 -0.73,1.17 -1.25,-1.01 v 0 l 3.98,-2.85 1.05,-12.03 -3.45,-17.12 1.06,-2.46 -1.52,-2.3 0.1,-7.87 -1.53,-2.47 -2.61,-1.45 -4.78,1.92 -4.4,-2 -1.71,-5.63 0.49,-3.99 v 0 l 0.93,-0.13 0.11,1.42 1.21,0.08 0.44,1.51 1.11,0.52 0.58,-0.83 -1.75,-1.07 -0.54,-2.12 h 2.02 v 0 l 1.48,0.27 v 0 l 1.08,-0.69 -1.36,-0.37 -0.14,-2.57 1.49,1.74 1.96,-1.34 1.03,0.21 -0.19,-1.26 1.48,-1.59 4.49,-0.94 -0.6,-1.85 0.56,-2.43 1.81,-0.7 1.55,1.53 0.64,-0.66 0.56,-3.26 1.44,-1.91 0.23,-2.36 1,-1.47 -2.1,-4.45 2.5,-1.54 -0.01,-3.55 3.76,-2.95 -0.09,-0.74 -1.59,0.44 -1.33,-0.68 1.73,-1.46 z" />
        <path id="HU-HE" title="Heves" class="land" d="m 358.89,60 0.65,0.68 2.39,-0.71 3.36,1.1 0.72,2.92 2.7,1.01 1.13,1.62 2.81,0.6 3.13,-1.07 0.73,-3.35 1.21,0.62 1.55,-0.67 0.72,1.93 2.91,2.19 0.65,-3.18 2.36,-2.83 -0.33,-1.71 1.37,-0.56 0.9,0.59 3.36,-0.19 2.63,4.64 v 0 l 0.17,3.27 2.13,3.19 v 0 l -0.76,1.07 -1.59,0.29 1.03,2.15 -0.04,2.6 -3.58,7.23 2.02,2.13 3.71,1.89 0.46,1.42 -2.4,1.79 0.77,1.26 -1.91,0.07 -0.64,-0.67 v 0 c -0.67,0.09 0,0 -0.67,0.09 L 391,93.45 v 0 l 1.58,2.76 3.5,1.55 0.77,3.29 -1.11,2.45 0.37,2.43 1.14,0.78 1.13,2.54 5.88,4.98 -2.07,2.78 0.82,1.08 5.26,3.17 3,0.07 0.39,-0.9 1.3,1.03 1.25,-0.48 5.88,4.64 v 0 l -1.08,1.69 -2.21,-0.07 -1.72,1.26 0.11,3.28 -1.72,1.19 1.05,1.67 -0.52,1.61 -2.51,1.08 -0.87,1.96 -5.12,2.55 -2.91,2.55 -5.02,1.75 -1.76,4.43 -1.58,0.64 -2.16,-1.01 -0.35,-1.49 1.15,-1.39 -2.87,1.08 -0.45,0.81 1.07,4.78 -1.29,1.49 -2.59,1.06 -2.07,-0.66 0.21,-2.56 -2.7,0.97 -1.42,-0.31 -1.2,-1.61 -2.95,-4.28 1.25,-2.96 -1.28,-4.16 -3.12,-1.08 0.32,-1.03 -2.55,-0.93 -2.06,-6.16 -3.5,0.4 -6.02,2.07 2.9,3.25 -2.04,1.57 -8.03,-3.61 -1.3,-1.76 1.09,-2.95 -1.13,-1.6 -0.16,-4.29 -0.77,-1.76 -2.18,-0.48 -0.73,1.02 -4.43,1.87 -3.52,-1.62 -0.53,4.93 -2.27,1.01 -0.56,1.86 -1.85,1.84 -5.87,-3.46 -4.24,1.73 -0.36,3.27 -1.48,-0.98 -1.72,0.33 v 0 l -1.21,-1.28 0.36,-2.17 -1.64,-4.29 -1.72,-0.49 -2.59,-5.09 1.38,-3.34 -3.15,-3.12 v 0 l 3.89,-3.49 1.12,0.77 1.53,-1.17 -0.59,-0.49 0.84,-1.51 -1.32,-3.47 1.87,-0.93 0.93,1.94 0.18,-1.38 1.47,-0.3 0.55,-1.08 2.89,0.15 -0.47,-0.89 1.34,-2.59 2.91,-2.84 0.56,-5.03 0.84,-0.21 4.64,4.17 1.48,-0.7 0.74,-2.06 -1.32,-1.28 -2.71,-0.82 -0.38,-1.75 6.18,-1.05 2.24,1.77 2.65,-0.08 1.34,-3.25 2.34,-1.28 -0.25,-2.71 1.9,-0.99 -0.91,-1.37 0.55,-1.15 4.39,-1.58 -1.51,-1.54 -0.55,-4.15 0.81,-0.27 -2.71,-2.02 0.16,-0.59 -1.54,-0.42 -0.22,-1.77 6.19,-2.16 0.68,-2.21 2.34,0.25 0.62,-2.1 z" />
        <path id="HU-JN" title="Jász-Nagykun-Szolnok" class="land" d="m 425.28,123.73 -0.48,4 1.71,5.63 4.4,2 4.79,-1.92 2.6,1.45 1.54,2.47 -0.1,7.87 1.51,2.31 -1.05,2.46 3.45,17.12 -1.05,12.03 -3.98,2.85 v 0 l -2.8,5.7 -1.22,-0.02 -1.9,1.85 -1.44,-0.03 -4.33,3.35 1.77,3.58 -2.01,0.47 -0.23,1.3 1.11,2.38 -0.41,2.08 1.14,1.42 -1.53,-0.58 -0.74,1.51 -2.42,1.04 0.55,0.36 -0.88,0.22 0.13,1.03 -4.44,0.03 -0.24,-2.18 -2.5,1.35 -0.29,1.41 -1.48,-0.13 -0.34,3.47 0.98,0.95 -0.66,2.78 1.25,0.45 0.27,1.96 -1.25,-0.47 -0.72,0.73 2.08,0.32 -0.17,2.09 -1.96,3.03 -1.05,0.74 -1.66,-0.46 -2.86,1.87 -3.97,-2.32 -1.66,0.73 -2.57,-0.62 -0.75,1.78 -2.6,1.13 -5.02,-0.21 -4.53,5.05 1.37,7.23 v 0 l -1.81,2.29 -4.69,0.12 -0.62,2.28 -1.29,0.83 -3.27,-0.86 -3.2,-3.49 -2.12,-0.56 -1.51,0.97 0.29,1.59 -1.72,-0.37 -2.38,3.76 -5.67,-4.18 -0.86,0.54 0.52,1.86 -1.54,0.55 -0.67,-2.99 -1.55,-0.66 -0.38,-1.85 v 0 l -0.03,-1.01 -1.54,-1.58 -1.06,0.51 0.73,1.67 -0.51,1.37 -2.67,-1.76 0.12,-2.18 3.13,-0.57 -0.34,-1.13 -0.57,0.71 -1.58,-0.29 -1.5,-2.02 0.88,0.25 2.65,-2.16 0.94,0.88 1.13,-2.53 0.78,-0.5 1.83,0.79 3.15,-2.39 0.23,-1.32 3.17,-1.59 -1.54,-2.83 -3.28,-0.44 -0.01,-1.41 2.46,-1.16 -0.41,-1.92 0.93,-0.94 -0.89,-1.29 -3.29,-1.85 v 0 l 1.58,-3.49 -2.02,-1.11 -0.88,-4.5 -2.26,-3.98 -0.57,-2.57 1.4,-3.34 v 0 l 3.33,-4.05 -1.31826,-3.59705 -0.55174,-1.56295 -3.16,-2.39 -5.13,-1.81 2.72,-6.75 -2.43,-3.6 -0.19,-2.28 -2.72,-3 -4.13,-1.91 -7.51,-5.8 -2.76,-4.33 -4.59,-3.9 3.77,-5.64 -0.99,-0.65 -1.28,0.87 -2.54,-0.61 -3.08,2.47 -4.6,-4.08 0.48,-1.28 -0.59,-0.69 1.41,-3.52 v 0 l 1.72,-0.33 1.48,0.98 0.36,-3.27 4.24,-1.73 5.87,3.46 1.85,-1.84 0.56,-1.86 2.27,-1.01 0.53,-4.93 3.52,1.62 4.43,-1.87 0.73,-1.02 2.18,0.48 0.77,1.76 0.16,4.29 1.13,1.6 -1.09,2.95 1.3,1.76 8.03,3.61 2.04,-1.57 -2.9,-3.25 6.02,-2.07 3.5,-0.4 2.06,6.16 2.55,0.93 -0.32,1.03 3.12,1.08 1.28,4.16 -1.25,2.96 2.95,4.28 1.2,1.61 1.42,0.31 2.7,-0.97 -0.21,2.56 2.07,0.66 2.59,-1.06 1.29,-1.49 -1.07,-4.78 0.45,-0.81 2.87,-1.08 -1.15,1.39 0.35,1.49 2.16,1.01 1.58,-0.64 1.76,-4.43 5.02,-1.75 2.91,-2.55 5.12,-2.55 0.87,-1.96 2.51,-1.08 0.52,-1.61 -1.05,-1.67 1.72,-1.19 -0.11,-3.28 1.72,-1.26 2.21,0.07 1.08,-1.69 v 0 l -0.61,-1.61 2.76,-2.04 z" />
        <path id="HU-KE" title="Komárom-Esztergom" class="land" d="m 242.96,103.13 3.31,0.63 v 0 l 5.17,2.25 0.8,3.78 0.92,1.04 -0.11,3.42 1.99,1.86 -1.79,1.98 -2.02,-1.48 -4.31,1.1 -0.34,2.74 1.33,2.96 0.02,2.46 -4.12,-0.56 -3.58,-2.02 0.09,1.39 -2.74,-0.01 3.01,2.92 -3.59,2.14 -0.34,1.13 -1.52,0.75 -0.01,1.87 -2.84,2.28 v 0 l -2.43,1.02 -3.46,-0.1 -0.78,0.89 -3.67,-1.32 -1.11,0.93 -1.27,-0.29 -1.16,2.33 -0.85,-0.44 v 0 c -3.66,0.78 0,0 -3.66,0.78 l 0.64,2.93 -1.6,0.31 1.16,1.85 -0.84,-0.12 0.2,1.02 -2.67,1.6 v 0 l -2.24,1.04 -0.47,1.66 -2.58,2.96 -1.66,-1.31 -1.67,1.94 -0.43,1.12 2.31,2.53 -2.97,0.9 -1.18,-0.54 -1.61,1.94 -1.71,-0.88 -1.67,-2.57 -2.43,-1.21 -0.49,-3.04 -4.92,-2.4 0.59,3.22 -1.08,1.21 -1,-0.65 -1.66,1.07 -1.27,-1.65 -2.11,0.99 0.37,2.19 -1.4,1.16 0.25,2.72 -2.5,3.65 0.67,1.86 -2.97,0.94 -1.83,1.46 0.28,0.73 v 0 l -1.7,-0.66 -5.04,0.74 -0.22,-2.08 -2.54,-1.7 1.6,-0.59 0.04,-1.5 -1.36,-1.14 -1.86,-0.2 -0.64,0.76 -2.6,-1.37 2.1,-4.33 -2.66,-4.19 v 0 l 1.39,-0.83 -1.17,-1.93 1.4,0.03 -0.13,-1.76 1.48,-1.21 0.56,0.35 0.03,-1.04 -2.41,-3.38 -0.1,-2.47 2.33,1 2.54,-0.92 -0.9,-1.09 -0.08,0.8 -1.92,-1.28 1.4,-2.78 -0.76,-0.44 0.99,-0.94 0.75,-3.46 -2.14,-0.56 -1.71,-2.15 1.26,-4.59 -0.83,-0.87 0.09,-1.27 0.93,-1.84 -0.84,-5.14 v 0 l 4.75,-0.68 2.32,-1.75 2.81,1.51 2.42,-1.37 4,0.02 8.85,2.06 4.85,-0.11 5.85,1.43 11.27,-2.89 3.23,-1.56 3.98,1.66 4.06,-1.66 9.44,0.76 3.29,-1.14 3.52,-2.38 1.55,-3.68 z" />
        <path id="HU-NO" title="Nógrád" class="land" d="M319.2,47.07L321.07,46.91L321.97,50.42L323.33,51.69L326.01,51.88L327.04,50.21L327.99,50.08L329.29,50.42L331.79,53.2L332.76,52.99L333.37,54.44L331.34,57.01L332.52,58.5L334.65,56.32L336.75,57.3L337.82,55.17L338.25,56.29L341.67,56.81L343.03,59.37L341.87,62.36L345.27,61.25L346.46,58.76L347.63,58.56L348.63,56.91L349.79,57.29L351.11,56.06L353.52,55.39L355.15,56.59L355.15,56.59L356.29,58.44L358.41,58.77L358.89,60L358.89,60L357.59,61L356.97,63.1L354.63,62.85L353.95,65.06L347.76,67.22L347.98,68.99L349.52,69.41L349.36,70L352.07,72.02L351.26,72.29L351.81,76.44L353.32,77.98L348.93,79.56L348.38,80.71L349.29,82.08L347.39,83.07L347.64,85.78L345.3,87.06L343.96,90.31L341.31,90.39L339.07,88.62L332.89,89.67L333.27,91.42L335.98,92.24L337.3,93.52L336.56,95.58L335.08,96.28L330.44,92.11L329.6,92.32L329.04,97.35L326.13,100.19L324.79,102.78L325.26,103.67L322.37,103.52L321.82,104.6L320.35,104.9L320.17,106.28L319.24,104.34L317.37,105.27L318.69,108.74L317.85,110.25L318.44,110.74L316.91,111.91L315.79,111.14L311.9,114.63L311.9,114.63L309.15,113.24L306.93,116.35L304.61,117.6L304.44,118.59L305.9,118.8L306.56,119.76L303.63,121.06L300.98,115.95L300.59,110.35L297.71,109.99L298.9,106.6L300.56,105.8L298.63,103.83L295.69,103.2L292.7,103.6L289.58,101.79L281.13,102.74L280.13,101.43L276.18,99.32L275.24,100.42L270.17,99.51L269.14,100.61L267.61,100.41L266.12,98.16L265.27,98.65L264.19,95.4L261.18,93.64L255.18,87.56L255.74,85.07L259.65,82.25L259.32,81.38L260.77,80.11L261.06,78.03L260.52,77.88L261.1,77.09L259.42,75.33L258.11,76.09L256.62,75.26L254.12,71.49L254.12,71.49L258.91,71.71L261.98,68.84L263.61,70.54L264.72,70.2L265.83,71.34L267.86,69.62L270.07,70.6L272.57,69.41L277.43,71.32L280.24,70.72L282.27,72L283.43,69.85L285.48,69.28L287.44,67.52L294.08,67.56L295.24,66.89L296.54,68.08L298.63,67.49L300.5,65.63L301.52,65.76L301.56,67.1L302.83,68.02L302.96,66.5L304.72,65.8L305.18,60.45L306.76,58.87L306.32,56.01L308.21,53.66L308.02,51.92L312.93,49.94L317.51,45.56z" />
        <path id="HU-PE" title="Pest" class="land" d="m 252.12,72.19 2,-0.7 v 0 l 2.5,3.77 1.49,0.83 1.31,-0.77 1.68,1.76 -0.58,0.79 0.54,0.15 -0.29,2.08 -1.45,1.26 0.33,0.87 -3.92,2.82 -0.56,2.48 6,6.08 3.01,1.76 1.07,3.26 0.86,-0.5 1.49,2.25 1.53,0.2 1.04,-1.1 5.07,0.91 0.94,-1.1 3.94,2.1 1,1.31 8.46,-0.95 3.12,1.81 2.99,-0.4 2.94,0.63 1.92,1.97 -1.65,0.8 -1.19,3.39 2.88,0.36 0.39,5.61 2.65,5.11 2.93,-1.3 -0.66,-0.96 -1.46,-0.21 0.16,-0.99 2.33,-1.24 2.22,-3.12 2.74,1.39 v 0 l 3.15,3.12 -1.38,3.34 2.59,5.09 1.72,0.49 1.64,4.29 -0.36,2.17 1.21,1.28 v 0 l -1.41,3.52 0.59,0.69 -0.48,1.28 4.6,4.08 3.08,-2.46 2.55,0.6 1.28,-0.87 0.98,0.65 -3.77,5.63 4.59,3.9 2.76,4.34 7.51,5.8 4.13,1.91 2.73,3 0.19,2.28 2.43,3.6 -2.73,6.75 5.14,1.82 3.16,2.38 c 0.55174,1.59295 0,0.03 0.55174,1.59295 l 1.31826,3.59705 -3.34,4.02 v 0 l -1.4,3.35 0.57,2.56 2.27,3.98 0.88,4.5 2.02,1.11 -1.58,3.5 v 0 l -2.29,-1.5 -6.4,2.56 -1.41,2.41 0.12,2.41 -4.88,-1.44 -4.83,-2.99 -3.23,6.85 -0.83,0.07 v 0 l -2.62,-1.55 -1.97,0.78 -8.41,-6.25 v 0 l -4.03,-4.56 -2.08,-6.73 -2.97,-5.17 -2.21,2.05 -5.08,-1.89 -2.67,8.76 -4.38,-1.28 -4.31,4.08 -1.33,0.01 0.17,1.35 -2.76,3.48 -3.71,-5.28 1.91,-4.33 2.73,-3.25 -5.37,-5.38 -1.64,-0.32 -1.03,1.32 -2.39,0.65 -2.03,4.67 -0.81,-1.25 -3.31,-0.13 -2.39,3.29 -3.15,1.04 -0.76,2.72 -2.26,1.24 -3.84,-1.87 -0.21,-0.75 -6,-1.35 1.69,2.87 -0.72,1.85 v 0 l -1.76,-2.47 -4.29,-3.6 -2.36,-10.18 0.78,-6.09 2.35,-4.26 1.03,-5.82 -3.56,-0.72 -0.64,-1.64 0.48,-1.3 -1.73,-0.41 0.61,-0.76 -0.37,-1.39 -4.08,-3.61 -5.36,-7.36 2.82,-3.3 -0.33,-3.99 -2.98,-4.5 -2.21,-0.04 -2.94,-5.33 -0.33,-2.82 0.72,-1.37 -0.93,-1.96 v 0 l 2.84,-2.28 0.01,-1.87 1.53,-0.75 0.34,-1.13 3.58,-2.14 -3,-2.92 2.73,0.01 -0.09,-1.39 3.58,2.02 4.12,0.56 -0.02,-2.46 -1.33,-2.97 0.34,-2.74 4.3,-1.1 2.02,1.48 1.8,-1.98 -1.99,-1.86 0.11,-3.42 -0.92,-1.04 -0.79,-3.78 -5.17,-2.25 v 0 l 0.79,-1.18 -1.83,-1.21 -0.77,-2.04 -2.7,-1.9 -2.69,-0.76 0.38,-5.12 -0.7,-1.41 1.48,-1.73 -0.6,-2.65 0.81,-0.12 -1.77,-2.83 1.37,-1.84 2.59,0.35 1.32,-1.17 0.04,-3.84 1.04,-1.17 -0.54,-0.93 0.79,-1.24 1.13,-0.63 0.98,0.65 2.55,-0.39 0.42,-1.31 z m 14.95,62.31 0.33,-2.65 -3.18,-0.41 -1.54,0.79 0.79,2.35 -4.03,0.25 -1.11,1.59 -2.41,-0.83 -1.9,1 0.99,2.77 -1.29,1.04 0.88,-0.01 -0.05,2.69 -0.78,0.12 1.44,0.47 -0.79,1.59 1.07,1.04 -0.87,1 1.01,1.21 1.45,-0.01 1.72,2.83 -1.07,1.34 0.7,0.45 -0.16,2.15 -1.71,1.6 0.43,2.62 -0.98,1.06 0.58,2.22 5.69,-2.11 1.01,1.17 4.64,-2.92 1.94,2.39 -0.63,1.04 3.83,3.88 0.88,-0.97 2.72,-0.57 2.41,-4.58 3.36,-3.28 0.6,0.23 1.42,-2.58 1.39,0.28 1.84,-2.79 3,-0.9 -1.79,-3.9 0.39,-3 -4.96,0.92 -1.69,-3.81 -2.22,0.61 -1,-1.05 -1.61,0.11 -2.72,-2.62 1.17,-0.68 -2.6,-1.73 0.76,-0.09 0.02,-0.89 -1.2,-1.68 -2.12,-0.44 -1.41,-1.32 z" />
        <path id="HU-SO" title="Somogy" class="land" d="m 117.69,245.31 6.3,-0.31 16.49,-8.03 3.57,-2.67 8.48,-3.26 4.06,-2.53 3.2,0.21 2.19,-2.01 -0.05,-3.37 13.64,-6.3 8.08,1.53 0.58,-1.05 0.43,0.4 v 0 l 2.79,3.65 1.91,5.69 -2.3,1.96 1.83,0.65 -0.96,0.49 0.88,3.74 -1.06,2.12 1.29,5.44 v 0 l -3.87,1.43 0.4,3.26 -2.19,-0.17 -3.14,1.75 1.44,3.42 0.98,-0.5 0.34,0.87 -1.13,1.19 -0.3,2.07 -2.62,2.52 0.67,1.17 -3.05,3.56 1.3,3.56 -1.25,3.89 -1.94,1.27 -1.19,-0.65 0.02,6.93 -0.71,0.78 0.88,0.71 2.64,7.89 -0.19,1.41 -1.3,0.18 -0.64,0.97 -0.53,-0.55 -1.63,2.04 -1.54,0.44 0.83,2.2 3.41,-1.2 1.16,3.57 1.5,-0.33 0.51,4.96 -1.06,2.85 -1.98,1.38 v 0 l -0.6,0.53 -2.13,-1 -1.37,0.55 -0.45,-1.34 -4.68,0.23 -2.18,6.25 0.35,3.6 -1.11,0.96 -1.08,-0.65 -0.54,0.72 -2.05,-0.34 -0.5,1.03 -1.26,-0.31 -1.21,1.37 -2.51,-0.35 -0.11,-1.18 -1.32,0.34 -0.6,-1.07 -0.87,0.39 0.2,1.16 -1.59,1.79 -1.8,-0.6 -1.25,-3.55 -1.75,1.33 0.91,1.89 -1.89,1.88 -0.02,1.77 -1.55,2.83 -0.16,6.19 -1.86,0.99 1.36,1.49 -0.53,3.67 -1.42,0.23 -0.13,1.09 -2.49,1.02 0.39,2.2 1.99,2.72 -0.08,1.93 -2.72,0.78 1.78,6.37 1.44,0.16 -0.82,-1.91 0.69,-0.3 0.72,1.6 2.84,0.1 -0.04,1.84 2.25,1.36 -0.28,1.23 1.17,0.89 -0.63,0.75 0.76,1.98 -0.64,1.73 -2.17,-0.39 -0.72,1.07 -0.81,-1.85 -1.7,1.63 0.23,1.15 -1.59,0.52 v 0 l -2.72,-7.26 -5.03,-4.32 -3.48,0.34 -8.38,-2.07 -0.67,0.98 0.81,1.37 -0.89,0.65 -1.32,-0.43 -0.24,-1.19 -1.31,1.14 -0.77,-0.27 -0.32,-1.91 -3.45,0.66 -0.04,-2.42 0.67,1.03 0.95,-0.78 2.29,-0.08 -0.05,-0.5 -2.55,0.27 0.02,-1.12 1.24,-0.03 -0.62,-0.66 0.47,-1.76 -0.7,-0.13 -0.1,1.49 -0.83,0.6 -1.35,-2.63 -0.78,-0.12 -0.27,0.63 0.95,0.82 -0.31,1.58 -2.01,0.56 1.06,-2.81 -0.96,-0.06 -0.42,1.1 -0.87,-0.3 -0.26,-1.02 1.07,-1.41 -2.19,0.13 -2.12,-1.63 2.95,-1.24 0.31,-0.93 -3.59,0.13 0.26,-2.15 1.18,-1.36 -3.53,-0.45 0.14,-0.76 1.71,0.31 -1.02,-0.3 -0.48,-1.69 -2.91,0.18 0.12,-0.63 1.28,0.05 1.21,-2.23 -2.01,0.03 0.8,-1.15 -0.54,-0.79 -0.3,0.6 -2.85,0.23 -0.32,-2.83 0.88,-0.57 -0.13,-2.14 -2.08,-1.1 0.1,-1.4 -1.99,-0.48 -1.09,0.6 -0.38,-1.23 -0.88,0.3 -0.93,-0.84 0.1,-0.7 -1.08,-0.42 -0.65,0.66 -1.71,-2 -4.88,-2.52 -3.19,-0.49 -0.32,-2.38 -1.78,0.33 -2.32,-2.51 -3.77,-2.12 -0.98,-6.56 v 0 l 2.49,1.93 3.01,-0.61 0.47,3.32 1.45,-0.49 2.62,-2.71 2.58,1.33 0.96,-0.52 1.48,-0.94 -0.39,-1.76 0.96,-1.47 h 0.96 l 0.11,-1.12 -1.38,-5.03 -1.06,-0.7 v 0 l 0.66,-3.05 1.29,-0.06 1.38,1.96 0.84,-0.4 0.49,-1.83 0.93,-0.1 v 0 l 1.64,0.8 0.11,0.94 1.23,0.14 1.19,-0.4 0.14,-2.56 4.08,-0.29 0.27,-7.14 1.03,0.08 2.17,-3.49 -0.7,-14.35 0.46,-5.87 3.15,-2.96 1.07,-5.94 8.55,0.39 2.56,-1.86 z" />
        <path id="HU-SZ" title="Szabolcs-Szatmár-Bereg" class="land" d="m 552.48,23.8 2.52,0.14 -0.89,2.34 -1.29,0.8 2.41,3.59 4.73,1.23 -0.65,3.44 2.11,2.38 0.27,3.73 1.87,1.89 1.9,4.03 1.8,-1.95 2.57,0.28 0.31,-0.55 2.35,1.37 2.89,-1.59 0.99,0.71 -0.39,1.15 1.64,0.34 -0.05,1.54 1.5,2.31 0.61,-0.29 2.9,1.96 -0.62,2.6 0.98,2.59 0.76,-0.14 1.32,2.15 -0.87,0.33 0.98,3.15 -0.7,1.29 2.58,0.26 1.48,1.29 3.17,0.7 5.96,-3.81 1.88,0.04 1.04,1.44 0.77,-0.52 -0.34,-1.2 1.66,0.59 0.91,-0.65 0.44,2.11 0.87,-1.54 0.87,0.19 0.49,0.98 -0.66,1.5 0.91,0.63 0.33,1.71 0.61,-0.27 1.54,1.5 0.61,2.9 0.51,-0.71 0.67,0.35 -1.42,5.65 -2.63,2.95 0.36,1.04 2.61,0.42 1.79,1.29 0.56,2.26 -1.05,0.21 -3.8,5.74 -1.61,0.05 -3.07,2.28 -3.15,-0.17 0.85,1.69 -0.45,1.69 1.52,1.97 -0.27,1.3 -2.35,1.11 -3.37,-0.12 -2.86,6.31 -5.79,1.38 -0.53,0.75 -5.48,-0.07 -6.09,-5.12 -3.02,0.93 -2.01,7.11 0.35,1.25 -6.74,-1.12 -3.46,-2.35 -0.04,3.21 -2.83,1.8 -1.89,-0.13 -0.55,4.24 -2.75,1.11 -0.58,3.84 -1.62,0.93 -1.25,5.67 -1.36,2.57 -4.09,-0.53 v 0 l -1.1,-1.05 -1.29,-7.19 -2.59,-1.61 -0.91,0.19 -2.04,4.86 -1.94,1.6 -1.6,-3.06 0.68,-2.62 -2.6,-1.56 0.46,-3.66 -1.78,-0.46 -3.75,-3.41 -3.28,0.94 -0.3,3.5 -2.23,1.89 -0.39,1.27 -2.16,1.09 -2.63,-0.87 -0.63,-1.45 -2.59,-0.54 0.44,-2.16 -4.76,-0.31 -1.21,-3.28 -2.08,0.15 -0.1,0.8 -3.92,-0.53 -3.4,-5.98 -1.32,-0.07 -3.91,-2.43 0.01,-3.59 2.01,-9.35 -0.88,-0.27 0.04,-3.57 v 0 l 0.82,-1.71 c -1.98,-0.83 0,0 -1.99,-0.84 v 0 l -2.27,-0.88 -0.65,1.04 -1.13,0.02 -0.12,1.29 -6.02,-0.45 -0.38,0.8 -4.59,0.71 -1.99,-0.74 -2.89,0.33 -4.42,2.14 -1.06,-2.97 -2.13,-0.91 -0.49,-1.18 -3.28,-2.19 -3.55,-0.9 -0.83,1.36 -2.19,-0.99 v 0 l -1.8,-1.26 0.49,-0.74 -2.58,-3.88 4.52,-4.48 0.32,-1.16 1.75,0.86 1.27,-0.48 0.63,0.63 -0.26,1.8 1.98,-0.4 2.45,0.86 0.92,-0.62 -0.48,-1.57 2.73,-2.14 1.06,2.22 2.71,-0.08 0.11,1.26 1.88,-0.23 1.64,1.29 1.57,-1.56 4.83,-0.01 0.53,-2.58 1.47,1.02 0.65,-0.34 0.09,-2.5 2.23,-0.83 -0.84,-0.92 -1.43,0.19 -0.38,-1.44 1.33,0.36 0.24,-0.7 -2.49,-2.21 -0.76,-2.01 1.31,-1.92 -0.47,-2.85 1.73,-2.79 1.23,-0.07 1.28,1.66 0.83,-1.85 2.03,0.42 0.11,0.61 1.57,-0.41 -0.36,-1.32 3.46,-2.05 1.51,-0.09 0.54,-1.02 3.15,1.85 4.82,0.56 4.2,-0.61 0.83,0.7 0.33,-1.58 0.76,0.7 1.7,-0.91 -0.08,1.75 1.5,-0.63 0.35,-1.69 1.17,0.63 0.51,-1.28 1.03,-0.26 -0.19,-1.36 1.38,-0.26 -0.15,-1.82 1.09,1.09 0.4,-1.37 1.02,2.48 0.91,-2.13 2.04,0.38 2,-1.18 2.1,0.87 0.62,-1.49 1.21,-0.58 -0.09,-1.16 0.66,0.67 2.25,-2.63 0.96,0.4 -0.48,-1.01 0.63,-1.3 2.67,-2.43 1.13,-0.15 -1.04,1.92 2.02,-0.03 -0.09,-1.19 1.34,0.77 0.47,1.26 0.69,-0.97 -1.09,-1.18 1.56,0.93 -0.05,-1.39 2.22,0.27 -0.86,-2.3 2.34,-3.27 1.44,-0.33 -1.67,-1.1 1.77,-0.06 -0.9,-0.9 0.42,-1.6 v 0 l 1.62,-0.35 -0.48,-1.37 1.87,-0.8 0.37,-1.87 4.26,-2.07 z" />
        <path id="HU-TO" title="Tolna" class="land" d="M189.06,241.63L192.58,240.91L192.66,240.17L197.71,236.35L198.27,237.37L197.72,239.13L198.52,239.96L200.6,240.15L203.06,241.68L204.47,239.96L205.11,241.93L205.68,240.63L205.93,242.72L206.64,242.68L206.82,238.1L208.18,240.07L207.63,241.18L208.51,242.64L208.56,245.56L212.15,246.46L213.6,245.49L214.27,246.08L216.29,245.74L215.74,243.43L220.22,240.95L221.85,244.14L224.53,245.87L225.54,245.78L225.61,247.8L227.11,251.01L226.82,253.05L228.96,253.31L231.3,252.55L236.1,248.18L234.84,245.15L237.55,243.06L241.81,242.59L241.91,240.21L247.9,235.95L249.15,233.76L247.73,232.44L251.33,231.48L251.43,230.86L253.44,231.14L253.44,231.14L253.6,236.56L256.12,238.9L257.81,242.17L259.04,247.18L260.77,250.35L260.61,252.71L257.36,257.67L253.9,259.65L249.77,260.27L247.69,263.5L247.95,265.51L250.62,269.58L250.87,275.17L253.25,280.83L253.21,284.62L250.38,289.45L249.96,291.52L251.17,299.76L253.29,303.34L252.3,309.25L250.83,309.42L249.07,308.08L248.12,308.21L248.96,312.18L247.92,313.35L247.16,312.7L244.24,316.13L245.41,316.93L248.73,314.62L247.99,316.63L248.52,318.13L246.77,318.73L244.77,324.35L244.15,323.04L244.49,321.02L243.15,321.27L242.14,322.47L242.06,324.76L245.68,325.84L244.89,328L243.65,327.44L243.74,328.85L243.74,328.85L240.52,329.02L239.34,328.26L237.82,329.07L232.75,326.04L232.04,326.67L228.41,321.97L226,320.47L225.24,318.48L223.3,319.49L221.12,315.78L221.81,314.46L219.96,314.7L217.97,313.31L218.97,310.45L218.21,308.81L218.83,307.79L218.3,306.98L218.13,308.21L217.32,307.97L215.86,305.41L213.98,305.06L213.26,304.08L213.39,308.05L211.72,309.18L212.11,309.91L210.23,310.21L210.3,311.34L204.7,314.8L203.45,314.75L202.66,313.23L204.39,313.07L206.27,311.73L208.02,306.91L207.46,305.41L206.15,305.88L203.94,305.01L203.77,300.85L205.12,299.45L204.99,297.99L201.71,296.29L201,294.22L201.25,291.43L198.42,288.94L194.17,290.95L190.49,290.11L186.73,291.72L186.75,295.52L188.13,297.13L188.14,299.19L183.61,302.15L182.05,301.15L180.3,302.01L180.39,304.98L181.85,305.64L181.18,306.58L179.24,304.04L177.55,304.2L176.97,305.25L174.87,304.5L174.87,304.5L176.85,303.12L177.9,300.27L177.39,295.3L175.89,295.63L174.73,292.06L171.32,293.26L170.49,291.05L172.03,290.61L173.66,288.57L174.19,289.12L174.83,288.15L176.13,287.97L176.32,286.56L173.69,278.68L172.81,277.97L173.53,277.19L173.51,270.26L174.7,270.91L176.64,269.64L177.89,265.76L176.59,262.19L179.64,258.63L178.98,257.46L181.59,254.95L181.89,252.88L183.02,251.68L182.68,250.82L181.69,251.32L180.25,247.89L183.39,246.15L185.58,246.32L185.18,243.06z" />
        <path id="HU-VA" title="Vas" class="land" d="m 47.92,153.38 2.86,3.48 1,-0.38 2.28,1.5 3.6,-3.11 2.59,-1.08 0.54,0.89 1.4,-0.94 0.56,1.17 3.46,-1.87 1.55,3.25 1.59,1.41 2.44,-0.69 0.2,0.92 1.41,0.05 1.38,2.17 1.94,-2.78 2.63,-0.98 5.33,-4.89 1.51,2.67 -2.28,5.8 0.5,0.36 1.6,-1.51 5.23,-1.55 1.75,-2.73 2.63,0.75 v 0 l 0.91,3.39 2.12,1.91 -1.77,1.38 2.27,2.72 0.51,-0.31 0.64,1.17 2.99,1.71 0.92,-0.34 2.25,2.26 -6.23,2.44 -0.86,1.21 0.2,2.23 -1.54,1.26 0.52,8.2 0.6,0.58 -0.41,4.04 -1.12,1.46 -0.01,2.91 1.59,4.19 0.17,4.08 -2.46,2.05 -1.97,-1.45 -0.74,0.69 -1.27,-1.03 -3.34,1.65 -2.87,0.09 -0.2,2.44 v 0 l 0.05,3.01 -1.61,-0.88 -1.33,0.98 -0.31,-2.33 -1.49,0.5 -0.36,-0.66 -1.27,0.9 1.25,4.51 -2.58,2.68 0.29,1.16 -0.99,1.4 -5.06,-0.25 -0.36,-1 -1.96,-0.65 -1.62,0.8 -2.73,-0.14 -0.42,-1 -3.45,3.69 -1.84,0.36 -0.82,2.98 -3.87,-0.97 -3.15,0.42 -1.31,-1 -1.5,0.21 -1.64,2 -1.82,-0.67 -3.63,4.53 -0.52,2.71 -1.57,1.87 -5.9,3.04 -0.04,3.88 -1.28,1.18 -3.9,1.83 -0.23,0.78 -3.46,-1.65 -3.46,1.12 -0.01,1.43 3.52,-1.06 0.23,1.01 -1.41,1.01 0.25,2.53 -2.21,2.46 v 0 l -1.15,1.01 -0.66,-2.44 -2.81,-2.95 0.97,-2.86 -1.61,-0.42 0.39,-2.26 2.23,-0.95 0.64,-4.35 -4.02,-2.87 -0.77,-1.56 -5.12,-0.5 -7.29,2.8 -2.49,-0.42 -1.31,-1.42 1.64,-0.89 2.79,-3.71 1.41,-0.46 1.62,-4.25 1.79,-0.17 0.45,0.62 2.08,-1.33 0.75,-2.1 1.9,-0.01 0.22,-3.22 1.39,-3.52 0.88,2.02 1.98,-0.47 1.58,0.86 0.74,-1.87 1.45,0.42 0.63,1.1 3.57,-0.9 1.68,1.64 1.47,-0.24 0.19,-1.41 3.19,1.45 0.45,-0.91 2.05,-0.01 -4.1,-3.88 -1.68,1.03 -0.81,-0.91 0.29,-1.07 7.06,-2.59 -1.19,-1.31 -3.09,-0.82 0.15,-1.51 -1.11,-1.19 1.06,-1.49 0.46,0.57 0.42,-0.96 1.47,-0.2 0.13,-1.82 2.52,-0.41 -1.18,-2.84 -5.6,0.75 -0.42,-1.19 1.22,-2.23 -0.87,-2.62 -2.3,0.41 -1.12,-2.71 0.31,-0.7 0.3,0.56 1.2,-0.45 0.27,-1.01 0.21,-3.56 -0.87,-1.01 3.25,-0.12 1.16,-1.22 -0.12,-1.95 0.95,-0.49 -2.3,-7.27 -1.33,-0.42 -1.36,-1.88 1.69,-0.56 0.5,-1.43 -0.68,-1.1 0.3,-0.85 0.74,0.04 -1.37,-3.41 0.86,-0.56 2.67,0.7 -0.23,1.21 1.08,0.23 0.19,0.84 1.16,-0.98 0.07,-1.62 5.63,0.47 1.31,-2.3 2.96,-1.05 0.62,-1.48 z" />
        <path id="HU-VE" title="Veszprém" class="land" d="m 95.6,155.25 1.89,-1.58 2.24,1.69 0.13,-0.9 0.7,-0.07 4.2,0.85 v 0 h 1.07 v 0 l 6.98,-1.42 1.5,-2.18 0.36,-3.25 3.1,0.79 1.82,-1.46 2.87,0.31 5.82,2.57 2.86,-2.71 3.27,4.1 1.44,-1.13 0.59,0.76 0.83,-0.37 0.44,1.37 1.85,-0.65 0.24,-1.5 0.93,-0.53 0.74,0.83 1.79,-0.72 0.79,1.25 -0.6,1.62 2.35,-0.43 -0.7,-1.25 0.77,-0.88 -0.35,-0.58 0.76,-0.23 1.73,2.52 3.75,-4.64 0.32,2.17 1.01,0.19 1.87,-2.49 2.41,1.89 1.2,2.78 v 0 l 2.66,4.19 -2.1,4.33 2.6,1.37 0.64,-0.76 1.86,0.2 1.36,1.14 -0.04,1.5 -1.61,0.58 2.54,1.7 0.22,2.08 5.04,-0.74 1.7,0.66 v 0 l 0.72,1.67 1.93,0.29 -1.66,1.98 0.89,3.62 1.6,-0.41 2.86,4.19 3.39,-2.16 1.18,-0.01 1.57,3.43 1.99,1.91 1.79,0.05 0.62,1.18 -0.02,4.82 -1.06,2.99 1.16,4.36 -0.19,2.31 1.03,1.48 -2.75,2.18 0.74,3.49 2.12,3.96 2.08,-0.44 0.29,0.73 -2.37,0.71 -0.15,0.94 -1.89,1.13 -0.6,1.83 -4.02,3.48 v 0 l -0.43,-0.39 -0.58,1.05 -8.08,-1.53 -13.64,6.3 0.05,3.37 -2.19,2.01 -3.2,-0.21 -4.06,2.53 -8.48,3.26 -3.57,2.67 -16.48,8.03 -6.3,0.32 v 0 l -5.38,-5.58 -0.97,-2.92 -2.19,-2.47 -0.01,-1.92 1.34,-1 -1.91,-2.18 0.71,-1.35 -0.44,-1.32 -1.08,-0.37 -2.35,-3.11 -2.44,0.67 -2.57,-1.18 1.06,-3.89 1.1,-0.75 -0.21,-1.44 -1.76,-1.37 -0.46,-1.5 -1.71,-1.5 -1.99,1.06 -2.82,-0.71 -7.1,-6.28 v 0 l 0.2,-2.44 2.87,-0.09 3.34,-1.65 1.27,1.03 0.74,-0.69 1.97,1.45 2.46,-2.05 -0.17,-4.08 -1.59,-4.19 0.01,-2.91 1.12,-1.46 0.42,-4.04 -0.59,-0.58 -0.52,-8.2 1.54,-1.26 -0.2,-2.23 0.86,-1.21 6.24,-2.44 -2.25,-2.26 -0.92,0.35 -2.99,-1.71 -0.64,-1.17 -0.5,0.31 -2.26,-2.72 1.77,-1.38 -2.12,-1.91 z" />
        <path id="HU-ZA" title="Zala" class="land" d="m 86.48,206.18 7.1,6.28 2.83,0.71 1.99,-1.05 1.71,1.5 0.46,1.5 1.76,1.37 0.21,1.44 -1.1,0.75 -1.06,3.89 2.57,1.19 2.44,-0.67 2.36,3.11 1.08,0.37 0.44,1.32 -0.71,1.36 1.91,2.18 -1.33,1 0.01,1.92 2.19,2.47 0.98,2.92 5.38,5.58 v 0 l -2.44,0.67 -2.56,1.86 -8.54,-0.39 -1.06,5.94 -3.15,2.96 -0.46,5.87 0.7,14.35 -2.17,3.49 -1.03,-0.08 -0.27,7.14 -4.08,0.29 -0.14,2.56 -1.19,0.4 -1.23,-0.14 -0.11,-0.94 -1.64,-0.8 v 0 l -1.32,2.07 -0.95,0.26 -1.27,-1.82 -1.29,0.06 c -0.66,3.05 0,0 -0.66,3.05 l 0.98,0.59 1.38,5.03 -0.11,1.12 h -0.96 l -0.96,1.47 0.39,1.76 -1.48,0.94 -0.96,0.52 -2.58,-1.33 -2.62,2.71 -1.45,0.5 -0.47,-3.32 -3,0.61 -2.49,-1.93 v 0 l 0.42,-1.11 -1.48,-1.5 0.35,-0.98 -1.28,-0.1 -0.37,-1.09 -1.01,-0.35 v -1.19 l -0.92,0.95 -2.83,-2.49 -1.45,0.93 -0.86,-0.83 -0.77,0.77 -0.63,-1.13 -1.2,0.1 -0.63,-1.71 -1.26,1.06 -4.21,-7.28 -1.31,0.39 0.6,-1.7 -1.26,-0.67 -1.95,0.27 -0.41,-0.93 -2.51,0.52 -1.72,-2.46 -4.98,-2.66 0.89,-1.18 -0.69,-0.76 0.63,-1.65 -1.22,-0.54 -0.59,-3.28 -2.56,-0.82 -0.26,-1.92 -3.19,-3.78 -2.15,-0.5 -0.69,-1.74 -1.89,-0.86 -0.66,-1.49 0.6,-2.5 2.42,0.71 0.91,-4.76 -4.96,-0.76 -0.43,-0.41 0.9,-1.09 -0.9,-1.33 v 0 l 2.2,-2.49 -0.25,-2.53 1.41,-1.01 -0.23,-1.01 -3.52,1.06 0.01,-1.43 3.47,-1.12 3.46,1.66 0.23,-0.77 3.9,-1.83 1.28,-1.18 0.04,-3.88 5.9,-3.04 1.57,-1.87 0.52,-2.71 3.63,-4.53 1.82,0.67 1.64,-2 1.5,-0.21 1.31,1 3.15,-0.42 3.87,0.98 0.82,-2.98 1.84,-0.36 3.45,-3.69 0.42,1 2.73,0.14 1.62,-0.8 1.96,0.65 0.36,1 5.06,0.25 0.99,-1.4 -0.29,-1.16 2.58,-2.68 -1.25,-4.51 1.27,-0.9 0.36,0.66 1.49,-0.5 0.26,2.28 1.34,-0.98 1.62,0.88 z"  />
    </g>
</svg>
