<?xml version="1.0" encoding="UTF-8" standalone="no"?>
<!-- Created with Inkscape (http://www.inkscape.org/) -->

<svg
   xmlns:dc="http://purl.org/dc/elements/1.1/"
   xmlns:cc="http://creativecommons.org/ns#"
   xmlns:rdf="http://www.w3.org/1999/02/22-rdf-syntax-ns#"
   xmlns:svg="http://www.w3.org/2000/svg"
   xmlns="http://www.w3.org/2000/svg"
   xmlns:sodipodi="http://sodipodi.sourceforge.net/DTD/sodipodi-0.dtd"
   xmlns:inkscape="http://www.inkscape.org/namespaces/inkscape"
   id="svg2457"
   sodipodi:version="0.32"
   inkscape:version="0.48.0 r9654"
   width="1227"
   height="1272"
   version="1.0"
   sodipodi:docname="Ukraine_Lviv_oblast_contour_map.svg"
   inkscape:output_extension="org.inkscape.output.svg.inkscape">
  <sodipodi:namedview
     inkscape:window-height="946"
     inkscape:window-width="1244"
     inkscape:pageshadow="2"
     inkscape:pageopacity="0.0"
     guidetolerance="10.0"
     gridtolerance="10.0"
     objecttolerance="10.0"
     borderopacity="1.0"
     bordercolor="#666666"
     pagecolor="#ffffff"
     id="base"
     showgrid="false"
     inkscape:zoom="0.5686255"
     inkscape:cx="615.9999"
     inkscape:cy="636.73648"
     inkscape:window-x="383"
     inkscape:window-y="0"
     inkscape:current-layer="g4971"
     showguides="true"
     inkscape:guide-bbox="true"
     inkscape:window-maximized="0" />
  <metadata
     id="metadata2462">
    <rdf:RDF>
      <cc:Work
         rdf:about="">
        <dc:format>image/svg+xml</dc:format>
        <dc:type
           rdf:resource="http://purl.org/dc/dcmitype/StillImage" />
      </cc:Work>
    </rdf:RDF>
  </metadata>
  <defs
     id="defs2460">
    <inkscape:perspective
       id="perspective2464"
       inkscape:persp3d-origin="372.04724 : 350.78739 : 1"
       inkscape:vp_z="744.09448 : 526.18109 : 1"
       inkscape:vp_y="0 : 1000 : 0"
       inkscape:vp_x="0 : 526.18109 : 1"
       sodipodi:type="inkscape:persp3d" />
  </defs>
  <g
     id="g4971"
     transform="matrix(0.9952441,-9.7412472e-2,9.7412472e-2,0.9952441,-57.787054,52.79986)">
    <path
       id="Zakarpatkaya_oblast_border"
       style="fill:#f6e1b9;fill-opacity:1;fill-rule:evenodd;stroke:#646464;stroke-width:1.20000000000000000;stroke-linecap:butt;stroke-linejoin:miter;stroke-opacity:1;stroke-miterlimit:4;stroke-dasharray:none"
       d="m 1175.169,1219.3134 -12.722,121.5248 -1222.073044,-119.9242 14.56849,-140.7935 69.680024,-22.3199 13.196356,-1.2874 22.691296,-5.9545 26.392712,-5.1498 2.253037,-0.4828 3.379554,5.7935 0.321863,11.2652 c -1.660196,6.2137 -5.830457,6.69 -10.460527,6.1154 -4.535001,1.5934 -8.015694,4.4169 -9.977733,9.0121 -0.206337,11.0011 3.154697,20.4733 5.793523,30.2551 4.993756,5.496 10.361192,10.8052 17.058704,15.4494 5.789425,4.2289 10.062035,9.7413 10.299595,18.668 l 2.41397,13.6792 c 5.20952,6.8509 11.33037,9.373 19.95546,0 l 10.94332,-0.4828 c 0.25258,3.7044 3.94555,2.8216 9.33401,-0.3219 l 8.52935,-7.2419 c 4.47661,2.6414 7.29453,6.6097 13.67915,7.7247 l 7.08098,7.7247 c 4.30568,7.6427 9.34185,13.8244 12.06983,24.6225 l 4.34515,21.5647 c 1.12256,5.0299 4.67135,6.8249 10.94332,4.9889 6.88684,2.3818 14.9952,9.894 19.95546,4.1842 3.36164,-2.3842 6.24959,-5.4 12.06984,-4.506 l 10.46053,10.6214 c 7.51012,1.0354 15.02024,1.7685 22.53036,-4.3451 6.7891,5.5053 5.73248,21.4055 10.29959,19.7945 2.91528,7.3685 7.2991,7.7615 11.90891,7.081 6.73392,5.4386 14.14042,8.3215 23.01316,5.6326 2.30571,8.6395 8.79329,4.7334 15.28846,0.8046 l 18.98988,-5.7935 c 11.38559,-23.1131 13.44882,-40.0775 4.667,-49.8887 5.44462,-4.0707 7.74371,-15.2189 9.81681,-26.8755 l 12.87449,-6.1154 1.28745,-3.7014 -2.5749,-2.4139 c -6.18529,0.7754 -9.18581,-3.2264 -11.10425,-8.8513 -1.79374,-11.8574 1.66528,-24.09 5.79352,-36.3704 2.80078,-5.0102 2.15592,-10.5127 2.09211,-15.9322 8.73394,-8.5427 17.23376,-17.3975 27.19736,-24.3006 l 0.4828,-6.92 c 3.3622,-1.0471 6.80034,-1.8158 11.42611,1.7702 3.01973,1.4539 4.75668,-0.171 5.63259,-3.8623 l 9.33401,-18.0243 c 0.94934,-4.4755 1.94715,-8.9462 -1.28745,-13.8401 l 6.11539,-10.4605 9.97773,0.8046 3.86235,4.0233 13.19635,-18.668 4.98887,-2.2531 3.70142,6.2764 11.9089,9.6558 c 16.13327,1.891 34.27323,1.7753 45.22166,8.8512 3.44406,0.1161 7.41813,-7.1878 11.26519,-12.7135 l 16.73684,-9.495 15.61032,7.8857 4.02328,2.253 -0.48279,5.9545 5.63259,3.5404 16.89777,-21.2429 16.25405,-0.4828 18.66802,8.0466 3.05769,6.2763 6.43725,2.7358 c 3.12139,-5.2198 4.21069,-11.3831 18.82894,-11.2651 l 4.82794,0.4828 5.95445,-4.1843 c 4.2915,2.2148 8.583,2.8938 12.8745,-1.2874 l 13.19635,-11.58705 26.71458,-3.21862 4.667,-4.82794 14.64474,0.16093 11.42611,12.71356 6.59818,-0.16093 0.48279,-12.23077 4.34515,-4.34514 0.48279,-20.43826 c -8.24496,-3.37443 -17.49318,-3.73906 -26.55364,-4.667 -6.97659,-0.4074 -13.43979,-1.49932 -17.86337,-5.31073 4.87971,-1.46413 8.40997,-4.61508 11.58705,-8.20749 0.87166,-5.97961 0.45243,-12.12057 4.50607,-17.70243 l -16.73684,-7.2419 -7.56376,5.31073 c -4.96629,-5.78626 -2.43159,-14.25144 -1.77025,-22.04757 l 20.76012,0.64372 5.79353,-4.82793 4.98886,5.95445 c 6.61854,-1.63705 7.67664,-7.9078 9.33401,-13.67915 0.84002,-10.1985 3.90497,-19.09913 14.9666,-23.33502 l 0.16093,-4.02328 -15.61032,-18.82895 c -8.21657,-14.13496 0.7162,-21.32853 10.13866,-28.32388 l 6.11539,-1.12652 1.93117,-19.95547 c -7.23935,-5.2508 -5.07308,-10.13984 -1.28745,-14.9666 l 10.78239,-0.64372 c 2.67053,-0.25888 4.86891,-1.22599 4.98887,-5.31073 l -3.86235,-11.10425 c 6.08879,0.44061 10.30109,-6.06578 13.35728,-11.74798 l 8.85122,0 12.87449,5.79352 -4.34514,6.43725 c -2.25645,4.10186 0.67438,5.23957 4.34514,5.95445 3.21886,3.49067 6.22244,3.53667 9.01215,0.16094 l 10.78239,-1.44838 4.98886,5.14979 c 5.67134,7.40223 12.29988,13.46438 20.1164,17.86336 4.57746,1.56729 8.2906,1.26188 10.2996,-2.73583 l 13.84008,5.79353 8.04656,-1.28745 6.75911,-3.0577 4.667,2.5749 -0.96559,7.24191 14.9666,41.35931 -0.80465,15.44939 10.46052,2.5749 63.72875,238.82183 37.01413,18.0243 1.6093,21.8867 30.7379,-10.1387 16.5759,20.4383 -6.4372,32.3471 46.5091,-28.3239 60.2378,66.8853 z m 75.8793,-787.29932 -13.2071,6.36448 -12.3169,9.61951 -23.3684,1.96549 -2.7359,12.87449 -6.1153,0.32187 -4.1843,15.93218 c 7.4341,8.06222 13.5698,17.70113 26.7146,18.82895 l 0.161,25.2662 5.6325,5.63259 -4.3451,4.50607 -6.7591,-3.70142 -8.6903,10.62146 2.5749,11.42611 -8.5293,11.58705 -1.2875,14.64473 c -5.9279,-0.48318 -11.1777,0.11847 -14.9666,3.0577 -7.1404,-2.18761 -16.1501,-9.20392 -18.5071,0.96558 l -3.0577,16.73685 -6.4372,0.80465 c -4.5597,-7.28457 -9.1195,-7.51841 -13.6792,0.64373 -9.9157,-0.88 -19.2923,-6.61178 -28.8066,-11.10425 l -3.2187,3.21862 -4.0232,-3.21862 -6.7592,4.34514 -0.6437,6.11538 -18.5071,-1.77024 -4.1842,-4.98887 -3.5405,0.96559 0.9656,34.92206 -3.5405,5.6326 c 6.8093,6.19383 16.54,12.58241 4.828,17.54149 l -2.8968,-1.12651 -9.0121,7.88562 -0.3219,4.50608 -6.4372,4.02328 -6.9201,-12.06984 -7.8856,-0.4828 c -11.1963,13.01497 -19.1667,26.74682 -18.829,42.3249 l -8.3684,9.01215 3.7014,6.11538 -8.3684,0.4828 -8.69027,14.64473 -4.18421,-0.16093 -1.12652,5.1498 c -4.33688,1.51192 -6.39146,-0.17138 -6.43724,-4.667 l -7.88563,0.64372 -1.93118,5.31073 -4.82793,-0.80466 -1.28745,-3.54048 -4.82794,-1.12652 -4.34514,4.98887 -6.59818,0.64372 3.37956,13.67915 -3.05769,1.93117 -5.95446,-10.46052 -20.59919,3.37955 0.16093,4.66701 -32.18623,2.25303 c 3.36746,9.28037 7.01264,18.56073 -0.48279,27.8411 l 2.5749,12.87449 4.667,3.21862 -1.12652,7.08098 15.28846,40.87651 -1.12652,16.41498 10.62146,2.09211 63.56781,238.82183 37.33607,18.0243 1.2874,21.8867 30.8988,-10.2996 16.7368,20.5992 -6.4372,32.1862 46.3482,-28.3239 57.7905,67.885 78.3266,-788.13812 z m 34.4861,-349.36956 -69.3775,20.35143 -8.6903,7.56376 -39.75,-9.49494 -17.8634,2.73583 2.5749,12.71357 12.8745,10.78239 2.0921,17.38056 -18.8289,6.43725 12.8745,2.5749 0.4828,16.57591 -7.5638,15.61032 13.3573,19.95547 -1.1265,21.56478 -18.1852,4.02328 0.3218,-18.18523 -21.4038,-4.98886 -4.1842,18.18522 11.9089,24.94433 -11.9089,14.16195 -9.6559,29.12854 4.9889,3.54048 4.3451,-7.56376 11.1043,0.16093 14.8056,9.97773 -1.6093,12.71357 0.1609,7.72469 -10.4605,0.32186 -0.9656,4.50608 c 0,0 -0.3779,-0.0443 -0.4828,0 -4.821,2.03753 1.3927,14.30136 2.8968,14.16194 -5.8872,9.1067 -2.4244,18.68091 8.8512,28.64575 1.043,6.84589 1.2259,13.10039 -4.5061,15.28846 -0.9541,7.77619 -0.066,17.65779 -3.7014,22.36943 l 50.2105,72.57996 c 4.0233,-15.77125 4.0233,-15.93218 4.0233,-15.93218 l 6.4373,0 2.5749,-13.35729 20.7601,-0.80466 16.5729,-12.82335 10.5988,-5.84737 35.4467,-347.68273 z m -171.8907,211.53767 9.6559,-28.96762 c 10.2996,-14.16194 11.587,-14.16194 11.587,-14.16194 l -11.587,-24.46154 3.8623,-18.66801 21.8867,5.14979 -0.6437,18.66802 18.0243,-3.86235 1.2874,-21.88664 -13.5182,-19.95546 7.7247,-15.4494 -0.6437,-16.73684 -13.5183,-2.5749 19.9555,-6.43724 -1.9312,-17.38057 -13.5182,-10.94332 -2.5749,-12.8745 18.0243,-2.57489 22.5304,5.14979 17.3805,4.50608 8.3685,-7.7247 66.6867,-16.864966 1.2967,-16.517484 -581.51687,-57.424072 -1.44633,10.340935 c 0,0 -1.54555,-1.107632 1.44838,0.321861 5.06026,2.416095 15.26677,-4.404351 13.67915,-5.793522 10.76574,-0.08318 19.2047,2.703331 17.21963,18.346154 3.98851,5.619843 11.27604,6.505762 14.48381,13.67915 l -0.4828,5.471659 c 9.72334,9.918696 21.41897,18.111643 37.97976,22.047571 l 9.49494,-7.724696 0.96559,-8.046559 17.38056,-0.965587 9.33401,-8.20749 7.88563,21.081984 -7.08097,12.069838 18.82895,17.541494 c 8.32625,-4.509177 17.53163,-7.611732 28.00202,-8.690279 l 10.13866,6.115384 6.27632,18.185225 -5.31073,5.95445 -0.64372,9.01215 9.49494,5.95445 2.89676,-8.36842 5.47166,3.21862 -3.0577,8.20749 4.66701,2.5749 -0.32186,12.23077 -5.79353,4.98887 3.70142,3.70141 0.32186,7.7247 -2.0921,14.48381 14.16194,7.56376 12.23077,-0.64372 -2.73583,4.98886 26.71458,17.21964 -2.41397,25.90992 29.12854,4.02328 c 3.44328,-1.74824 6.68628,-4.99866 10.94332,-0.64373 l 7.56377,-10.78239 c 3.55658,0.52166 7.27469,0.76064 9.17303,4.18421 l 5.7936,1.12652 2.8967,-7.08097 9.495,3.21862 -2.2531,9.49494 14.8057,0.4828 c 12.2391,-5.18166 8.9325,-14.60307 7.5638,-23.49595 l 12.0698,-5.1498 c 7.8218,10.96092 17.0136,21.16068 21.2429,34.11741 l 6.5982,-1.77025 8.0466,3.21863 c -3.7172,5.24283 -4.1465,16.23963 -4.5061,27.3583 l 31.2206,13.19636 z" />
    <path
       sodipodi:nodetypes="cccccccccccccccccsssssssccssccccccccccccccccccccccccccccccccscssccscscscsccccsccsccscccccccccc"
       id="Poland_border"
       d="M 702.31372,12.189428 L 679.5578,115.23691 C 679.30787,115.71098 679.05794,116.18504 678.808,116.65911 C 674.79243,124.86539 669.06728,132.46623 665.93349,141.08369 C 665.9287,141.10283 665.33829,141.97514 665.28976,142.04782 C 662.62392,143.02753 659.71524,143.75474 656.92133,145.26157 C 654.81486,146.59359 653.30847,148.58549 652.09339,150.72497 C 648.87996,155.40823 646.27438,160.2656 644.04682,165.50826 C 643.60382,166.39291 643.10944,166.73743 642.75937,167.43651 C 639.60699,168.15498 635.82601,166.94656 632.45976,166.47238 C 613.89104,163.51984 595.20396,161.36106 576.45563,160.04487 C 570.20895,159.32324 563.74967,158.28382 557.46572,159.08074 C 546.22296,159.03181 535.08574,163.46248 524.63571,167.43651 C 519.44337,169.73897 514.11937,172.6131 510.47375,177.07779 C 506.40317,182.06061 503.49526,187.6375 503.07089,194.11072 C 503.42981,197.92238 502.99265,200.16702 500.17413,202.78787 C 495.77374,206.13583 492.61549,210.67913 487.94334,213.71465 C 486.70921,214.33078 482.81745,216.80315 481.66702,217.09032 C 479.89453,217.53277 480.11111,219.97586 480.5405,221.74905 C 481.21223,224.52299 475.01315,228.3141 473.13765,227.53382 C 471.80304,226.97857 467.41495,226.55697 468.14877,226.89107 C 470.99815,228.1884 463.56402,231.87172 463.1599,232.67973 C 462.31292,234.37317 463.03749,238.87035 462.1943,240.55416 C 461.42037,242.09968 454.06346,247.50503 453.38212,248.18534 C 452.18815,249.3775 447.31051,251.8248 445.42983,252.84455 C 438.77959,257.36484 430.52632,261.35201 423.02132,264.33076 C 421.83084,264.62793 419.39218,262.54482 418.02101,262.73763 C 411.43267,263.66405 375.65149,302.24669 373.68204,303.69991 C 372.11221,304.85826 318.65202,345.14889 317.99976,345.80016 C 311.1441,368.00595 298.13726,372.55384 284.52603,375.36676 L 282.91672,385.00804 L 243.00571,424.85865 C 239.78745,434.83603 239.78745,434.83603 239.78745,434.83603 C 222.07341,460.03117 199.97187,480.57622 178.95547,500.81782 L 170.58704,501.13967 C 168.5571,508.75708 164.99157,516.37449 158.67814,523.9919 L 138.40081,545.23482 L 134.86032,555.21255 L 124.23887,559.71862 L 117.15789,566.15587 L 110.39879,582.89271 L 102.03036,589.32996 L 88.834008,589.65182 L 86.580972,599.30769 L 80.143725,613.46963 L 69.200405,626.02227 L 33.473684,657.88664 L 32.186235,668.18623 L 25.105263,677.19838 L 17.380567,682.9919 L 8.6902834,686.85425 L 11.908907,703.26923 L 19.633603,709.06275 L 30.255061,714.21255 L 33.473684,718.39676 L 34.439271,727.40891 L 32.82996,760.88259 L 40.554656,786.30972 L 41.520243,811.73684 L 32.829959,873.85627 C 32.829959,873.85627 24.0567,873.80153 21.88664,880.29352 C 17.411571,893.68122 31.220648,896.06477 31.220648,896.06477 C 31.220648,896.06477 39.585802,900.19746 24.783401,911.51417 C 14.193585,919.61028 14.335775,928.6131 19.955466,931.46964 C 22.024468,932.52133 24.461538,925.03239 24.461538,925.03239 C 29.933198,916.66397 34.761134,922.45749 34.761134,922.45749 C 34.761134,922.45749 34.439271,920.20445 35.404858,923.10121 C 36.370445,925.99798 32.186235,930.18219 32.186235,930.18219 C 32.186235,930.18219 30.255061,926.96356 30.576923,932.75708 C 30.898785,938.55061 31.54251,938.87247 31.54251,938.87247 C 31.54251,938.87247 33.324591,939.77747 33.473684,939.83806 C 40.274663,942.60171 44.982932,938.68393 44.095142,939.83806 C 44.095142,939.83806 40.232794,939.51619 46.348178,939.83806 C 52.463563,940.15992 50.532389,951.10324 50.532389,951.10324 L 55.038462,958.18421 L 70.809717,975.56478 L 82.074899,980.39271 C 82.074899,980.39271 76.603239,979.10526 83.362348,980.07085 C 90.121458,981.03644 89.477733,989.72672 89.477733,989.72672 L 83.040486,995.52024 C 83.040486,995.52024 79.5,997.45142 77.890688,1000.3482 C 76.281377,1003.2449 76.925101,1014.5101 76.925101,1014.5101 L 83.040486,1022.5567 C 83.040486,1022.5567 80.78745,1018.6943 84.006073,1023.8441 C 87.224696,1028.9939 86.580972,1045.4089 86.580972,1045.4089 L 85.937247,1045.4089 C 85.588652,1045.4549 85.240057,1045.5009 84.891461,1045.5469 C 79.679661,1047.9709 73.891907,1047.7929 68.504906,1049.416 C 59.702875,1050.7583 52.10785,1052.6215 42.559526,1054.6505 C 39.396603,1056.0779 35.930934,1056.4291 32.54552,1056.9265 C 28.251531,1057.2099 24.428672,1057.7775 20.483194,1059.43 C 13.580094,1061.6359 -39.820679,1078.8997 -46.355865,1081.2089 L 66.153421,-47.498274 L 702.19203,13.432709"
       style="fill:#e0e0e0;fill-opacity:1;fill-rule:evenodd;stroke:#646464;stroke-width:1.2;stroke-linecap:butt;stroke-linejoin:miter;stroke-opacity:1;stroke-miterlimit:4;stroke-dasharray:none" />
    <g
       id="g3778"
       style="stroke:#646464;stroke-opacity:1;fill:#fefee9;fill-opacity:1">
      <path
         sodipodi:nodetypes="cccccccccccccsccccccccccccccccccccccccccccccccccccccccccccccccccccccccccccccccccccscccccccccccccccccccccccccccccc"
         id="Zhovkva_border"
         d="M 496.94506,205.62214 L 502.97622,209.60498 C 502.93065,218.37607 501.24217,227.7244 516.51789,231.11233 L 519.24898,227.0157 L 532.79065,232.25029 L 536.31831,227.81226 L 556.11873,234.5262 L 555.09457,246.70232 L 558.39464,248.75064 L 557.93946,251.93692 L 567.27069,261.60953 L 586.04695,267.29931 L 590.0298,262.86129 C 590.0298,262.86129 601.03021,291.66915 602.31971,289.60323 C 604.28412,286.45604 621.8073,288.67839 621.43736,289.60323 L 615.86138,295.17921 L 619.73043,300.41381 C 637.78599,306.38835 655.84154,311.64842 673.8971,314.63825 L 677.53855,321.57978 L 682.77315,320.897 L 682.09038,315.54861 C 692.92026,317.54516 703.66265,318.22931 714.06692,313.84168 C 711.0664,314.21839 716.74798,320.38318 726.58443,329.31787 L 727.94997,336.48699 L 736.02945,336.2594 L 734.8915,330.34203 L 737.96398,328.6351 L 741.03646,330.79721 C 744.17246,333.99605 740.35169,338.93409 738.76055,343.31472 L 727.60859,351.6218 L 717.48078,363.91171 L 707.35298,358.67712 L 705.07707,345.24925 L 699.1597,347.98034 L 694.38029,348.43552 C 690.69765,351.43842 687.95228,354.81623 686.41461,358.67712 L 684.36629,368.00835 L 672.53155,366.41521 L 672.07637,375.51886 C 674.36983,379.44842 677.9695,382.23503 677.08337,388.94673 L 682.54556,392.36059 L 688.46292,392.81578 L 687.78015,387.35359 C 692.92178,382.76889 694.79091,389.31068 698.02175,391.22264 C 696.04982,394.47222 694.68743,397.82339 697.79416,401.91942 C 703.06751,405.27638 702.37041,398.94411 710.76685,398.50555 L 712.35999,397.3676 L 721.23604,407.3816 L 721.00845,416.03006 C 716.86191,418.6224 713.65231,421.68322 711.22203,425.1337 L 706.21503,424.45093 C 702.85028,426.30648 705.8502,430.48259 706.49784,433.94309 L 703.02875,440.6099 L 708.94612,445.16172 L 706.67021,460.63791 L 698.93211,465.64491 L 699.61489,474.74855 L 693.46993,481.1211 L 686.86979,481.34869 L 691.42161,494.32138 L 690.51124,506.6113 L 686.41461,508.88721 L 671.84878,503.65262 L 662.28995,515.48735 L 654.55186,533.46704 L 650.22763,532.78427 C 647.07004,517.44615 631.19465,513.76602 618.36488,507.29407 L 619.95802,500.46634 L 611.30956,499.32839 C 607.39773,499.39757 606.36646,496.9977 605.39219,494.54897 L 605.84737,484.53497 C 597.78266,486.89516 591.95167,487.88076 589.46082,486.81088 L 588.55045,476.1141 L 585.13659,477.02446 C 579.8571,482.0413 580.26969,476.19145 579.44681,472.70023 C 581.1257,467.85915 578.22409,465.6231 576.13865,463.78513 C 567.34308,463.44615 569.68445,453.28045 567.38449,447.21004 C 562.6841,448.16676 560.72865,445.46357 559.87398,441.29267 L 538.25283,439.47194 L 535.29415,413.52656 L 527.78364,404.65051 L 524.36978,385.30527 C 523.25538,384.46851 521.2014,383.34375 519.45549,383.01532 C 514.43933,382.07172 509.06852,382.3664 507.12335,379.85452 C 501.29973,368.54106 497.81895,358.42899 486.42873,358.15527 L 482.26543,346.15961 L 477.03084,344.79406 C 474.45532,339.22047 470.62116,337.00326 466.78924,334.78006 L 471.79625,327.72474 L 467.69961,324.53846 L 463.60297,329.31787 L 460.64428,326.1316 L 453.13378,325.22123 L 444.48532,306.10359 C 444.2456,306.40949 443.30857,308.00283 440.49437,308.30873 L 435.60927,307.92431 L 430.14708,307.69672 L 425.59526,320.21423 L 419.22271,319.98664 L 416.26403,312.47614 L 407.61557,300.6414 L 397.14638,300.6414 L 393.73252,295.17922 L 387.81515,289.71703 C 397.90743,279.29901 407.85411,268.08022 418.76753,262.17851 L 423.54694,264.45442 C 437.81981,258.19702 450.99337,250.47387 462.6926,240.78495 L 462.6926,232.59168 L 469.52034,227.58467 L 474.52734,227.35708 L 480.89989,223.03285 L 480.89989,217.34308 C 488.17093,215.08408 492.61721,210.40387 496.94506,205.62214 z"
         style="fill:#fefee9;fill-opacity:1;fill-rule:evenodd;stroke:#646464;stroke-width:1.20000000000000000;stroke-linecap:butt;stroke-linejoin:miter;stroke-opacity:1;stroke-miterlimit:4;stroke-dasharray:none" />
      <path
         style="fill:#fefee9;fill-opacity:1;fill-rule:evenodd;stroke:#646464;stroke-width:1.20000000000000000;stroke-linecap:butt;stroke-linejoin:miter;stroke-opacity:1;stroke-miterlimit:4;stroke-dasharray:none"
         d="M 701.0162,22.047568 L 679.12956,113.13462 L 665.9332,140.97571 L 657.88664,144.19433 L 653.70243,147.73482 L 647.90891,157.71255 L 643.08097,168.65587 C 624.28799,164.50702 604.57678,162.19462 584.50203,160.60931 L 560.68421,158.35627 C 548.74507,158.91221 537.11316,162.54042 525.60122,167.36842 C 519.16397,169.29959 513.7996,172.94738 509.5081,178.31174 C 506.88465,182.34982 503.95583,186.14361 503.39271,191.82996 L 503.39271,198.2672 L 496.95547,205.9919 L 503.07086,209.69331 L 503.07085,220.47571 C 503.07085,220.47571 502.99815,215.13933 503.71458,220.79757 C 504.68882,228.49197 516.42673,231.98722 516.58907,231.41903 L 519.16397,226.91295 L 532.68219,232.38461 L 536.22267,227.87854 L 556.01721,234.31578 L 554.89069,246.86842 L 558.43117,248.79959 L 557.78745,252.01822 L 567.44332,261.67409 L 585.78947,267.14575 L 589.97369,262.96154 L 601.88259,289.67611 C 601.88259,289.67611 602.20446,289.03238 603.81377,288.71052 C 612.39934,286.9934 621.5162,289.67611 621.5162,289.67611 L 615.72267,295.46963 L 619.58502,300.61943 C 619.58502,300.61943 619.58502,300.29757 626.34413,302.55061 C 653.79127,311.69967 673.33603,314.45951 673.33603,314.45951 C 673.33603,314.45951 673.97976,313.17206 674.62348,317.03441 C 675.26721,320.89676 677.19838,321.21862 677.19838,321.21862 L 682.34818,320.89676 L 682.02632,316.39069 C 682.02632,316.39069 681.86539,315.58603 685.24494,316.06882 C 703.31705,318.65054 714.21255,313.81579 714.21255,313.81579 C 714.21255,313.81579 713.89069,310.59716 713.89069,315.10324 C 713.89069,319.60931 726.44332,329.58704 726.44332,329.58704 L 728.05263,336.66801 L 736.09919,336.34615 L 734.81174,330.23077 L 738.03037,328.62146 C 738.03037,328.62146 738.26266,330.80272 737.7085,327.97773 C 734.48758,311.55815 749.61741,323.1498 749.61741,323.1498 L 761.20445,301.26316 L 760.56073,299.33198 L 756.05466,298.68826 L 759.27328,277.12348 L 771.82591,276.80162 L 775.68826,272.61741 L 772.14777,267.78947 L 775.04454,263.60526 L 759.27328,257.48988 C 759.27328,257.48988 757.66397,260.7085 759.91701,256.84615 C 762.17004,252.9838 772.46964,250.40891 772.46964,250.40891 L 784.47282,234.1663 L 781.25419,229.66023 L 777.16425,231.87421 C 775.47294,228.48505 772.66938,226.20348 770.18476,226.47926 C 767.70015,226.75504 765.53447,227.53985 765.11894,226.18683 C 763.28801,220.22521 758.13832,218.47681 752.64749,219.45489 L 753.80162,214.68218 L 759.59514,216.61336 L 769.57288,201.48583 L 765.0668,197.62348 L 769.25101,190.54251 L 774.07895,194.40486 C 778.26269,194.29561 781.19789,194.76189 788.56275,202.12955 L 797.5749,202.45142 C 800.77499,203.04842 802.29955,204.71166 798.86235,209.53239 L 804.65587,213.07287 L 809.80567,205.9919 L 822.3583,205.02631 L 827.82996,200.19838 L 843.60122,201.16397 L 844.88867,196.33603 L 850.68219,190.86437 L 856.47571,191.82996 C 856.47571,191.82996 856.77463,196.50236 858.72875,187.96761 C 860.08822,182.03005 869.25819,188.15165 869.67207,187.32388 C 874.84056,188.54373 877.46517,186.79573 879.00607,183.7834 L 877.71862,177.02429 L 897.99595,173.4838 L 897.67409,165.43725 L 893.81174,161.5749 L 899.92713,156.74696 L 899.92713,144.19433 L 895.42105,141.94129 L 898.63968,133.89474 L 893.16802,130.35425 L 890.27126,139.04453 L 880.61539,133.25101 L 881.25911,124.23886 L 886.40891,118.12348 L 880.61539,100.09919 L 869.99393,93.661941 C 859.91886,94.861996 850.67229,97.719061 842.31377,102.35222 L 823.32389,84.327933 L 830.083,72.740889 L 822.3583,51.176111 L 812.70243,59.544532 L 796.28745,61.153844 L 794.67814,68.87854 L 785.66599,76.925099 L 780.83806,75.63765 C 780.83806,75.63765 781.81487,76.257874 781.15992,75.959512 C 744.66172,59.332671 747.8747,52.29345 747.36437,52.463561 C 747.36437,52.463561 747.84492,49.295136 747.68624,48.923075 C 744.95804,42.526003 730.14384,33.153629 732.88057,35.404857 C 732.88458,35.398839 734.18194,34.021745 733.20244,25.427123 C 732.61156,20.242409 725.24242,17.669068 725.15587,17.380565 C 725.15587,17.380565 731.43244,18.630017 724.83401,17.058702 C 719.15136,15.705466 715.40473,16.040372 715.82186,16.736839 C 715.82186,16.736839 714.53442,20.599189 710.99393,21.886638 C 703.80396,24.501165 701.33806,22.047568 701.0162,22.047568 z"
         id="Chervonograd_border"
         sodipodi:nodetypes="ccccccccccccccccsccccccccccccscccscscccscscccccsccccccccccsccccssccccccccccccccccccsccccccccccccccccccccccccccscscscscsc" />
      <path
         style="fill:#fefee9;fill-opacity:1;fill-rule:evenodd;stroke:#646464;stroke-width:1.20000000000000000;stroke-linecap:butt;stroke-linejoin:miter;stroke-opacity:1;stroke-miterlimit:4;stroke-dasharray:none"
         d="M 896.70873,174.10078 L 877.1359,176.37669 L 878.27386,182.97683 C 878.27386,182.97683 879.26965,183.71353 878.95663,184.11478 C 873.71986,190.82749 866.89431,185.93551 866.89431,185.93551 C 866.89431,185.93551 875.31518,190.48733 866.89431,185.93551 C 858.47344,181.38369 857.33548,192.76324 857.33548,192.76324 L 850.50775,190.94252 L 844.81798,195.72193 L 843.90761,200.72893 L 827.97624,200.27375 L 822.28646,204.82557 L 809.31377,205.73593 L 804.76195,212.79126 L 798.16181,209.37739 C 798.16181,209.37739 798.46723,210.19091 799.98254,208.01184 C 804.95991,200.8542 788.83058,202.09448 788.83058,202.09448 C 788.83058,202.09448 789.74094,203.00484 787.46503,200.27375 C 780.61557,192.05439 774.03716,194.58397 774.03716,194.58397 L 769.71293,190.71492 L 764.47834,196.63229 L 768.80256,201.63929 L 758.78856,216.20512 L 752.6436,214.83958 L 752.41601,219.3914 C 752.41601,219.3914 751.73324,219.3914 753.78156,219.16381 C 763.97056,218.03171 765.16111,227.35708 765.3887,227.12949 C 765.61629,226.9019 762.65761,227.12949 766.52665,226.9019 C 770.3957,226.67431 777.22343,231.22613 777.22343,231.22613 L 781.77525,229.63299 L 784.50635,234.41241 L 771.98884,251.02655 C 771.98884,251.02655 774.26475,250.34378 769.94052,251.25414 C 765.61629,252.16451 758.78856,256.94392 758.78856,256.94392 L 774.71993,263.31647 L 783.82357,269.68902 L 790.8789,265.59238 L 797.02386,267.18552 L 798.16181,273.33048 L 792.24444,275.83398 L 788.60299,273.10288 L 785.87189,275.1512 L 790.19612,279.70302 L 791.56167,284.25485 L 797.02386,285.3928 L 798.16181,296.31717 L 812.95523,311.79336 L 830.47974,315.43482 L 831.16251,328.17992 C 831.16251,328.17992 828.38724,328.60803 835.94192,335.46283 C 841.88571,340.85598 849.67713,331.16188 849.82498,332.04897 L 877.81868,340.24224 C 887.85834,346.05753 897.44003,353.01776 906.26756,361.86339 L 915.82638,372.56017 L 924.24725,372.10499 L 924.24725,376.65681 L 939.72344,378.24995 L 946.09599,381.20863 L 952.92372,374.3809 L 963.39291,374.83608 C 963.39291,374.83608 960.66182,374.3809 963.84809,373.69813 C 967.03437,373.01535 972.04137,376.20163 972.04137,376.20163 C 972.04137,376.20163 971.13101,375.97404 974.08969,376.8844 C 977.04838,377.79477 985.01406,374.3809 985.01406,374.3809 L 990.24866,373.69813 C 990.24866,373.69813 991.60751,374.22239 991.84179,373.24295 C 992.90511,368.79759 990.00413,367.75112 990.02107,367.78076 L 981.6002,365.50485 L 981.14501,358.67712 L 987.06238,352.30457 L 994.80048,356.85639 L 998.44193,353.21493 L 1008.4559,359.58748 L 1015.7389,353.67012 L 1021.4286,354.1253 C 1021.4286,354.1253 1019.8529,354.16151 1021.4286,353.67012 C 1040.275,347.79284 1044.8575,346.61457 1047.4461,345.98359 C 1060.2708,342.85755 1066.5621,330.02874 1069.0148,322.94361 C 1073.5559,309.82584 1072.3708,297.97957 1072.409,296.08958 L 1073.3194,291.08258 L 1081.9678,281.75134 C 1082.2176,281.62644 1082.9003,277.07465 1083.1058,269.00625 C 1083.3623,258.93362 1087.2024,253.75764 1087.2024,253.75764 L 1078.3264,250.79896 L 1071.9538,252.16451 C 1067.9829,239.09829 1058.7445,229.04208 1050.7879,218.25344 L 1038.9531,223.03285 C 1038.9531,223.03285 1039.9819,227.87236 1040.3187,231.45372 C 1041.4493,243.47782 1031.3559,246.66802 1031.6702,246.92991 L 1016.194,246.24714 L 1018.9251,236.91591 L 1008.9111,233.72963 L 1006.18,240.55736 L 999.80748,239.647 C 999.80748,239.647 1002.311,241.92291 999.3523,238.28145 C 996.39361,234.64 991.15902,235.55036 991.15902,235.55036 L 984.55888,244.88159 C 984.55888,244.88159 985.01406,246.70232 982.96574,245.56437 C 980.91742,244.42641 973.17933,246.92991 973.17933,246.92991 L 944.04767,242.83327 L 946.32358,216.88789 L 919.46784,199.59098 L 922.42652,194.12879 L 910.13661,195.49434 L 896.02596,187.75624 L 896.70873,174.10078 z"
         id="Radekhiv_border"
         sodipodi:nodetypes="cccscscccccccccscscccccccsssccccsccccccccccccccccsccccccccccscsccscccccccccssscccscccccsccccccsccscccccccc" />
      <path
         sodipodi:nodetypes="ccccccccccccccccccccccccccccccccccccccccccccccccccccccccccccccccccccccccccccccccccccccccccccccccc"
         id="Kamjanka-Buzhska_border"
         d="M 774.71993,263.31647 L 783.59598,269.46143 L 790.65131,265.59238 L 797.25145,266.95793 L 798.3894,272.87529 L 792.47203,275.60639 L 789.05817,272.87529 L 785.87189,274.92361 L 790.17207,279.53745 L 791.62045,284.20445 L 797.09211,285.4919 L 798.37956,295.95243 L 813.02429,311.88461 L 830.56579,315.4251 L 831.04859,328.29959 C 836.65383,341.37881 843.05294,337.43724 849.55567,332.16194 L 878.20142,340.36943 C 892.20234,349.11347 905.46934,358.83608 915.85931,372.39473 L 924.22774,372.2338 L 924.0668,376.09615 L 922.29656,380.92409 L 900.57085,375.77429 L 897.83502,381.08502 L 878.52328,379.63664 L 877.55769,382.85526 L 855.83199,380.92409 L 851.80871,385.59109 L 867.57996,397.98279 L 857.11944,412.14473 L 832.81883,401.84514 C 830.083,401.2397 827.34717,401.74599 824.61134,402.6498 L 819.30061,411.17915 C 819.34811,415.79107 821.85869,418.71772 827.66903,419.38664 C 832.03778,420.96805 835.18466,423.34009 834.42814,428.23785 C 835.37318,434.49495 838.66535,437.78724 845.37146,436.7672 C 854.49644,438.46137 856.02505,444.81137 855.83199,452.2166 C 841.81518,456.68495 835.96008,450.87559 829.92207,445.29656 L 824.77227,448.19332 C 826.22466,462.21583 822.74641,472.52014 805.78239,472.65486 L 805.2996,478.93117 L 807.19173,481.94173 L 806.74798,486.33401 L 810.61033,489.71356 L 798.37956,500.97874 C 803.07942,508.64979 800.76878,516.32085 795.80466,523.9919 L 780.0334,523.50911 L 777.13664,530.42915 L 766.35425,531.55567 L 757.02024,531.39473 L 749.13462,526.40587 L 741.40992,527.53239 L 737.06478,533.32591 L 722.42004,526.08401 L 723.54656,521.25607 L 686.21053,508.54251 L 690.23381,506.12854 L 691.19939,494.21963 L 687.01518,481.18421 L 693.45243,480.70141 L 699.56782,474.90789 L 698.92409,465.41295 L 706.64879,460.42409 L 708.90182,445.29656 L 702.78644,440.14676 L 706.64879,433.87044 C 705.66034,430.48479 702.93902,426.63704 706.16599,424.3755 L 711.15486,424.8583 L 720.81073,415.84615 L 721.29352,407.47773 L 712.28138,397.33907 L 710.51114,398.46558 C 706.73349,398.89332 704.08636,400.73421 701.49899,402.6498 C 694.52165,401.9541 694.9824,396.07434 697.79757,391.38461 C 694.51655,387.57147 691.23607,383.74539 687.65891,387.03947 L 688.6245,392.51113 L 682.18725,392.02834 L 677.19838,388.80971 C 677.54366,381.4565 674.40996,379.12849 672.20952,375.45243 L 672.69231,366.27935 L 684.27935,367.5668 C 685.04079,360.94769 687.45587,354.41125 694.25709,348.09413 L 699.24595,347.61133 L 705.20041,345.19737 L 707.77531,358.55465 L 717.75304,364.02631 L 727.8917,351.63461 L 738.67409,343.74899 C 740.52631,338.35392 746.30781,332.32167 737.7085,328.62145 C 735.54535,317.49423 740.73946,317.30348 749.77834,322.82793 L 761.36539,301.58502 L 760.72166,299.17105 L 756.05466,298.36639 L 759.11235,277.12348 L 771.66498,276.47975 L 775.52733,272.61741 L 771.98684,267.46761 L 774.71993,263.31647 z"
         style="fill:#fefee9;fill-opacity:1;fill-rule:evenodd;stroke:#646464;stroke-width:1.20000000000000000;stroke-linecap:butt;stroke-linejoin:miter;stroke-opacity:1;stroke-miterlimit:4;stroke-dasharray:none" />
      <path
         sodipodi:nodetypes="ccccccccccccccccccccccccccccccccccccccccccccccccccccccccccccccccccccccccccccccccccccccccccccccccccccccccccccccccccccccccccccccccccccccccccccccccccccc"
         id="Zolochev_border"
         d="M 766.19332,539.60222 L 762.4919,543.78644 L 774.88361,554.08603 L 778.10223,551.3502 L 783.41296,551.51113 L 778.10223,561.167 L 779.71154,564.22469 L 779.71154,568.73077 L 784.05668,571.14473 C 783.09108,575.97264 780.40892,578.01116 776.01012,577.26012 L 773.75709,575.81174 L 771.50405,578.06478 L 762.9747,575.97267 C 761.81499,576.39421 760.25396,575.91275 760.72166,579.99595 L 762.00911,581.60526 L 756.85931,590.77834 L 751.22672,606.38866 L 764.58401,620.22874 L 763.29656,623.1255 L 766.03239,627.47065 L 768.76822,633.74696 L 772.63057,634.22976 L 776.01012,640.34514 L 780.35527,638.89676 L 780.83806,630.8502 L 783.0911,628.2753 L 787.59717,631.65486 L 795.32186,631.33299 C 798.57668,637.60801 801.7041,644.26524 805.78239,648.06984 L 812.05871,646.94332 L 814.79454,642.27631 L 822.68016,641.63259 L 824.28948,635.67814 L 827.18624,634.22976 L 828.63462,630.52834 L 836.52025,631.49393 L 837.80769,635.35627 L 844.5668,640.34514 L 843.11842,643.08097 C 843.46077,644.65736 846.97033,644.25424 850.68219,643.72469 C 854.01971,645.71965 857.26903,647.77341 858.08502,651.44939 L 867.57996,654.50708 L 874.9828,653.5415 L 875.78745,636.32186 L 879.97166,625.53947 L 884.3168,627.79251 L 885.92612,630.8502 L 884.47774,633.58603 L 886.24798,635.35628 L 892.68523,635.35627 L 892.20243,648.87449 C 888.28902,652.012 889.44871,653.88124 892.36336,655.31174 C 898.96154,653.38983 905.55972,652.21674 912.1579,653.70243 C 924.41532,658.28529 935.31748,664.02979 929.86033,683.79656 L 942.89575,683.47469 L 946.43624,675.42814 L 954.16093,679.29048 L 952.87348,681.86538 L 955.44838,685.88866 C 956.62406,690.49208 955.21861,692.80116 948.68927,690.55567 C 945.5079,688.01326 944.47115,691.04684 943.37855,693.93522 L 947.56276,705.84413 L 962.52935,703.1083 C 972.29835,704.0501 970.81387,710.21673 968.80567,716.62652 L 962.36842,717.43117 L 961.08097,719.68421 L 964.24674,727.67791 L 968.7982,729.0531 L 970.04995,732.49542 L 974.88626,733.40578 L 976.87768,728.25653 L 984.84337,727.43152 C 985.4289,731.506 987.20466,733.64637 991.21592,732.15403 L 992.46767,726.91944 L 996.56431,726.97633 L 1005.2566,712.44231 L 1013.5445,711.79858 L 1009.8431,705.76366 L 1018.2115,696.67105 C 1017.5246,680.52638 1026.254,667.17175 1037.0405,654.42662 L 1044.8457,655.07034 L 1051.9266,666.81832 L 1058.4443,662.95597 L 1058.5248,658.36943 L 1067.6979,650.64473 L 1070.5946,651.77125 L 1073.8133,649.92054 C 1077.089,647.95865 1076.3729,645.33146 1074.5375,642.51771 L 1065.8472,634.14929 L 1069.2267,628.5167 L 1068.8244,613.22824 L 1068.4221,593.35324 L 1071.8821,592.70951 L 1075.9858,597.61791 L 1094.2515,599.30769 L 1095.2171,593.4337 L 1101.8821,588.99926 L 1105.8649,591.95794 L 1109.3926,588.54408 C 1099.413,582.15415 1091.7651,570.60485 1079.4643,562.5987 L 1066.4917,562.14352 L 1064.5571,559.41242 L 1056.9328,559.18483 C 1052.8616,553.66072 1049.4751,553.61373 1046.6912,558.38826 C 1047.2594,561.72542 1046.2557,563.49075 1043.3912,563.39527 C 1042.5739,565.5345 1041.329,566.7331 1038.3842,564.19184 C 1037.0945,566.53731 1035.8048,565.90845 1034.5151,564.41943 L 1031.8978,561.23315 L 1027.4598,561.11936 L 1024.8425,556.79513 C 1021.6698,554.83297 1022.6889,553.70918 1023.7045,552.58469 L 1027.2322,551.67433 C 1030.9645,550.2959 1030.763,547.70705 1028.9391,544.61901 L 1020.5183,544.39141 L 1023.1356,536.99471 C 1023.7097,527.91673 1018.8971,525.1231 1014.4871,521.8599 C 1007.5753,522.78082 1000.4766,523.07862 994.80048,528.11865 C 990.3001,529.22438 986.12968,527.6905 982.05538,525.38756 L 980.12086,524.3634 L 981.71399,518.33224 L 974.43108,517.76326 L 970.22064,513.21144 L 964.87226,513.43903 C 963.73192,519.13218 962.00352,524.32128 952.01336,522.42888 L 948.5995,519.58399 C 947.05431,519.17249 945.65207,517.76035 943.70629,520.15297 C 942.61461,521.69526 940.87117,521.2823 938.92688,520.26676 L 936.30958,518.67363 C 934.39896,517.0145 932.97279,516.32428 934.03367,520.60815 L 937.33374,524.02202 L 935.39921,535.62916 L 912.52631,548.14667 L 895.68458,537.90507 L 882.14291,547.80528 L 870.19438,547.46389 L 865.30117,553.72265 C 865.23078,555.83521 863.76651,558.1469 866.43913,559.86761 L 869.28401,561.57454 L 861.88731,570.45059 L 829.45558,554.51922 L 832.07288,547.3501 L 829.56938,545.30178 L 824.10719,551.21915 L 808.06202,558.04688 L 800.43772,550.08119 L 791.44788,548.82944 L 778.83275,544.26144 L 766.08348,539.56013 L 766.19332,539.60222 z"
         style="fill:#fefee9;fill-opacity:1;fill-rule:evenodd;stroke:#646464;stroke-width:1.20000000000000000;stroke-linecap:butt;stroke-linejoin:miter;stroke-opacity:1;stroke-miterlimit:4;stroke-dasharray:none" />
      <path
         sodipodi:nodetypes="ccccccccccccccccccccccccccccccccccccccccccccccccccccccccccccccccccccccccccccccccccc"
         id="Mostyska_border"
         d="M 231.09717,445.77935 L 235.44231,449.80263 L 247.99494,450.28542 C 252.56311,452.05849 253.83341,454.03768 251.53543,456.23988 C 246.05436,457.87131 248.74612,463.58916 249.76518,468.47065 L 253.94939,480.21862 C 256.09628,482.47051 262.04704,480.91855 266.50202,480.86235 C 271.64001,483.29995 276.92727,485.43898 280.8249,490.35729 L 280.8249,494.38057 C 285.20428,494.47701 288.12953,496.173 288.22773,500.97874 L 292.25101,505.00202 L 298.68826,503.23178 L 302.22875,509.34717 L 309.14879,518.03745 L 314.29858,517.55465 L 323.31073,522.70445 L 324.11539,526.72773 L 326.52935,528.49797 L 337.47267,528.98077 L 353.88765,535.09615 C 359.96595,538.03198 366.933,538.74594 373.84312,539.60223 C 381.01266,542.57653 381.37924,546.35119 378.25632,550.53637 C 374.30759,553.98166 371.3832,557.71962 371.65618,562.37111 L 377.11837,565.1022 L 376.89078,573.29548 C 372.32316,571.87629 365.16361,577.42567 364.82846,575.79898 L 356.40758,576.02657 L 350.26262,572.61271 L 338.65548,582.8543 L 345.02803,590.36481 L 343.2073,593.55108 L 344.80044,597.42013 L 335.6968,606.75136 C 338.7793,608.26863 340.80951,609.78591 337.28993,611.30318 L 332.28293,620.86201 C 328.36817,619.58593 324.66763,620.02361 321.35856,623.5931 C 318.47574,621.62063 316.19983,621.77238 314.53083,624.04828 L 306.33755,620.17923 L 298.59946,631.10361 C 301.5868,635.09291 299.68839,635.82505 295.41318,634.97265 L 282.44049,632.24156 L 265.14357,632.69674 L 260.59175,634.74506 L 258.31584,628.37251 L 240.33615,627.68974 L 237.14987,632.92433 L 229.63937,632.69674 L 227.81864,629.73806 L 219.62536,629.05529 L 212.57004,626.32419 L 203.01122,632.69674 L 203.69399,636.3382 C 204.96783,640.38843 204.0089,641.46163 201.64567,640.66243 L 199.59735,639.97966 L 195.7283,632.69674 L 188.44539,632.46915 C 188.6246,635.06464 186.04393,638.58009 191.17648,639.52447 L 191.17648,644.53148 L 191.17648,644.75907 C 187.48925,643.96185 185.03611,646.24989 182.52802,648.40053 L 179.34175,644.75907 C 177.63525,639.35823 174.17991,641.53569 170.69329,643.8487 C 169.51012,648.10015 167.68327,645.9148 165.91387,644.30389 L 160.2241,644.30389 L 158.40337,642.25557 L 167.96219,633.15192 L 157.94819,615.39982 C 159.64456,609.39912 158.06751,606.30813 154.30673,605.15823 C 152.08191,606.90154 151.55975,603.53687 150.43768,601.97195 C 149.84706,598.01075 146.92487,596.38112 142.69959,596.05458 C 137.14495,597.94104 139.95862,594.50222 140.65127,592.41313 L 142.472,590.81999 L 138.14777,583.99226 L 119.03012,580.3508 L 113.45414,575.23001 L 116.99696,566.15587 L 124.3998,559.23583 L 135.02126,555.37348 L 138.23988,545.07389 L 154.01113,528.65891 C 163.11908,520.1807 168.13179,510.81223 170.26518,500.81781 L 179.27733,500.81781 C 197.69263,483.28717 215.82928,465.56146 231.2581,445.94028"
         style="fill:#fefee9;fill-opacity:1;fill-rule:evenodd;stroke:#646464;stroke-width:1.20000000000000000;stroke-linecap:butt;stroke-linejoin:miter;stroke-opacity:1;stroke-miterlimit:4;stroke-dasharray:none" />
      <path
         sodipodi:nodetypes="cccccccccccccccccccccccccccccccccccccccccccccccccccccccccccccccccccccccccccccccccccccccccc"
         id="Bussk_border"
         d="M 945.95344,381.24595 L 941.6083,384.78643 C 940.31002,386.6554 941.70368,387.98598 942.41296,389.45344 L 954.32186,393.47672 L 956.41397,390.74089 L 958.98887,392.67206 L 957.86235,395.72975 L 980.71458,404.25911 C 985.243,406.00398 989.53152,406.86927 992.78442,403.93724 L 992.46255,396.69534 L 997.61235,390.57996 L 997.61235,400.39676 C 998.83063,403.35565 1000.8648,403.05103 1002.9231,402.6498 L 1015.3148,414.23684 L 1014.1883,423.40992 C 1014.7344,429.13893 1016.3956,427.43395 1018.2115,424.69737 C 1021.3521,418.97696 1021.5514,422.08052 1022.2348,423.73178 C 1022.9078,429.57958 1021.3284,433.31572 1015.1538,432.74392 L 1013.5445,438.53745 C 1013.5419,441.31495 1014.8889,442.35722 1017.8897,441.27328 L 1028.3502,439.8249 C 1031.9072,440.08485 1032.9361,441.60891 1029.6377,445.29656 C 1024.672,453.06842 1017.9117,448.87624 1011.7743,448.83704 C 1008.3648,448.77722 1004.6873,448.18123 1002.9231,451.41194 L 1002.9231,457.84919 C 1009.6995,459.08974 1016.1913,463.74584 1021.2692,485.36842 C 1026.2412,486.81134 1031.081,487.97089 1038.9717,495.66801 C 1038.0212,499.99542 1027.0798,495.75924 1020.7864,495.50708 L 1019.8209,502.26619 C 1026.473,505.06107 1026.5179,506.86488 1024.6488,508.38158 L 1015.1538,509.0253 L 1014.5101,522.06073 C 1007.6598,522.16534 1000.8826,522.74483 994.87652,528.33704 C 989.59973,529.64094 984.77131,526.90944 979.90992,524.47469 L 981.8411,518.35931 L 974.59919,518.03745 C 970.96475,513.14844 967.56274,510.46744 964.78239,513.69231 C 963.31153,520.13965 960.44776,524.86634 951.74697,522.38259 C 948.6392,519.50011 945.69838,517.28542 943.86134,519.48583 C 942.9229,522.86616 939.61812,520.56727 936.61944,519.00303 C 932.47473,515.35099 933.5008,518.16243 934.3664,520.77328 L 937.42409,524.15283 L 935.33199,535.73988 L 912.47976,548.29251 L 895.74292,537.83198 L 882.2247,548.13158 L 869.99393,547.64878 L 865.48786,553.76417 C 863.85712,557.80888 864.83474,559.24521 866.61437,559.87955 L 869.18927,561.48886 L 861.62551,570.50101 L 829.27834,554.72976 L 832.1751,547.48785 L 829.6002,545.39575 L 823.64575,551.67206 L 807.8745,557.94838 L 800.79352,550.22368 L 791.29859,548.93623 L 766.03239,539.92409 C 765.19766,536.97368 765.20642,534.02328 766.51518,531.07287 L 777.29757,530.10729 L 780.0334,523.34818 L 795.64373,523.67004 C 800.1997,517.00325 803.55972,510.02447 798.37956,500.81781 L 810.44939,489.71356 L 806.58705,486.01214 L 807.23077,481.82793 L 805.46053,478.60931 L 805.94332,472.65486 C 821.2139,472.04689 826.82234,463.22611 824.9332,448.03239 L 830.56579,445.29656 C 835.991,451.33509 842.36664,456.17309 855.83199,452.05567 C 855.68635,440.48048 851.04375,437.55328 845.37146,436.60627 C 836.30239,437.98948 835.58354,432.78042 834.42814,427.91599 C 835.74806,422.60178 830.89866,421.08409 826.86437,419.06478 C 822.56564,419.37827 820.16704,416.60406 819.30061,411.34008 L 824.61134,402.81073 C 827.81833,401.54589 831.23497,400.84015 835.71559,402.97166 L 857.11944,411.50101 L 867.2581,397.82186 L 851.96964,385.59109 L 855.83199,380.92409 L 877.55769,382.69433 L 878.68421,379.79757 L 897.83502,381.08502 L 900.73178,375.77429 L 922.45749,380.44129 L 924.22774,376.57894 L 939.83806,378.18826 L 945.95344,381.24595 z"
         style="fill:#fefee9;fill-opacity:1;fill-rule:evenodd;stroke:#646464;stroke-width:1.20000000000000000;stroke-linecap:butt;stroke-linejoin:miter;stroke-opacity:1;stroke-miterlimit:4;stroke-dasharray:none" />
      <path
         sodipodi:nodetypes="cccccccccccccccccccccccccccccccccccccccccccccccccccccccccccccccccccccccccccccccccccccccccccccccccccccccccccccccccccc"
         d="M 428.07692,733.36336 L 416.81174,727.24798 L 410.21356,720.6498 C 407.59869,718.71968 405.03291,716.98591 404.09818,721.77632 C 402.48919,727.64507 401.02479,733.57166 401.52328,740.2834 L 403.29352,745.91599 L 397.98279,750.26113 L 389.29251,750.26113 C 382.76609,753.84096 377.70951,751.90893 372.87753,749.13461 C 366.979,745.95822 360.48025,745.78295 353.72672,746.88158 C 348.36982,750.3209 342.60597,750.5046 336.82895,750.583 L 329.10425,754.28441 C 318.21899,779.96411 299.36062,769.32185 280.98583,760.88259 C 278.94804,765.03216 276.36783,768.27769 275.51417,774.40081 C 273.71923,784.44609 267.84587,784.97506 262.31781,786.30972 L 265.37551,799.50607 C 259.76827,807.63024 251.75765,814.20937 251.69636,825.89878 C 247.75238,828.71608 243.79653,831.81838 240.27024,824.61134 C 239.71526,823.0705 241.47687,819.6764 237.05162,821.23178 L 232.22368,823.48482 L 224.98178,822.68016 C 219.42214,822.37867 216.68342,827.0138 214.52126,832.65789 L 210.17611,832.33603 L 197.54903,834.57 C 195.89915,830.99782 193.04956,829.42517 189.58334,828.88023 C 184.42459,829.63888 182.30044,827.66639 183.21079,822.96286 L 182.9832,803.61762 L 185.7143,801.79689 C 190.46582,800.64303 192.8962,796.58776 195.27312,792.46566 L 192.08685,790.64493 C 193.89761,788.98392 194.28612,786.91655 191.85925,784.04479 L 188.90057,778.58261 L 194.59035,774.25838 L 200.50771,770.61692 L 203.92158,773.5756 C 210.04405,776.53238 214.63869,775.92425 217.12186,770.38933 C 214.75873,765.01152 210.27047,761.22757 205.51472,757.64423 L 208.24581,748.54059 L 198.2318,729.65053 C 200.44682,729.86748 202.58086,729.86845 203.01122,725.3263 L 205.9699,711.21565 C 207.04058,707.94493 204.32296,708.4625 203.23881,707.34661 C 198.9013,707.91179 199.16896,705.40686 198.2318,703.70515 L 196.41108,696.64983 C 200.92147,696.53487 198.6096,694.14582 198.00421,692.3256 L 191.85925,684.5875 L 194.59035,680.49086 L 197.32144,680.71845 L 199.59735,677.75977 L 204.60435,680.71845 L 211.20449,680.71845 C 214.22116,682.3227 215.3779,681.13705 215.98391,679.12532 L 216.2115,674.5735 C 212.12054,672.67122 209.92831,668.87022 208.24581,664.55949 L 199.36976,663.87672 L 199.14217,658.64212 L 191.63166,652.72476 L 191.40407,646.12462 L 191.17648,639.52447 C 186.04393,638.58009 188.6246,635.06464 188.44539,632.46915 L 195.7283,632.69674 L 199.59735,639.97966 L 201.64567,640.66243 C 204.0089,641.46163 204.96783,640.38843 203.69399,636.3382 L 203.01122,632.69674 L 212.57004,626.32419 L 219.62536,629.05529 L 227.81864,629.73806 L 229.63937,632.69674 L 237.14987,632.92433 L 240.33615,627.68974 L 258.31584,628.37251 L 260.59175,634.74506 L 265.14357,632.69674 L 282.44049,632.24156 L 295.41318,634.97265 C 299.68839,635.82505 301.5868,635.09291 298.59946,631.10361 L 306.33755,620.17923 L 314.53083,624.04828 C 316.19983,621.77238 318.47574,621.62063 321.35856,623.5931 C 324.66763,620.02361 328.36817,619.58593 332.28293,620.86201 L 337.28993,611.30318 C 340.80951,609.78591 338.7793,608.26863 335.6968,606.75136 L 344.80044,597.42013 L 343.2073,593.55108 L 345.02803,590.36481 L 338.65548,582.8543 L 350.26262,572.61271 L 356.40758,576.02657 L 365.51123,576.02657 L 365.51122,575.57139 C 366.32579,578.17069 366.2743,581.63604 369.38027,581.94394 C 371.35921,584.81852 372.27226,587.7997 368.24232,591.27517 L 358.22831,601.06159 L 361.41459,608.57209 L 357.31795,612.21355 C 355.35904,615.97998 356.47815,620.13116 359.36627,624.50346 L 371.65618,632.69674 C 377.57851,641.35965 388.9084,646.69484 410.57425,645.66943 L 414.4433,648.17293 L 415.35366,660.23526 L 420.81585,662.28358 L 424.00212,656.36621 L 430.82986,655.45585 C 433.07629,655.42203 435.7228,653.78791 437.43,655.91103 L 435.60927,662.51117 L 438.79554,664.78708 C 438.72503,670.93338 438.30584,676.9925 435.83686,682.53918 L 430.82986,682.76677 L 427.1884,696.64983 L 434.24372,700.97406 L 434.6989,704.16033 C 435.16386,707.26096 435.39346,710.59695 438.79554,710.76047 C 440.12227,712.73293 442.0088,714.70538 439.25073,716.67784 L 431.51263,725.55389 C 427.73483,726.66813 427.4446,729.77526 427.87117,733.29199"
         style="fill:#fefee9;fill-opacity:1;fill-rule:evenodd;stroke:#646464;stroke-width:1.20000000000000000;stroke-linecap:butt;stroke-linejoin:miter;stroke-opacity:1;stroke-miterlimit:4;stroke-dasharray:none"
         id="Sambor_border" />
      <path
         style="fill:#fefee9;fill-opacity:1;fill-rule:evenodd;stroke:#646464;stroke-width:1.20000000000000000;stroke-linecap:butt;stroke-linejoin:miter;stroke-opacity:1;stroke-miterlimit:4;stroke-dasharray:none"
         d="M 231.41903,446.10121 L 235.44231,449.80263 L 247.99494,450.28542 C 252.56311,452.05849 253.83341,454.03768 251.53543,456.23988 C 246.05436,457.87131 248.74612,463.58916 249.76518,468.47065 L 253.94939,480.21862 C 256.09628,482.47051 262.04704,480.91855 266.50202,480.86235 C 271.64001,483.29995 276.92727,485.43898 280.8249,490.35729 L 280.8249,494.38057 C 285.20428,494.47701 288.12953,496.173 288.22773,500.97874 L 292.25101,505.00202 L 298.68826,503.23178 L 302.22875,509.34717 L 309.14879,518.03745 L 314.29858,517.55465 L 323.31073,522.70445 L 324.11539,526.72773 L 326.52935,528.49797 L 337.47267,528.98077 L 353.88765,535.09615 C 359.96595,538.03198 367.09393,538.58501 374.00405,539.4413 L 375.45243,531.39474 L 379.47571,529.62449 L 382.37247,533.8087 L 389.61437,534.2915 L 411.82288,518.03745 L 415.84615,505.00202 L 428.88158,497.76012 L 435.1579,502.74899 L 431.61741,513.53138 C 438.58273,515.14801 440.82933,520.89352 440.95142,528.49797 L 443.52632,542.17712 L 448.83705,542.33806 C 452.27087,547.23399 455.48825,547.15162 458.49292,542.17712 C 461.01965,533.80782 464.73022,527.56945 471.52834,526.88866 L 476.19534,525.60121 L 476.83907,521.25607 L 482.31073,521.417 C 482.50102,524.9838 483.36127,528.41661 485.69028,531.55567 L 498.24292,528.49797 L 507.73785,532.03846 C 512.27908,534.94426 517.09104,533.78925 522.06073,530.26822 C 527.78441,532.79356 534.36471,531.3213 541.37247,527.85425 L 553.44231,531.39474 L 569.53543,529.30263 L 569.53543,511.76113 L 567.28239,511.11741 L 568.24798,507.41599 L 573.23684,502.42712 L 570.01822,498.88664 L 572.59312,490.03542 L 576.29454,491.64474 C 579.8136,493.82808 579.24375,490.38918 579.51316,488.10425 C 579.5009,484.57099 582.56421,484.99204 585.46761,485.20749 L 589.49089,486.49494 L 588.5253,476.19534 L 585.22622,476.91953 C 581.03035,481.96076 580.40879,476.92893 579.43269,472.89625 C 581.29551,468.56928 579.06844,466.03164 576.1336,463.80364 C 570.15291,463.33306 569.7416,458.93115 568.73077,454.95243 L 567.44332,447.22773 C 561.25915,448.33043 561.36662,444.25178 560.04049,441.35374 L 538.47571,439.42257 L 535.25709,413.67358 L 527.69332,404.58097 L 524.39423,385.43016 C 522.40979,383.21423 518.8345,382.9073 515.38209,382.45293 C 511.69476,382.25109 508.86242,381.19426 506.6918,379.47571 C 500.61833,363.9143 493.78029,358.10129 486.49494,357.9914 L 482.23026,346.24342 L 477.08047,344.71457 C 474.67493,339.38699 470.74268,337.11283 466.86134,334.73684 L 471.76974,327.65587 L 467.66599,324.67864 L 463.64271,329.18471 L 460.50456,326.12702 L 453.02126,325.16144 L 444.57237,306.01063 C 441.62626,309.18523 439.73144,308.15472 437.65233,307.86133 L 430.16903,307.78087 L 425.50203,320.25303 L 419.22571,319.93117 L 416.16802,312.52834 L 407.39727,300.6999 L 397.01721,300.4585 L 393.71812,294.98684 L 387.76366,289.59565 L 373.92358,303.67712 L 317.91953,345.92156 C 312.30964,363.41243 301.28325,373.43732 284.44585,375.45243 L 282.99747,384.8669 L 243.00607,424.77783 L 239.78745,434.87626 L 231.41903,446.10121 z"
         id="Javorov_border"
         sodipodi:nodetypes="cccccccccccccccccccccccccccccccccccccccccccccccccccccccccccccccccccccccccccccccccccccccccccccc" />
      <path
         sodipodi:nodetypes="cccccccccccccccccccccccccccccccccccccccccccccccccccccccccccccccccccccccccccccccccccccccccccccccc"
         id="Brody_border"
         d="M 1014.3492,521.73886 C 1019.2776,524.5071 1023.1212,528.55738 1023.3613,536.86639 L 1020.4646,544.43016 L 1028.6721,544.43016 C 1031.2023,548.42586 1031.1327,551.63029 1023.8441,552.63765 C 1021.7784,554.56355 1022.5961,555.91276 1024.8097,556.98279 L 1027.5455,561.48886 L 1032.0516,561.32793 C 1034.445,565.18664 1036.6267,567.35207 1038.167,564.38563 C 1040.3579,565.64478 1042.3956,566.39331 1043.3168,563.42004 C 1045.3603,563.18612 1047.1856,562.625 1046.6964,558.5921 C 1049.8264,552.56743 1053.2785,554.59809 1056.835,559.23583 L 1064.3988,559.55769 L 1066.4909,562.29352 L 1079.0435,562.77631 C 1085.9224,566.41161 1090.8652,571.98291 1096.1022,577.26012 C 1106.9608,588.80433 1120.8102,596.56013 1138.1053,599.95142 C 1142.5041,591.6263 1146.9028,592.63339 1151.3016,599.30769 L 1157.8998,598.50303 L 1160.9575,582.24899 C 1162.2989,577.5398 1165.0388,576.18707 1168.5213,576.61639 L 1179.3036,581.12247 C 1183.0095,577.92083 1188.972,577.87841 1194.753,577.58198 L 1196.0405,563.25911 L 1204.4089,551.51113 L 1202.1559,540.08502 L 1210.3634,529.62449 L 1217.4443,532.84312 L 1221.4676,528.6589 L 1216.1569,523.34818 L 1215.6741,497.76012 C 1205.9978,498.21217 1197.3605,489.31311 1188.9595,478.28745 L 1139.0709,406.35121 C 1142.9023,399.88896 1141.8949,391.61215 1142.6113,383.98178 C 1148.5713,382.45405 1147.863,375.5084 1147.1174,368.53239 C 1137.5197,360.44906 1132.3203,351.38834 1138.1053,339.88664 C 1135.2096,334.56013 1130.7161,328.75428 1136.0132,325.88562 L 1136.8178,321.54048 L 1147.1174,320.89676 L 1146.9565,313.33299 L 1148.5658,300.78036 L 1134.082,290.48077 L 1122.6559,290.48077 L 1118.4717,297.8836 L 1113.1609,294.66498 L 1082.4231,281.14676 L 1073.25,290.96356 L 1072.4453,295.7915 C 1072.5308,319.55986 1067.1054,337.95518 1050.0759,345.03643 L 1020.6255,353.88765 L 1015.6366,353.56579 L 1008.5557,359.35931 L 998.41701,353.24392 L 994.71559,356.62348 L 986.99089,352.27834 L 981.03644,358.55465 L 981.68016,365.31376 L 990.20952,367.72773 C 991.95844,369.55428 993.29518,371.43235 991.6579,373.68218 L 985.05972,374.32591 L 978.30061,376.57894 C 975.45749,377.84529 972.61438,375.96632 969.77126,374.8087 C 967.23339,374.24666 964.512,372.21646 962.36842,374.8087 L 952.87348,374.16498 L 945.63158,381.24595 L 942.57389,383.98178 C 940.34676,385.04541 940.62492,386.94414 942.25203,389.29251 L 954.16093,393.15486 L 956.25304,390.90182 L 958.66701,392.51113 L 957.70142,395.40789 L 978.94433,403.77631 C 983.64933,405.05927 988.48227,408.1333 992.78442,403.77631 L 992.46255,397.0172 L 997.61235,390.90182 L 997.77328,400.39676 C 998.56122,403.62422 1000.9235,402.65354 1002.9231,402.6498 L 1015.3148,414.23684 L 1014.0273,423.89271 C 1015.3159,430.73139 1018.1144,424.98812 1020.6255,421.63967 C 1022.1977,426.5989 1024.7835,431.93355 1015.1538,432.74392 L 1013.3836,438.69838 C 1013.6042,440.48641 1013.7762,442.3162 1016.9241,441.59514 L 1028.1893,439.8249 C 1030.5933,440.01033 1032.7926,440.33227 1031.4079,443.04352 C 1028.4279,448.72556 1023.6948,451.7105 1015.1538,448.83704 C 1010.4732,448.45431 1005.6244,447.65103 1002.6012,451.41194 L 1002.9231,458.17105 C 1016.2857,460.59803 1017.5168,474.14553 1021.1083,485.52935 C 1025.8769,486.14482 1031.2256,488.08609 1038.9717,495.50708 C 1038.543,499.13256 1034.3208,497.33875 1031.086,496.95546 L 1020.6255,495.50708 L 1019.6599,501.94433 C 1023.5856,503.9936 1027.1068,506.07175 1025.1316,508.54251 L 1015.1538,509.18623 L 1014.3492,521.73886 z"
         style="fill:#fefee9;fill-opacity:1;fill-rule:evenodd;stroke:#646464;stroke-width:1.20000000000000000;stroke-linecap:butt;stroke-linejoin:miter;stroke-opacity:1;stroke-miterlimit:4;stroke-dasharray:none" />
      <path
         sodipodi:nodetypes="cccccccccccccccccccccccccccccccccccccccccccccccccccccccccccccccccccccccccccccccccccccccc"
         d="M 374.13602,539.45266 C 381.30556,542.42696 381.67214,546.20162 378.54922,550.3868 C 374.60049,553.83209 371.6761,557.57005 371.94908,562.22154 L 377.41127,564.95263 L 377.18368,573.14591 C 372.96867,573.42909 367.97549,572.6299 365.48227,575.78273 C 366.08154,579.81144 365.96024,579.7502 369.38027,581.94394 C 371.35921,584.81852 372.27226,587.7997 368.24232,591.27517 L 358.22831,601.06159 L 361.41459,608.57209 L 357.31795,612.21355 C 355.35904,615.97998 356.47815,620.13116 359.36627,624.50346 L 371.65618,632.69674 C 377.57851,641.35965 388.9084,646.69484 410.57425,645.66943 L 414.4433,648.17293 L 415.35366,660.23526 L 420.81585,662.28358 L 424.00212,656.36621 L 430.82986,655.45585 C 433.07629,655.42203 435.7228,653.78791 437.43,655.91103 L 435.60927,662.51117 L 438.79554,664.78708 C 438.72503,670.93338 438.30584,676.9925 435.83686,682.53918 L 430.82986,682.76677 L 427.1884,696.64983 L 434.24372,700.97406 L 434.6989,704.16033 C 435.16386,707.26096 435.39346,710.59695 438.79554,710.76047 C 440.12227,712.73293 442.0088,714.70538 439.25073,716.67784 L 431.51263,725.55389 C 427.73483,726.66813 427.4446,729.77526 427.87117,733.29199 L 437.57186,744.46761 L 445.77935,744.14575 L 452.53846,745.75506 L 462.67713,745.75506 L 466.05668,756.05466 L 493.25405,757.50304 L 483.43725,741.89271 L 477.32186,739.31781 L 480.37956,736.42105 L 487.78239,738.99595 C 490.12653,744.05087 491.06541,751.51482 496.15081,751.87044 L 498.72571,746.23785 L 505.16296,753.64069 C 507.68942,755.26302 508.30547,752.10931 509.18624,749.61741 C 510.25598,739.92745 504.70477,733.76866 499.53037,727.40891 L 501.7834,706.97065 C 505.07724,706.91577 504.6984,703.64728 504.68016,700.69433 L 506.28947,689.59008 L 502.10526,687.01518 C 502.82475,683.04695 500.79268,681.33001 496.79454,681.22166 L 495.50709,676.71559 C 484.26904,668.16597 494.80421,661.97022 498.08198,654.98988 C 501.4058,649.73311 503.55581,644.65241 498.40385,640.667 C 506.57287,636.81573 508.50811,633.31078 509.0253,629.88461 L 516.26721,622.48178 L 519.96862,602.36538 L 505.64575,588.36437 L 508.54251,574.52429 L 514.49696,571.62753 L 521.09514,573.39777 C 523.64387,573.54264 526.00197,573.90535 525.60122,577.42105 C 531.94537,577.54253 533.8608,573.23529 535.57895,568.73077 L 544.43016,541.21154 L 550.22368,530.26822 L 541.37247,527.85425 C 534.36471,531.3213 527.78441,532.79356 522.06073,530.26822 C 517.09104,533.78925 512.27908,534.94426 507.73785,532.03846 L 498.24292,528.49797 L 485.69028,531.55567 C 483.36127,528.41661 482.50102,524.9838 482.31073,521.417 L 476.83907,521.25607 L 476.19534,525.60121 L 471.52834,526.88866 C 464.73022,527.56945 461.01965,533.80782 458.49292,542.17712 C 455.48825,547.15162 452.27087,547.23399 448.83705,542.33806 L 443.52632,542.17712 L 440.95142,528.49797 C 440.82933,520.89352 438.58273,515.14801 431.61741,513.53138 L 435.1579,502.74899 L 428.88158,497.76012 L 415.84615,505.00202 L 411.82288,518.03745 L 389.61437,534.2915 L 382.37247,533.8087 L 379.47571,529.62449 L 375.45243,531.39474 L 373.19939,539.44129"
         style="opacity:1;fill:#fefee9;fill-opacity:1;fill-rule:evenodd;stroke:#646464;stroke-width:1.20000000000000000;stroke-linecap:butt;stroke-linejoin:miter;marker:none;marker-start:none;marker-mid:none;marker-end:none;stroke-miterlimit:4;stroke-dasharray:none;stroke-dashoffset:0;stroke-opacity:1;visibility:visible;display:inline;overflow:visible;enable-background:accumulate"
         id="Gorodok_border" />
      <path
         id="St.Sambor_border"
         style="fill:#fefee9;fill-opacity:1;fill-rule:evenodd;stroke:#646464;stroke-width:1.20000000000000000;stroke-linecap:butt;stroke-linejoin:miter;stroke-opacity:1;stroke-miterlimit:4;stroke-dasharray:none"
         d="M 191.40407,644.75907 C 187.71684,643.96185 185.03611,646.24989 182.52802,648.40053 L 179.34175,644.75907 C 177.63525,639.35823 174.17991,641.53569 170.69329,643.8487 C 169.51012,648.10015 167.68327,645.9148 165.91387,644.30389 L 160.2241,644.30389 L 158.40337,642.25557 L 167.96219,633.15192 L 157.94819,615.39982 C 159.64456,609.39912 158.06751,606.30813 154.30673,605.15823 C 152.08191,606.90154 151.55975,603.53687 150.43768,601.97195 C 149.84706,598.01075 146.92487,596.38112 142.69959,596.05458 C 137.14495,597.94104 139.95862,594.50222 140.65127,592.41313 L 142.472,590.81999 L 138.14777,583.99226 L 119.03012,580.3508 L 113.45414,575.3438 L 110.43856,582.9112 L 102.01769,589.45444 L 88.9881,589.73893 L 86.598394,599.35465 L 80.112049,613.5222 L 69.073884,626.2104 L 33.473684,657.72571 L 32.186235,667.86437 L 25.266194,676.87652 L 17.380567,682.9919 L 8.6902834,686.85425 L 11.908907,703.26923 L 19.686626,709.16733 L 30.155814,714.40193 L 33.455884,718.49857 L 34.59384,727.48841 L 32.773111,760.9443 L 40.625002,786.4345 L 41.649162,811.92469 L 39.259456,828.19745 C 40.732043,825.63853 51.508006,833.07305 53.751012,841.02632 C 57.075107,845.69514 59.514269,851.24889 65.659919,853.09615 C 67.790265,853.54686 70.395497,853.33274 70.487854,856.63664 C 71.325909,858.15056 71.72863,860.20864 74.189271,859.69433 C 75.584008,858.70697 76.978745,858.91177 78.373482,860.49899 C 79.4991,861.68365 80.540249,863.29066 82.074899,862.43016 C 83.804036,862.78059 85.379912,863.43754 86.259109,865.48785 C 89.910617,871.37633 93.783995,877.24015 101.22571,882.70749 L 101.22571,886.08704 C 100.50379,889.3765 102.00139,891.11228 105.57085,891.39777 C 107.7166,891.67146 109.86235,891.12832 112.0081,893.81174 C 115.9933,896.03489 119.39141,896.34999 121.66397,893.00708 C 122.62653,889.9747 123.68417,886.98986 126.33097,884.79959 C 127.61724,884.91492 129.74274,884.0861 127.77935,887.85729 C 128.33551,888.64085 127.78795,891.35591 129.87146,889.4666 C 132.17822,888.50071 134.36678,887.94855 135.82591,889.94939 L 144.35526,896.54757 C 145.91876,898.18152 147.24407,897.43368 148.37854,894.77733 C 145.56732,891.51073 147.20997,891.07841 149.02227,890.75405 C 151.16769,892.36361 153.66137,893.71197 154.17206,896.54757 C 159.84411,896.38975 165.34376,896.92148 170.58704,898.47874 C 171.23411,896.28653 171.60872,894.13325 169.2996,892.36336 C 166.82008,891.66173 167.59981,890.02889 168.01215,888.50101 C 170.69433,887.13216 173.37652,887.59008 176.0587,888.34008 L 181.85223,888.66194 C 189.85178,887.82125 193.89162,891.24487 196.33603,896.38664 C 201.67704,897.04896 206.19166,896.47171 207.27935,890.75405 L 214.19939,881.58097 C 212.95235,875.67797 209.24682,873.63832 205.02632,872.40789 C 203.44347,866.26311 198.33335,864.03751 192.95648,862.1083 L 198.10628,855.67105 L 193.6002,848.91194 L 197.30162,840.86538 L 197.52999,834.60459 C 195.88011,831.03241 193.03052,829.45976 189.5643,828.91482 C 184.40555,829.67347 182.2814,827.70098 183.19175,822.99745 L 182.96416,803.65221 L 185.69526,801.83148 C 190.44678,800.67762 192.87716,796.62235 195.25408,792.50025 L 192.06781,790.67952 C 193.87857,789.01851 194.26708,786.95114 191.84021,784.07938 L 188.88153,778.6172 L 194.57131,774.29297 L 200.48867,770.65151 L 203.90254,773.61019 C 210.02501,776.56697 214.61965,775.95884 217.10282,770.42392 C 214.73969,765.04611 210.25143,761.26216 205.49568,757.67882 L 208.22677,748.57518 L 198.21276,729.68512 C 200.42778,729.90207 202.56182,729.90304 202.99218,725.36089 L 205.95086,711.25024 C 207.02154,707.97952 204.30392,708.49709 203.21977,707.3812 C 198.88226,707.94638 199.14992,705.44145 198.21276,703.73974 L 196.39204,696.68442 C 200.90243,696.56946 198.59056,694.18041 197.98517,692.36019 L 191.84021,684.62209 L 194.57131,680.52545 L 197.3024,680.75304 L 199.57831,677.79436 L 204.58531,680.75304 L 211.18545,680.75304 C 214.20212,682.35729 215.35886,681.17164 215.96487,679.15991 L 216.19246,674.60809 C 212.1015,672.70581 209.90927,668.90481 208.22677,664.59408 L 199.35072,663.91131 L 199.12313,658.67671 L 191.61262,652.75935 L 191.40407,644.75907 z"
         sodipodi:nodetypes="ccccccccccccccccccccccccccccccccccccccccccccccccccccccccccccccccccccccccccccccccccccccccccccccccccccccccc" />
      <path
         style="fill:#fefee9;fill-opacity:1;fill-rule:evenodd;stroke:#646464;stroke-width:1.20000000000000000;stroke-linecap:butt;stroke-linejoin:miter;stroke-opacity:1;stroke-miterlimit:4;stroke-dasharray:none"
         d="M 589.49089,486.49494 L 585.46761,485.20749 C 582.56421,484.99204 579.5009,484.57099 579.51316,488.10425 C 579.24375,490.38918 579.8136,493.82808 576.29454,491.64474 L 572.59312,490.03542 L 570.01822,498.88664 L 573.23684,502.42712 L 568.24798,507.41599 L 567.28239,511.11741 L 569.53543,511.76113 L 569.21356,529.30263 L 583.99863,533.69464 L 591.16775,534.37741 L 588.09527,538.24646 L 576.82951,538.36025 C 574.72075,539.65167 574.65209,540.78615 576.48813,541.77412 C 579.3007,543.87863 580.31828,545.65678 576.48813,546.55353 L 578.19506,559.52622 C 580.16022,561.97852 581.33083,565.46373 586.16075,564.19184 C 587.68632,563.2969 589.33891,563.79912 591.16775,566.24016 L 598.45066,570.223 L 598.45066,578.07489 L 607.7819,581.71635 L 608.69226,588.0889 L 612.7889,590.81999 L 622.00634,594.57524 L 622.34772,588.77167 L 626.33057,592.41313 C 630.51861,589.22854 632.59133,590.97967 634.06866,594.12006 C 636.58301,591.43585 638.72278,591.49862 640.32742,595.48561 L 650.22763,590.13722 L 649.54485,585.01642 C 650.16908,582.32266 650.86827,579.87251 653.86908,584.90262 L 656.48638,587.9751 C 660.31489,585.83268 664.23413,584.32536 668.6625,586.38196 C 673.07769,584.12571 674.22755,579.2572 675.71783,574.66102 L 680.04206,562.37111 C 680.78963,559.18515 679.93913,558.2365 677.65235,559.29863 C 673.2258,563.04293 669.87111,562.92848 666.95557,561.23315 L 659.67266,557.5917 L 658.30711,556.22615 L 661.83477,550.76396 L 657.51054,547.57769 L 658.6485,543.82244 L 655.00704,538.92923 L 654.32427,533.23945 L 650.34142,532.55668 C 647.52036,522.64205 641.12451,518.6854 634.75144,514.69078 L 618.59247,507.29407 L 619.84422,500.46634 L 611.08197,499.32839 C 607.75802,499.99449 606.5317,497.36433 605.2784,494.77657 L 605.50599,484.19358 L 597.08512,486.69708 L 589.57461,486.69708"
         id="Lvov"
         sodipodi:nodetypes="ccccccccccccccccccccccccccccccccccccccccccccccccccccccc" />
      <path
         style="fill:#fefee9;fill-opacity:1;fill-rule:evenodd;stroke:#646464;stroke-width:1.20000000000000000;stroke-linecap:butt;stroke-linejoin:miter;stroke-opacity:1;stroke-miterlimit:4;stroke-dasharray:none"
         d="M 569.18005,529.37305 L 583.96512,533.76506 L 591.13424,534.44783 L 588.06176,538.31688 L 576.796,538.43067 C 574.68724,539.72209 574.61858,540.85657 576.45462,541.84454 C 579.26719,543.94905 580.28477,545.7272 576.45462,546.62395 L 578.16155,559.59664 C 580.12671,562.04894 581.29732,565.53415 586.12724,564.26226 C 587.65281,563.36732 589.3054,563.86954 591.13424,566.31058 L 598.41715,570.29342 L 598.41715,578.14531 L 607.74839,581.78677 L 608.65875,588.15932 L 612.75539,590.89041 L 621.97283,594.64566 L 622.31421,588.84209 L 626.29706,592.48355 C 630.4851,589.29896 632.55782,591.05009 634.03515,594.19048 C 636.5495,591.50627 638.68927,591.56904 640.29391,595.55603 L 650.19412,590.20764 L 649.51134,585.08684 C 650.13557,582.39308 650.83476,579.94293 653.83557,584.97304 L 656.45287,588.04552 C 660.28138,585.9031 664.20062,584.39578 668.62899,586.45238 C 673.04418,584.19613 674.19404,579.32762 675.68432,574.73144 L 680.00855,562.44153 C 680.75612,559.25557 679.90562,558.30692 677.61884,559.36905 C 673.19229,563.11335 669.8376,562.9989 666.92206,561.30357 L 659.63915,557.66212 L 658.2736,556.29657 L 661.80126,550.83438 L 657.47703,547.64811 L 658.61499,543.89286 L 654.97353,538.99965 L 654.29076,533.30987 L 662.39271,515.38208 L 671.88765,503.79504 L 723.54656,521.25607 L 722.50051,525.84261 L 737.14524,533.24544 L 741.65132,527.37146 L 749.21508,526.40587 L 756.85931,531.2338 L 766.19332,531.39474 L 766.03239,540.08502 L 762.7333,543.78644 L 774.8836,554.1665 L 778.26316,551.43067 L 783.01063,551.5916 L 778.26316,561.08654 L 779.71154,564.14423 L 779.79201,568.6503 L 783.97622,571.2252 C 782.98153,574.95675 781.43915,578.10148 776.25152,577.34059 L 773.99848,575.97267 L 771.50405,578.06478 L 763.13563,575.89221 L 760.56073,579.83502 L 761.84818,581.84666 L 757.10071,589.97368 L 751.14626,606.46913 L 764.50354,620.30921 L 763.37703,622.88411 L 766.03239,627.71204 L 758.46862,627.63158 C 754.29666,629.58903 746.7246,631.5493 745.6746,629.07996 C 745.40773,629.34683 745.71253,629.00409 745.59413,629.24089 C 739.31782,633.4251 739.39828,634.06882 739.39828,634.06882 L 737.46711,638.49443 L 736.01873,643.4833 C 735.8633,646.47104 735.6482,649.42396 731.93281,650.33505 L 728.40515,660.00767 C 728.50458,664.49641 727.54861,667.13822 722.82917,663.19394 L 718.73253,658.75592 L 710.99444,658.41453 L 706.44262,659.89387 C 711.5479,665.51296 714.70028,671.78301 718.04976,677.98736 C 718.96979,682.59291 716.77039,680.56968 715.43246,680.37707 L 707.69437,680.60466 C 703.03761,680.96681 703.16585,677.91111 702.57357,675.37006 L 702.11839,668.54233 L 702.57357,664.90088 L 702.34598,661.94219 L 701.09423,658.52833 L 694.60788,659.43869 L 691.5354,660.91803 L 690.28365,668.99751 L 688.46292,681.51502 C 687.9402,684.20937 687.10216,686.85868 684.48008,689.25312 L 679.92826,677.64597 L 675.49023,676.39422 L 670.25564,671.72861 L 669.80046,665.58365 L 667.52455,664.44569 L 656.82777,669.56649 L 653.75529,676.62181 L 634.86523,689.8221 L 619.38904,677.41838 L 616.54415,684.7013 C 608.52981,689.22222 601.48906,684.49405 594.01264,683.90473 L 578.87783,680.49086 L 577.05711,672.06999 L 570.11558,668.76992 C 569.09767,673.38224 568.08544,677.99538 564.99478,682.31159 L 560.10157,682.88057 L 559.19121,696.76362 L 562.94646,698.01537 L 568.52244,702.3396 C 570.43557,704.64566 570.84919,707.16594 568.52244,710.0777 L 565.67755,714.97091 L 565.44996,716.67784 L 561.58091,716.22266 C 559.08621,716.73651 557.04956,720.30406 553.72902,715.31229 L 552.02209,712.80879 L 546.21852,712.5812 L 534.83897,708.71215 L 529.14919,707.23281 L 529.14919,697.67399 L 511.73847,693.69114 L 505.25213,695.73946 L 506.27629,689.5945 L 502.17965,686.97721 L 496.60367,681.17364 L 495.12433,676.84941 C 487.68669,671.41228 489.63033,665.74633 494.55535,660.00767 L 498.4244,653.63512 L 498.53819,640.54863 L 509.23497,629.96565 L 516.2903,622.34135 L 519.81796,602.31334 L 505.59352,588.31649 L 508.666,574.66102 L 514.46957,571.81614 L 522.20766,573.40927 C 524.35435,573.95231 526.16886,574.75373 525.62153,577.39212 L 535.29415,569.54023 L 544.51159,541.09135 L 550.20136,530.39457 L 553.61523,531.19113 L 569.20521,529.37041"
         id="Pustomyty_border"
         sodipodi:nodetypes="ccccccccccccccccccccccccccccccccccccccccccccccccccccccccccccccccccccccccccccccccccccccccccccccccccccccccccccccccccccccccccccccccccccccccccccc" />
      <path
         id="Mykolajiv_border"
         style="fill:#fefee9;fill-opacity:1;fill-rule:evenodd;stroke:#646464;stroke-width:1.20000000000000000;stroke-linecap:butt;stroke-linejoin:miter;stroke-opacity:1;stroke-miterlimit:4;stroke-dasharray:none"
         d="M 634.86523,689.8221 L 619.38904,677.41838 L 616.54415,684.7013 C 608.52981,689.22222 601.48906,684.49405 594.01264,683.90473 L 578.87783,680.49086 L 577.05711,672.06999 L 570.11558,668.76992 C 569.09767,673.38224 568.08544,677.99538 564.99478,682.31159 L 560.10157,682.88057 L 559.19121,696.76362 L 562.94646,698.01537 L 568.52244,702.3396 C 570.43557,704.64566 570.84919,707.16594 568.52244,710.0777 L 565.67755,714.97091 L 565.44996,716.67784 L 561.58091,716.22266 C 559.08621,716.73651 557.04956,720.30406 553.72902,715.31229 L 552.02209,712.80879 L 546.21852,712.5812 L 534.83897,708.71215 L 529.14919,707.23281 L 529.14919,697.67399 L 511.73847,693.69114 L 505.25213,695.96705 L 504.68016,701.14951 C 504.6984,704.10246 505.07724,706.91577 501.7834,706.97065 L 499.53037,727.40891 C 504.70477,733.76866 510.25598,739.92745 509.18624,749.61741 C 508.30547,752.10931 507.68942,755.26302 505.16296,753.64069 L 498.72571,746.23785 L 496.15081,751.87044 C 491.06541,751.51482 490.12653,744.05087 487.78239,738.99595 L 480.37956,736.42105 L 477.32186,739.31781 L 483.43725,741.89271 L 493.70923,757.73063 L 477.64373,757.02024 L 474.74696,758.46862 C 474.15734,760.08871 472.41581,761.5936 475.87348,763.61842 C 478.89693,764.61825 481.57691,765.96155 486.65587,764.90587 C 486.32515,766.60684 485.9321,768.29223 483.92004,769.57287 C 480.24016,771.9653 477.62097,773.29704 474.74696,774.8836 L 474.58603,779.22874 C 475.26798,782.22944 472.78531,782.9697 470.56275,783.89575 C 470.87218,786.20657 471.03944,788.56479 470.07996,791.29858 C 469.96502,793.29105 469.63553,795.49807 472.01113,795 C 473.16553,795.42218 475.09496,795.6506 477.96559,795.64372 C 482.18462,794.20894 482.68059,793.35592 484.08097,792.74696 C 487.09128,793.85142 489.54467,795.32717 493.73684,795.64372 C 501.55899,797.76335 499.92458,800.55845 495.82895,803.52935 C 494.94491,805.0754 494.73513,808.98133 494.70243,813.50708 L 493.73684,818.49595 C 491.8546,820.10545 487.00618,822.1499 492.93219,823.32389 C 494.27704,821.7397 495.12625,826.2685 495.18522,840.54352 L 505.80668,839.25607 L 505.64575,848.42915 L 514.1751,855.67105 L 513.20951,861.94737 L 515.94534,864.2004 L 521.09514,856.9585 L 527.69332,856.15385 C 533.69983,851.16023 539.41527,845.29339 547.16599,845.53239 L 550.22368,846.33704 L 556.66093,837.3249 L 578.06478,847.78542 L 580.31781,844.5668 C 589.51505,845.24794 591.37097,840.31512 590.29555,833.14069 L 590.93927,829.11741 L 605.74494,822.3583 L 615.23988,822.19737 C 619.90574,820.58236 623.86461,815.43235 627.95344,810.93219 L 634.87348,816.56478 C 640.8094,816.23405 644.7611,818.60908 644.04656,827.34717 L 653.21964,830.72672 L 658.53037,827.0253 C 664.02105,820.2275 671.76987,819.45143 678.96862,817.2085 C 684.60728,812.7542 680.98033,811.15087 679.12956,809.00101 C 677.03794,804.54887 679.36719,802.74926 683.31377,801.92004 C 686.53239,803.65562 689.75102,805.88642 692.96964,803.52935 C 695.52487,802.85553 693.29997,801.38502 692.48684,800.1498 L 686.37146,793.55162 L 682.18725,792.74696 C 678.17384,788.07009 673.5335,784.02014 667.70344,781.15992 C 665.09009,779.71154 665.46766,778.26316 667.70344,776.81478 C 678.28278,771.71213 673.0385,765.9215 670.27834,760.23887 C 664.43382,756.63454 668.48881,755.01011 671.40486,753.15789 C 674.64976,755.00398 675.78787,753.8404 674.78441,749.61741 L 674.80746,749.56475 L 666.84177,732.8368 L 667.97973,723.27798 L 667.29696,717.8158 L 650.45522,717.5882 C 630.74159,714.61044 632.6272,702.29247 634.86523,689.8221 z"
         sodipodi:nodetypes="ccccccccccccccccccccccccccccccccccccccccccccccccccccccccccccccccccccccccccccccccccccccccccccc" />
      <path
         id="Peremyshljany_border"
         style="fill:#fefee9;fill-opacity:1;fill-rule:evenodd;stroke:#646464;stroke-width:1.20000000000000000;stroke-linecap:butt;stroke-linejoin:miter;stroke-opacity:1;stroke-miterlimit:4;stroke-dasharray:none"
         d="M 896.86944,790.17206 L 890.11033,793.22976 L 882.06377,794.51721 L 868.22369,788.72368 C 866.21469,792.72139 862.50155,793.0268 857.92409,791.45951 C 850.10757,787.06053 843.47903,780.99838 837.80769,773.59615 L 832.81883,768.44636 L 822.03644,769.89474 C 819.24673,773.27047 816.24315,773.22447 813.02429,769.7338 C 809.35353,769.01892 806.4227,767.88121 808.67915,763.77935 L 813.02429,757.3421 L 800.1498,751.54858 L 791.29858,751.54858 L 786.79251,758.14676 C 788.08557,750.55118 785.33078,744.79554 781.96458,739.31781 C 774.94477,732.2547 770.70066,735.73921 767.96356,744.9504 C 765.70782,748.16687 763.51867,750.11803 761.68725,745.27227 L 758.95142,736.26012 L 758.95142,731.27125 L 757.18118,724.19028 C 754.08469,722.84919 755.29782,721.50809 756.37652,720.167 C 758.62501,717.70166 755.58507,717.88054 753.80162,717.43117 C 750.96457,716.42105 749.72208,717.80275 749.45648,720.6498 L 749.77834,725.79959 L 741.08806,734.48988 L 735.45547,731.43219 C 735.68678,724.58724 733.32458,725.84704 730.14474,729.66194 L 723.06377,725.15587 L 725.63866,712.44231 L 710.51113,707.45344 C 708.31007,707.79452 704.4211,706.70738 707.45344,711.47672 C 709.32294,714.40128 708.36917,716.81252 705.52227,718.87955 L 705.52227,728.53542 L 701.33806,732.71963 C 699.24595,734.97271 697.15385,735.55781 695.06174,733.52429 C 691.09394,726.99644 684.91446,724.61546 677.52024,724.51215 C 674.65142,721.3103 671.30564,722.40102 668.0253,722.90283 L 667.22065,717.91397 L 650.16194,717.5921 C 634.02259,715.92574 631.66629,704.78354 634.86523,689.8221 L 653.75529,676.62181 L 656.82777,669.56649 L 667.52455,664.44569 L 669.80046,665.58365 L 670.25564,671.72861 L 675.49023,676.39422 L 679.92826,677.64597 L 684.48008,689.25312 C 687.10216,686.85868 687.9402,684.20937 688.46292,681.51502 L 690.28365,668.99751 L 691.5354,660.91803 L 694.60788,659.43869 L 701.09423,658.52833 L 702.34598,661.94219 L 702.57357,664.90088 L 702.11839,668.54233 L 702.57357,675.37006 C 703.16585,677.91111 703.03761,680.96681 707.69437,680.60466 L 715.43246,680.37707 C 716.77039,680.56968 718.96979,682.59291 718.04976,677.98736 C 714.70028,671.78301 711.5479,665.51296 706.44262,659.89387 L 710.99444,658.41453 L 718.73253,658.75592 L 722.82917,663.19394 C 727.54861,667.13822 728.50458,664.49641 728.40515,660.00767 L 731.93281,650.33505 C 735.6482,649.42396 735.8633,646.47104 736.01873,643.4833 L 737.46711,638.49443 L 739.85346,633.15846 C 739.85346,633.15846 739.31782,633.4251 745.59413,629.24089 C 745.48494,629.00409 745.40773,629.34683 745.6746,629.07996 C 746.7246,631.5493 754.29666,629.36144 758.46862,627.40399 L 765.8048,627.71204 L 768.99581,633.74696 L 772.63057,634.22976 L 776.01012,640.34514 L 780.35527,638.89676 L 780.83806,630.8502 L 783.0911,628.2753 L 787.59717,631.65486 L 795.32186,631.33299 C 798.57668,637.60801 801.7041,644.26524 805.78239,648.06984 L 812.05871,646.94332 L 814.79454,642.27631 L 822.68016,641.63259 L 824.28948,635.67814 L 827.18624,634.22976 L 828.63462,630.52834 L 836.52025,631.49393 L 837.80769,635.35627 L 844.5668,640.34514 L 843.11842,643.08097 C 843.46077,644.65736 846.97033,644.25424 850.68219,643.72469 C 854.01971,645.71965 857.26903,647.77341 858.08502,651.44939 L 867.57996,654.50708 L 874.9828,653.5415 L 875.78745,636.32186 L 879.97166,625.53947 L 884.3168,627.79251 L 885.92612,630.8502 L 884.47774,633.58603 L 886.24798,635.35628 L 892.68523,635.35627 L 892.20243,648.87449 C 888.28902,652.012 889.44871,653.88124 892.36336,655.31174 C 898.96154,653.38983 905.55972,652.21674 912.1579,653.70243 C 924.41532,658.28529 935.31748,664.02979 929.86033,683.79656 L 942.89575,683.47469 L 946.43624,675.42814 L 954.16093,679.29048 L 952.87348,681.86538 L 955.44838,685.88866 C 956.62406,690.49208 955.21861,692.80116 948.68927,690.55567 C 945.5079,688.01326 944.47115,691.04684 943.37855,693.93522 L 947.56276,705.84413 L 962.52935,703.1083 C 972.29835,704.0501 970.81387,710.21673 968.80567,716.62652 L 962.36842,717.43117 L 961.08097,719.68421 L 964.24674,727.67791 M 963.97773,727.8917 L 959.63259,732.88057 L 953.03441,733.52429 L 956.41397,747.20344 L 953.35628,749.13461 L 947.40182,738.67409 L 926.80263,742.05364 L 926.96356,746.72065 L 894.77733,748.97368 C 898.14479,758.25405 901.78997,767.53441 894.29454,776.81478 L 896.86944,789.68927"
         sodipodi:nodetypes="ccccccccccccccccccccccccccccccccccccccccccccccccccccccccccccccccccccccccccccccccccccccccccccccccccccccccccccccccccccccccccccccccccc" />
      <path
         id="Zhydachiv_border"
         style="fill:#fefee9;fill-opacity:1;fill-rule:evenodd;stroke:#646464;stroke-width:1.20000000000000000;stroke-linecap:butt;stroke-linejoin:miter;stroke-opacity:1;stroke-miterlimit:4;stroke-dasharray:none"
         d="M 668.0253,722.90283 C 671.30564,722.40102 674.65142,721.3103 677.52024,724.51215 C 684.91446,724.61546 691.09394,726.99644 695.06174,733.52429 C 697.15385,735.55781 699.24595,734.97271 701.33806,732.71963 L 705.52227,728.53542 L 705.52227,718.87955 C 708.36917,716.81252 709.32294,714.40128 707.45344,711.47672 C 704.4211,706.70738 708.31007,707.79452 710.51113,707.45344 L 725.63866,712.44231 L 723.06377,725.15587 L 730.14474,729.66194 C 733.32458,725.84704 735.68678,724.58724 735.45547,731.43219 L 741.08806,734.48988 L 749.77834,725.79959 L 749.45648,720.6498 C 749.72208,717.80275 750.96457,716.42105 753.80162,717.43117 C 755.58507,717.88054 758.62501,717.70166 756.37652,720.167 C 755.29782,721.50809 754.08469,722.84919 757.18118,724.19028 L 758.95142,731.27125 L 758.95142,736.26012 L 761.68725,745.27227 C 763.51867,750.11803 765.70782,748.16687 767.96356,744.9504 C 770.70066,735.73921 774.94477,732.2547 781.96458,739.31781 C 785.33078,744.79554 788.08557,750.55118 786.79251,758.14676 C 785.49945,765.74234 777.9413,763.29656 777.9413,763.29656 L 781.80365,774.40081 C 781.68369,778.48555 779.48531,779.45266 776.81478,779.71154 L 766.03239,780.35526 C 762.24676,785.18202 760.08049,790.07106 767.31984,795.32186 L 765.38867,815.27733 L 759.27328,816.40385 C 749.85082,823.3992 740.91805,830.59277 749.13462,844.72773 L 764.74494,863.55668 L 764.58401,867.57996 C 753.52238,871.81585 750.45743,880.71648 749.61741,890.91498 C 747.96004,896.68633 746.90194,902.95708 740.2834,904.59413 L 735.29454,898.63968 L 729.50101,903.46761 L 708.74089,902.82389 C 708.07955,910.62002 705.54485,919.0852 710.51114,924.87146 L 718.0749,919.56073 L 734.81174,926.80263 C 730.7581,932.38449 731.17733,938.52545 730.30567,944.50506 C 727.12859,948.09747 723.59833,951.24842 718.71862,952.71255 C 723.1422,956.52396 729.6054,957.61588 736.58199,958.02328 C 745.64245,958.95122 754.89067,959.31585 763.13563,962.69028 L 762.65284,983.12854 L 758.30769,987.47368 L 757.8249,999.70445 L 751.22672,999.86538 L 739.80061,987.15182 L 725.15587,986.99089 L 720.48887,991.81883 L 693.77429,995.03745 L 680.57794,1006.6245 C 676.28644,1010.8057 671.99494,1010.1267 667.70344,1007.9119 L 661.74899,1012.0962 L 656.92105,1011.6134 C 642.3028,1011.4954 641.2135,1017.6587 638.09211,1022.8785 L 631.54106,1020.4841 L 628.86046,1014.1135 L 630.52834,1012.9008 L 631.81579,1006.4636 L 635.67814,1002.9231 L 623.76923,980.07085 L 619.26316,980.07085 L 612.82591,967.19636 L 615.72267,962.69028 L 613.14777,952.06883 L 602.52632,954.32186 L 599.95142,946.2753 L 605.10122,938.22874 L 603.4919,928.89474 C 606.69297,926.42713 606.39012,923.95951 604.45749,921.4919 L 597.69838,911.83603 L 584.18016,903.78947 L 583.21458,889.30567 L 587.39879,886.08704 L 585.78947,877.39676 L 577.74292,876.10931 L 571.30567,859.69433 L 577.83719,847.69115 L 580.14544,844.58297 C 594.18215,844.85252 589.79859,835.63381 590.93927,829.11741 L 605.74494,822.3583 L 615.23988,822.19737 C 619.90574,820.58236 623.86461,815.43235 627.95344,810.93219 L 634.87348,816.56478 C 640.8094,816.23405 644.7611,818.60908 644.04656,827.34717 L 653.21964,830.72672 L 658.53037,827.0253 C 664.02105,820.2275 671.76987,819.45143 678.96862,817.2085 C 684.60728,812.7542 680.98033,811.15087 679.12956,809.00101 C 677.03794,804.54887 679.36719,802.74926 683.31377,801.92004 C 686.53239,803.65562 689.75102,805.88642 692.96964,803.52935 C 695.52487,802.85553 693.29997,801.38502 692.48684,800.1498 L 686.37146,793.55162 L 682.18725,792.74696 C 678.17384,788.07009 673.5335,784.02014 667.70344,781.15992 C 665.09009,779.71154 665.46766,778.26316 667.70344,776.81478 C 678.28278,771.71213 673.0385,765.9215 670.27834,760.23887 C 664.43382,756.63454 668.48881,755.01011 671.40486,753.15789 C 674.64976,755.00398 675.78787,753.8404 674.78441,749.61741 L 674.80746,749.56475 L 666.84177,732.8368 L 667.97973,723.27798"
         sodipodi:nodetypes="cccccccccccccccccccccccccccccccccccccccccccccccccccccccccccccccccccccccccccccccccccccccccccccccccccccccccc" />
      <path
         id="Stryi_border"
         style="fill:#fefee9;fill-opacity:1;fill-rule:evenodd;stroke:#646464;stroke-width:1.20000000000000000;stroke-linecap:butt;stroke-linejoin:miter;stroke-opacity:1;stroke-miterlimit:4;stroke-dasharray:none"
         d="M 495.02429,841.02632 L 486.33401,843.60121 L 479.25304,850.03846 L 479.89676,860.65992 C 482.25708,861.73279 484.18826,861.51822 485.69028,860.01619 C 487.6407,859.99375 490.58241,858.81479 487.62146,864.52227 L 483.75911,867.09717 L 470.24089,866.7753 C 466.76742,877.64001 461.04568,884.97173 451.57287,886.40891 C 446.55199,888.39414 442.98955,894.0255 439.66397,900.24899 L 435.1579,896.38664 C 434.62146,900.30625 434.08502,904.48631 433.54858,909.26113 C 432.48789,914.52993 430.80326,920.29788 438.05466,918.917 L 440.62955,922.45749 C 441.11496,925.9584 443.40653,929.91085 437.41093,931.7915 L 434.51417,939.19433 C 423.92028,948.99773 414.00172,946.64512 404.25911,941.12551 C 401.74088,944.78538 399.24448,948.53257 395.89069,948.8502 L 393.31579,941.12551 L 391.22368,940.48178 L 388.48785,944.02227 L 393.31579,952.39069 C 396.60221,956.97015 399.46058,961.76364 401.04049,967.19636 L 393.31579,975.56478 L 399.10931,991.01417 C 407.91334,995.29919 415.57104,1000.7306 418.42105,1010.9696 L 414.23684,1015.1538 L 418.09919,1021.2692 L 424.21458,1016.7632 L 437.73279,1010.004 L 440.30769,1013.2227 L 443.52632,1010.9696 L 441.59514,1007.4291 L 460.58502,997.45142 L 472.81579,1004.5324 L 470.88462,1010.004 L 466.86134,1011.6134 L 478.77024,1021.2692 C 494.90351,1023.1602 513.04347,1023.0445 523.9919,1030.1204 C 527.43596,1030.2365 531.41003,1022.9326 535.25709,1017.4069 L 551.99393,1007.9119 L 567.60425,1015.7976 L 571.62753,1018.0506 L 571.14474,1024.0051 L 576.77733,1027.5455 L 593.6751,1006.3026 L 609.92915,1005.8198 L 628.91903,1013.8664 L 630.52834,1012.9008 L 631.81579,1006.4636 L 635.67814,1002.9231 L 623.76923,980.07085 L 619.26316,980.07085 L 612.82591,967.19636 L 615.72267,962.69028 L 613.14777,952.06883 L 602.52632,954.32186 L 599.95142,946.2753 L 605.10122,938.22874 L 603.4919,928.89474 C 606.97091,925.8531 605.55228,923.70194 604.45749,921.4919 L 597.69838,911.83603 L 584.18016,903.78947 L 583.21458,889.30567 L 587.39879,886.08704 L 585.78947,877.39676 L 577.74292,876.10931 L 571.30567,859.69433 L 577.90385,847.62449 L 556.66093,837.3249 L 550.22368,846.33704 L 547.16599,845.53239 C 539.41527,845.29339 533.69983,851.16023 527.69332,856.15385 L 521.09514,856.9585 L 515.94534,864.2004 L 513.20951,861.94737 L 514.1751,855.67105 L 505.64575,848.42915 L 505.80668,839.25607 L 495.18522,840.54352"
         sodipodi:nodetypes="cccccccccccccccccccccccccccccccccccccccccccccccccccccccccccccccccccccccccccccccc" />
      <path
         id="Drohobych"
         style="fill:#fefee9;fill-opacity:1;fill-rule:evenodd;stroke:#646464;stroke-width:1.20000000000000000;stroke-linecap:butt;stroke-linejoin:miter;stroke-opacity:1;stroke-miterlimit:4;stroke-dasharray:none"
         d="M 396.53442,948.36741 C 395.43366,948.36318 393.31579,940.15993 393.31579,940.15993 L 385.91296,931.7915 C 379.66731,935.10204 374.64545,933.51739 369.17611,933.72267 L 349.54251,922.77935 C 347.01211,922.55258 345.32103,923.44491 345.3583,926.6417 L 324.43725,922.45749 L 321.54049,925.67611 L 317.35628,923.74494 L 299.97571,939.19433 C 296.92665,938.09721 295.96895,939.78857 295.46963,942.0911 C 298.57224,945.07872 302.45559,947.93621 300.61943,951.74696 L 307.05668,959.1498 C 301.58587,963.12028 295.13612,966.11183 292.89474,973.31174 L 286.45749,970.73684 L 279.69838,969.44939 L 272.29555,963.65587 C 265.64373,959.79353 263.2834,961.51012 265.21458,968.80567 L 259.09919,972.34615 L 257.81174,964.29959 L 249.76518,963.01215 L 243.00607,950.78138 L 236.24696,950.45951 L 230.13158,943.05668 L 230.45344,933.40081 L 247.51215,934.04453 C 252.9457,932.7599 251.80669,930.28027 247.83401,927.28542 C 239.56254,929.32536 239.59551,922.27033 244.61538,921.4919 L 249.44332,919.88259 C 251.1703,917.62955 252.04239,915.37652 247.83401,913.12348 L 243.32794,906.68623 L 237.85628,904.75506 L 231.09717,892.52429 L 223.37247,891.5587 L 213.7166,880.93725 C 213.48515,874.82065 209.13168,873.65049 204.70445,872.56883 C 203.89121,865.76466 197.21389,864.82457 192.47368,861.94737 L 198.26721,856.15385 L 193.43927,848.42915 C 197.51781,844.24526 197.7686,839.93955 197.62348,834.91093 L 210.17611,832.33603 L 214.52126,832.65789 C 216.68342,827.0138 219.42214,822.37867 224.98178,822.68016 L 232.22368,823.48482 L 237.05162,821.23178 C 241.47687,819.6764 239.71526,823.0705 240.27024,824.61134 C 243.79653,831.81838 247.75238,828.71608 251.69636,825.89878 C 251.75765,814.20937 259.76827,807.63024 265.37551,799.50607 L 262.31781,786.30972 C 267.84587,784.97506 273.71923,784.44609 275.51417,774.40081 C 276.36783,768.27769 278.94804,765.03216 280.98583,760.88259 C 299.36062,769.32185 318.21899,779.96411 329.10425,754.28441 L 336.82895,750.583 C 342.60597,750.5046 348.36982,750.3209 353.72672,746.88158 C 360.48025,745.78295 366.979,745.95822 372.87753,749.13461 C 377.70951,751.90893 382.76609,753.84096 389.29251,750.26113 L 397.98279,750.26113 L 403.29352,745.91599 L 401.52328,740.2834 C 401.02479,733.57166 402.48919,727.64507 404.09818,721.77632 C 405.03291,716.98591 407.59869,718.71968 410.21356,720.6498 L 416.81174,727.24798 L 427.22745,732.64827 L 437.57186,744.46761 L 445.77935,744.14575 L 452.53846,745.75506 L 462.67713,745.75506 L 466.05668,756.05466 L 476.67813,756.53745 C 476.08851,758.15754 472.18822,761.13842 475.64589,763.16324 C 478.66934,764.16307 481.57691,765.96155 486.65587,764.90587 C 486.32515,766.60684 485.9321,768.29223 483.92004,769.57287 C 480.24016,771.9653 477.62097,773.29704 474.74696,774.8836 L 474.58603,779.22874 C 475.26798,782.22944 472.78531,782.9697 470.56275,783.89575 C 470.87218,786.20657 471.03944,788.56479 470.07996,791.29858 C 469.96502,793.29105 469.63553,795.49807 472.01113,795 C 473.16553,795.42218 475.09496,795.6506 477.96559,795.64372 C 482.18462,794.20894 482.68059,793.35592 484.08097,792.74696 C 487.09128,793.85142 489.54467,795.32717 493.73684,795.64372 C 501.55899,797.76335 499.92458,800.55845 495.82895,803.52935 C 494.94491,805.0754 494.73513,808.98133 494.70243,813.50708 L 493.73684,818.49595 C 491.8546,820.10545 487.00618,822.1499 492.93219,823.32389 C 494.27704,821.7397 495.44811,825.94664 495.50708,840.22166 L 486.65587,843.27935 L 479.25304,850.03846 L 479.89676,860.65992 C 482.25708,861.73279 484.18826,861.51822 485.69028,860.01619 C 487.6407,859.99375 490.58241,858.81479 487.62146,864.52227 L 483.75911,867.09717 L 470.24089,866.7753 C 466.76742,877.64001 461.04568,884.97173 451.57287,886.40891 C 446.55199,888.39414 442.98955,894.0255 439.66397,900.24899 L 435.1579,896.38664 C 434.62146,900.30625 434.08502,904.48631 433.54858,909.26113 C 432.48789,914.52993 430.80326,920.29788 438.05466,918.917 L 440.62955,922.45749 C 441.11496,925.9584 443.40653,929.91085 437.41093,931.7915 L 434.51417,939.19433 C 423.92028,948.99773 414.00172,946.64512 404.25911,941.12551 C 401.74088,944.78538 399.88821,948.04978 396.53442,948.36741 z"
         sodipodi:nodetypes="cccccccccccccccccccccccccccccccccccccccccccccccccccccccccccccccccccccccccccccccccccccccccccccccccccccc" />
      <path
         id="Skole_border"
         style="fill:#fefee9;fill-opacity:1;fill-rule:evenodd;stroke:#646464;stroke-width:1.20000000000000000;stroke-linecap:butt;stroke-linejoin:miter;stroke-opacity:1;stroke-miterlimit:4;stroke-dasharray:none"
         d="M 177.50709,1162.5668 C 181.81277,1170.2095 186.84894,1176.3912 189.57692,1187.1893 L 193.92207,1208.754 C 195.04463,1213.7839 198.59342,1215.5789 204.86539,1213.7429 C 211.75223,1216.1247 219.86059,1223.6369 224.82085,1217.9271 C 228.18249,1215.5429 231.07044,1212.5271 236.89069,1213.4211 L 247.35122,1224.0425 C 254.86134,1225.0779 262.37146,1225.811 269.88158,1219.6974 C 276.67068,1225.2027 275.61406,1241.1029 280.18117,1239.4919 C 283.09645,1246.8604 287.48027,1247.2534 292.09008,1246.5729 C 298.824,1252.0115 306.2305,1254.8944 315.10324,1252.2055 C 317.40895,1260.845 323.89653,1256.9389 330.3917,1253.0101 L 349.38158,1247.2166 C 360.76717,1224.1035 362.8304,1207.1391 354.04858,1197.3279 C 359.4932,1193.2572 361.79229,1182.109 363.86539,1170.4524 L 376.73988,1164.337 L 378.02733,1160.6356 L 375.45243,1158.2217 C 369.26714,1158.9971 366.26662,1154.9953 364.34818,1149.3704 C 362.55444,1137.513 366.01346,1125.2804 370.1417,1113 C 372.94248,1107.9898 372.29762,1102.4873 372.23381,1097.0678 C 380.96775,1088.5251 389.46757,1079.6703 399.43117,1072.7672 L 399.91397,1065.8472 C 403.27617,1064.8001 406.71431,1064.0314 411.34008,1067.6174 C 414.35981,1069.0713 416.09676,1067.4464 416.97267,1063.7551 L 426.30668,1045.7308 C 427.25602,1041.2553 428.25383,1036.7846 425.01923,1031.8907 L 431.13462,1021.4302 L 441.11235,1022.2348 L 444.9747,1026.2581 L 458.17105,1007.5901 L 463.15992,1005.337 L 466.86134,1011.6134 L 466.53948,1010.9697 L 470.88462,1010.004 L 472.81579,1004.5324 L 460.58502,997.45142 L 441.59514,1007.4291 L 443.52632,1010.9696 L 440.30769,1013.2227 L 437.73279,1010.004 L 424.21458,1016.7632 L 418.09919,1021.2692 L 414.23684,1015.1538 L 418.42105,1010.9696 C 415.57104,1000.7306 407.91334,995.29919 399.10931,991.01417 L 393.31579,975.56478 L 401.04049,967.19636 C 399.46058,961.76364 396.60221,956.97015 393.31579,952.39069 L 388.48785,944.02227 L 391.22368,940.48178 L 393.31579,941.12551 L 385.91296,931.7915 C 379.66731,935.10204 374.64545,933.51739 369.17611,933.72267 L 349.54251,922.77935 C 347.01211,922.55258 345.32103,923.44491 345.3583,926.6417 L 324.43725,922.45749 L 321.54049,925.67611 L 317.35628,923.74494 L 299.97571,939.19433 C 296.92665,938.09721 295.96895,939.78857 295.46963,942.0911 C 298.57224,945.07872 302.45559,947.93621 300.61943,951.74696 L 307.05668,959.1498 C 301.58587,963.12028 295.13612,966.11183 292.89474,973.31174 L 286.45749,970.73684 L 279.69838,969.44939 L 272.29555,963.65587 C 265.64373,959.79353 263.2834,961.51012 265.21458,968.80567 L 258.77733,972.66801 L 258.77733,972.66802 C 247.79144,981.01609 250.39795,988.66572 255.5587,996.16397 L 256.52429,1002.9231 C 253.22068,1006.9657 252.49381,1015.3028 251.69636,1023.5223 C 252.03859,1028.3357 244.32829,1038.9008 239.14372,1047.6619 C 232.90778,1045.6069 233.31422,1037.0795 227.23482,1033.5 L 224.65992,1032.5344 C 223.98861,1036.9056 223.16348,1041.123 216.61336,1039.6154 L 211.1417,1035.753 L 199.23279,1038.0061 L 194.72672,1033.1781 L 188.9332,1035.1093 L 188.61134,1042.5121 L 181.85223,1046.3745 C 178.37047,1050.0796 179.87794,1051.5673 184.10526,1051.8462 L 185.39271,1070.836 L 176.70243,1081.1356 L 181.2085,1084.6761 L 185.07085,1081.1356 L 188.28947,1084.3543 L 185.71458,1086.6073 L 185.39271,1092.0789 L 189.89879,1091.1134 L 189.57692,1086.6073 L 197.94534,1080.8138 L 197.94534,1075.0202 L 202.77328,1072.7672 L 206.63563,1075.3421 L 209.53239,1073.7328 L 212.10729,1077.5951 L 210.49798,1080.4919 L 214.36032,1083.7105 L 208.88866,1089.504 L 218.54453,1094.6538 L 214.36032,1097.8725 L 212.42915,1103.666 C 194.84947,1115.6124 198.91093,1111.8199 192.15182,1115.8968 L 186.3583,1137.1397 L 189.25506,1145.5081 L 188.61134,1158.3826 L 183.46154,1162.2449 L 176.38057,1160.9575 L 177.02429,1161.2794"
         sodipodi:nodetypes="cccccccccccccccccccccccccccccccccccccccccccccccccccccccccccccccccccccccccccccccccccccccccccccccccccccccccccccccc" />
      <path
         id="Turka_border"
         style="fill:#fefee9;fill-opacity:1;fill-rule:evenodd;stroke:#646464;stroke-width:1.20000000000000000;stroke-linecap:butt;stroke-linejoin:miter;stroke-opacity:1;stroke-miterlimit:4;stroke-dasharray:none"
         d="M 38.941469,828.09417 C 40.414056,825.53525 51.508006,833.07305 53.751012,841.02632 C 57.075107,845.69514 59.514269,851.24889 65.659919,853.09615 C 67.790265,853.54686 70.395497,853.33274 70.487854,856.63664 C 71.325909,858.15056 71.72863,860.20864 74.189271,859.69433 C 75.584008,858.70697 76.978745,858.91177 78.373482,860.49899 C 79.4991,861.68365 80.540249,863.29066 82.074899,862.43016 C 83.804036,862.78059 85.379912,863.43754 86.259109,865.48785 C 89.910617,871.37633 93.783995,877.24015 101.22571,882.70749 L 101.22571,886.08704 C 100.50379,889.3765 102.00139,891.11228 105.57085,891.39777 C 107.7166,891.67146 109.86235,891.12832 112.0081,893.81174 C 115.9933,896.03489 119.39141,896.34999 121.66397,893.00708 C 122.62653,889.9747 123.68417,886.98986 126.33097,884.79959 C 127.61724,884.91492 129.74274,884.0861 127.77935,887.85729 C 128.33551,888.64085 127.78795,891.35591 129.87146,889.4666 C 132.17822,888.50071 134.36678,887.94855 135.82591,889.94939 L 144.35526,896.54757 C 145.91876,898.18152 147.24407,897.43368 148.37854,894.77733 C 145.56732,891.51073 147.20997,891.07841 149.02227,890.75405 C 151.16769,892.36361 153.66137,893.71197 154.17206,896.54757 C 159.84411,896.38975 165.34376,896.92148 170.58704,898.47874 C 171.23411,896.28653 171.60872,894.13325 169.2996,892.36336 C 166.82008,891.66173 167.59981,890.02889 168.01215,888.50101 C 170.69433,887.13216 173.37652,887.59008 176.0587,888.34008 L 181.85223,888.66194 C 189.85178,887.82125 193.89162,891.24487 196.33603,896.38664 C 201.67704,897.04896 206.19166,896.47171 207.27935,890.75405 L 213.87753,881.66144 L 223.37247,891.5587 L 231.09717,892.52429 L 237.85628,904.75506 L 243.32794,906.68623 L 247.83401,913.12348 C 252.04239,915.37652 251.1703,917.62955 249.44332,919.88259 L 244.61538,921.4919 C 239.59551,922.27033 239.56254,929.32536 247.83401,927.28542 C 251.80669,930.28027 252.9457,932.7599 247.51215,934.04453 L 230.45344,933.40081 L 230.13158,943.05668 L 236.24696,950.45951 L 243.00607,950.78138 L 249.76518,963.01215 L 257.81174,964.29959 L 259.26012,972.34616 C 248.27423,980.69423 250.39795,988.66572 255.5587,996.16397 L 256.52429,1002.9231 C 253.22068,1006.9657 252.49381,1015.3028 251.69636,1023.5223 C 252.03859,1028.3357 244.32829,1038.9008 239.14372,1047.6619 C 232.90778,1045.6069 233.31422,1037.0795 227.23482,1033.5 L 224.65992,1032.5344 C 223.98861,1036.9056 223.16348,1041.123 216.61336,1039.6154 L 211.1417,1035.753 L 199.23279,1038.0061 L 194.72672,1033.1781 L 188.9332,1035.1093 L 188.61134,1042.5121 L 181.85223,1046.3745 C 178.37047,1050.0796 179.87794,1051.5673 184.10526,1051.8462 L 185.39271,1070.836 L 176.70243,1081.1356 L 181.2085,1084.6761 L 185.07085,1081.1356 L 188.28947,1084.3543 L 185.71458,1086.6073 L 185.39271,1092.0789 L 189.89879,1091.1134 L 189.57692,1086.6073 L 197.94534,1080.8138 L 197.94534,1075.0202 L 202.77328,1072.7672 L 206.63563,1075.3421 L 209.53239,1073.7328 L 212.10729,1077.5951 L 210.49798,1080.4919 L 214.36032,1083.7105 L 208.88866,1089.504 L 218.54453,1094.6538 L 214.36032,1097.8725 L 212.42915,1103.666 C 194.84947,1115.6124 198.91093,1111.8199 192.15182,1115.8968 L 186.3583,1137.1397 L 189.25506,1145.5081 L 188.61134,1158.3826 L 183.46154,1162.2449 L 176.25534,1160.9737 L 170.42611,1154.8421 C 164.04149,1153.7271 161.22357,1149.7588 156.74696,1147.1174 L 148.21761,1154.3593 C 142.82915,1157.5028 139.13618,1158.3856 138.8836,1154.6812 L 127.94028,1155.164 C 119.31519,1164.537 113.19434,1162.0149 107.98482,1155.164 L 105.57085,1141.4848 C 105.33329,1132.5581 101.06068,1127.0457 95.271255,1122.8168 C 88.573743,1118.1726 83.206307,1112.8634 78.212551,1107.3674 C 75.573725,1097.5856 72.212691,1088.1134 72.419028,1077.1123 C 74.381067,1072.5171 77.86176,1069.6936 82.396761,1068.1002 C 87.026831,1068.6748 91.197092,1068.1985 92.857288,1061.9848 L 92.535425,1050.7196 L 88.834009,1045.2479 L 86.580972,1045.1675 C 87.19874,1025.9054 82.196596,1019.8903 76.925101,1014.5101 C 76.925101,1014.5101 76.281377,1003.2449 77.890688,1000.3482 C 79.5,997.45142 83.040486,995.52024 83.040486,995.52024 L 89.477733,989.72672 C 89.477733,989.72672 90.121458,981.03644 83.362348,980.07085 C 76.603239,979.10526 82.074899,980.39271 82.074899,980.39271 L 70.809717,975.56478 L 55.038462,958.18421 L 50.532389,951.10324 C 50.532389,951.10324 52.463563,940.15992 46.348178,939.83806 C 40.232794,939.51619 44.095142,939.83806 44.095142,939.83806 C 44.982932,938.68393 40.274663,942.60171 33.473684,939.83806 C 33.324591,939.77747 31.54251,938.87247 31.54251,938.87247 C 31.54251,938.87247 30.898785,938.55061 30.576923,932.75708 C 30.255061,926.96356 32.186235,930.18219 32.186235,930.18219 C 32.186235,930.18219 36.370445,925.99798 35.404858,923.10121 C 34.439271,920.20445 34.761134,922.45749 34.761134,922.45749 C 34.761134,922.45749 29.933198,916.66397 24.461538,925.03239 C 24.461538,925.03239 22.024468,932.52133 19.955466,931.46964 C 14.335775,928.6131 14.193585,919.61028 24.783401,911.51417 C 39.585802,900.19746 31.220648,896.06477 31.220648,896.06477 C 31.220648,896.06477 17.411571,893.68122 21.88664,880.29352 C 24.0567,873.80153 32.829959,873.85627 32.829959,873.85627 L 38.941469,828.09417 z"
         sodipodi:nodetypes="ccccccccccccccccccccccccccccccccccccccccccccccccccccccccccccccccccccccccccccccccccccccccccccccccccccccsccsccccscscscsccsscscc" />
    </g>
  </g>
</svg>
